<?xml version="1.0" encoding="UTF-8" standalone="no"?>
<svg
   aria-hidden="true"
   role="img"
   width="24"
   height="24"
   fill="none"
   viewBox="0 0 24 24"
   version="1.1"
   id="svg2"
   sodipodi:docname="discovery.svg"
   inkscape:version="1.3.2 (091e20e, 2023-11-25, custom)"
   xmlns:inkscape="http://www.inkscape.org/namespaces/inkscape"
   xmlns:sodipodi="http://sodipodi.sourceforge.net/DTD/sodipodi-0.dtd"
   xmlns="http://www.w3.org/2000/svg"
   xmlns:svg="http://www.w3.org/2000/svg">
  <defs
     id="defs2" />
  <sodipodi:namedview
     id="namedview2"
     pagecolor="#ffffff"
     bordercolor="#000000"
     borderopacity="0.25"
     inkscape:showpageshadow="2"
     inkscape:pageopacity="0.0"
     inkscape:pagecheckerboard="0"
     inkscape:deskcolor="#d1d1d1"
     inkscape:zoom="15.083333"
     inkscape:cx="12"
     inkscape:cy="12"
     inkscape:window-width="1920"
     inkscape:window-height="969"
     inkscape:window-x="-9"
     inkscape:window-y="23"
     inkscape:window-maximized="1"
     inkscape:current-layer="svg2" />
  <path
     fill="currentColor"
     d="M12 14a2 2 0 1 0 0-4 2 2 0 0 0 0 4Z"
     class=""
     id="path1"
     style="fill:#e8eaed;fill-opacity:1" />
  <path
     fill="currentColor"
     fill-rule="evenodd"
     d="M23 12a11 11 0 1 1-22 0 11 11 0 0 1 22 0ZM7.74 9.3A2 2 0 0 1 9.3 7.75l7.22-1.45a1 1 0 0 1 1.18 1.18l-1.45 7.22a2 2 0 0 1-1.57 1.57l-7.22 1.45a1 1 0 0 1-1.18-1.18L7.74 9.3Z"
     clip-rule="evenodd"
     class=""
     id="path2"
     style="fill:#e8eaed;fill-opacity:1" />
</svg>
