<?xml version="1.0" encoding="UTF-8" standalone="no"?>
<svg
   role="img"
   width="18"
   height="18"
   fill="none"
   viewBox="0 0 24 24"
   version="1.1"
   id="svg1"
   sodipodi:docname="edit_alt.svg"
   inkscape:version="1.3.2 (091e20e, 2023-11-25, custom)"
   xmlns:inkscape="http://www.inkscape.org/namespaces/inkscape"
   xmlns:sodipodi="http://sodipodi.sourceforge.net/DTD/sodipodi-0.dtd"
   xmlns="http://www.w3.org/2000/svg"
   xmlns:svg="http://www.w3.org/2000/svg">
  <defs
     id="defs1" />
  <sodipodi:namedview
     id="namedview1"
     pagecolor="#ffffff"
     bordercolor="#000000"
     borderopacity="0.25"
     inkscape:showpageshadow="2"
     inkscape:pageopacity="0.0"
     inkscape:pagecheckerboard="0"
     inkscape:deskcolor="#d1d1d1"
     inkscape:zoom="20.111111"
     inkscape:cx="9"
     inkscape:cy="9"
     inkscape:window-width="1920"
     inkscape:window-height="969"
     inkscape:window-x="-9"
     inkscape:window-y="23"
     inkscape:window-maximized="1"
     inkscape:current-layer="svg1" />
  <path
     fill="currentColor"
     d="m13.96 5.46 4.58 4.58a1 1 0 0 0 1.42 0l1.38-1.38a2 2 0 0 0 0-2.82l-3.18-3.18a2 2 0 0 0-2.82 0l-1.38 1.38a1 1 0 0 0 0 1.42ZM2.11 20.16l.73-4.22a3 3 0 0 1 .83-1.61l7.87-7.87a1 1 0 0 1 1.42 0l4.58 4.58a1 1 0 0 1 0 1.42l-7.87 7.87a3 3 0 0 1-1.6.83l-4.23.73a1.5 1.5 0 0 1-1.73-1.73Z"
     id="path1"
     style="fill:#e8eaed;fill-opacity:1" />
</svg>
