<svg xmlns="http://www.w3.org/2000/svg" width="24" height="24" fill="#434343" viewBox="0 -960 960 960"><path d="M197-382q-19 0-32-13-13-14-13-33t13-32q13-13 32-13h204q19 0 32 13t13 32q0 19-13 33-13 13-32 13H197Zm0-168q-19 0-32-13t-13-32 13-33q13-13 32-13h360q20 0 33 13 13 14 13 33t-13 32q-13 13-33 13H197Zm0-167q-19 0-32-13t-13-33 13-32q13-13 32-13h360q20 0 33 13t13 32-13 33q-13 13-33 13H197Zm322 520v-65q0-10 3-18 4-8 10-15l209-208q10-10 22-14 11-4 23-4 13 0 25 4 12 5 22 15l37 37q8 10 13 22 5 11 5 23 0 13-4 25t-14 22L662-165q-7 6-15 10-9 3-18 3h-65q-19 0-32-13t-13-32Zm270-186 34-37-37-37-35 36 38 38ZM583-217h38l120-121-18-19-19-18-121 120v38Zm0 0v-38l121-120 37 37-120 121h-38Z"/><ellipse cx="725.7" cy="-352.3" rx="30.1" ry="29.6" style="fill:#434343;stroke-width:40;fill-opacity:1"/></svg>