<?xml version="1.0" encoding="UTF-8" standalone="no"?>
<svg
   height="24px"
   viewBox="0 -960 960 960"
   width="24px"
   fill="#e8eaed"
   version="1.1"
   id="svg1"
   sodipodi:docname="reply.svg"
   inkscape:version="1.3.2 (091e20e, 2023-11-25, custom)"
   xmlns:inkscape="http://www.inkscape.org/namespaces/inkscape"
   xmlns:sodipodi="http://sodipodi.sourceforge.net/DTD/sodipodi-0.dtd"
   xmlns="http://www.w3.org/2000/svg"
   xmlns:svg="http://www.w3.org/2000/svg">
  <defs
     id="defs1" />
  <sodipodi:namedview
     id="namedview1"
     pagecolor="#ffffff"
     bordercolor="#000000"
     borderopacity="0.25"
     inkscape:showpageshadow="2"
     inkscape:pageopacity="0.0"
     inkscape:pagecheckerboard="0"
     inkscape:deskcolor="#d1d1d1"
     inkscape:zoom="25.25"
     inkscape:cx="12"
     inkscape:cy="12"
     inkscape:window-width="1920"
     inkscape:window-height="1001"
     inkscape:window-x="-9"
     inkscape:window-y="-9"
     inkscape:window-maximized="1"
     inkscape:current-layer="svg1" />
  <path
     d="m 689.34,-469.33 -100,100 q -13.67,15 -13.67,36.83 0,21.83 13.67,36.83 16,16 38.33,16.17 22.33,0.17 36.67,-15.5 L 854.67,-484.67 Q 870,-500 870,-522.83 870,-545.67 854.67,-561 L 664.34,-751.33 q -16,-14.34 -37.84,-14.34 -21.83,0 -37.83,14.34 -13.67,16.66 -14.17,38.66 -0.5,22 14.84,35.67 l 100,101.67 H 331.67 q -93,0 -156,63.33 -63,63.33 -63,155 v 133 q 0,23.67 15.17,38.5 15.16,14.83 38.16,14.83 22.67,0 38,-14.83 15.34,-14.83 15.34,-38.5 v -133 q 0,-50 31.33,-81.17 31.33,-31.16 81,-31.16 z"
     id="path1" />
</svg>
