<?xml version="1.0" encoding="UTF-8" standalone="no"?>
<svg
   height="24px"
   viewBox="0 -960 960 960"
   width="24px"
   fill="#434343"
   version="1.1"
   id="svg1"
   sodipodi:docname="group_add_24dp_434343_FILL0_wght500_GRAD0_opsz24.svg"
   inkscape:version="1.4 (86a8ad7, 2024-10-11)"
   xmlns:inkscape="http://www.inkscape.org/namespaces/inkscape"
   xmlns:sodipodi="http://sodipodi.sourceforge.net/DTD/sodipodi-0.dtd"
   xmlns="http://www.w3.org/2000/svg"
   xmlns:svg="http://www.w3.org/2000/svg">
  <defs
     id="defs1" />
  <sodipodi:namedview
     id="namedview1"
     pagecolor="#ffffff"
     bordercolor="#000000"
     borderopacity="0.25"
     inkscape:showpageshadow="2"
     inkscape:pageopacity="0.0"
     inkscape:pagecheckerboard="0"
     inkscape:deskcolor="#d1d1d1"
     inkscape:zoom="256"
     inkscape:cx="24.441406"
     inkscape:cy="12.212891"
     inkscape:window-width="1920"
     inkscape:window-height="1001"
     inkscape:window-x="-9"
     inkscape:window-y="-9"
     inkscape:window-maximized="1"
     inkscape:current-layer="svg1" />
  <path
     d="m 502.21464,-486.48652 q 30.50801,-33.22093 46.39372,-75.36411 15.88572,-42.14317 15.88572,-86.99926 0,-44.84629 -16.35582,-87.34204 -16.34603,-42.49576 -46.39373,-74.77647 62.5145,9.70576 101.80765,56.24639 39.29315,46.53085 39.29315,105.98965 0,60.40881 -39.52821,106.70461 -39.5282,46.29578 -101.10248,55.54123 z m 192.5188,331.75876 q 13.34909,-19.74452 19.90122,-42.51535 6.56191,-22.77083 6.56191,-46.6092 v -35.43435 q 0,-38.53902 -15.4352,-71.53468 -15.43519,-33.00546 -42.30967,-58.89076 54.40515,16.45377 97.11638,47.17725 42.72101,30.72349 42.72101,83.24819 v 35.43435 q 0,37.00138 -26.05179,63.06296 -26.06159,26.06159 -63.07276,26.06159 z m 107.86028,-371.09109 h -39.88079 q -16.64963,0 -27.91263,-11.26298 -11.263,-11.263 -11.263,-27.91263 0,-16.64965 11.263,-27.91264 11.263,-11.26298 27.91263,-11.26298 h 39.88079 v -39.871 q 0,-16.64963 11.26299,-27.91263 11.26299,-11.26299 27.91263,-11.26299 16.64963,0 27.91262,11.26299 11.26301,11.263 11.26301,27.91263 v 39.871 h 39.87098 q 16.64964,0 27.91263,11.26298 11.26299,11.26299 11.26299,27.91264 0,16.64963 -11.26299,27.91263 -11.26299,11.26298 -27.91263,11.26298 h -39.87098 v 39.88079 q 0,16.64965 -11.26301,27.91263 -11.26299,11.26299 -27.91262,11.26299 -16.64964,0 -27.91263,-11.26299 -11.26299,-11.26298 -11.26299,-27.91263 z m -480.88077,41.75142 q -68.15578,0 -116.41036,-48.25456 -48.25457,-48.25458 -48.25457,-116.41037 0,-68.146 48.25457,-116.29283 48.25458,-48.13705 116.41036,-48.13705 68.146,0 116.29284,48.13705 48.13704,48.14683 48.13704,116.29283 0,68.15579 -48.13704,116.41037 -48.14684,48.25456 -116.29284,48.25456 z M 0.3455364,-243.85231 v -28.99976 q 0,-35.49311 18.1872826,-65.23719 18.197076,-29.74409 48.705092,-45.37517 61.662439,-30.59616 125.391369,-46.01177 63.73874,-15.41561 129.08367,-15.41561 66.04031,0 129.66152,15.29808 63.61142,15.29808 124.56868,45.89424 30.51782,15.63108 48.7051,45.29683 18.19708,29.67553 18.19708,65.55059 v 28.99976 q 0,37.00138 -26.06159,63.06296 -26.06159,26.06159 -63.06295,26.06159 H 89.470077 q -37.01117,0 -63.062958,-26.06159 Q 0.3455364,-206.85093 0.3455364,-243.85231 Z M 321.70316,-573.19196 q 31.15442,0 53.22989,-22.18321 22.08524,-22.18318 22.08524,-53.34739 0,-31.15441 -22.12442,-53.22987 -22.12444,-22.08526 -53.18092,-22.08526 -31.1642,0 -53.35719,22.12442 -22.18319,22.12444 -22.18319,53.18091 0,31.16421 22.18319,53.35719 22.19299,22.18321 53.3474,22.18321 z M 89.470077,-243.85231 H 553.72079 v -27.83428 q 0,-10.54803 -5.38665,-19.17646 -5.38665,-8.62844 -14.20117,-13.41765 -51.48656,-25.73838 -104.64787,-38.60758 -53.16133,-12.87898 -107.71338,-12.87898 -54.55205,0 -108.12472,12.9965 -53.58245,12.98673 -104.58911,38.49006 -8.81452,4.78921 -14.201166,13.41765 -5.386647,8.62843 -5.386647,19.17646 z M 321.71295,-648.73236 Z m 0,404.88005 z"
     id="path1"
     style="stroke-width:0.979391" />
</svg>
