<?xml version="1.0" encoding="UTF-8" standalone="no"?>
<svg
   height="24px"
   viewBox="0 -960 960 960"
   width="24px"
   fill="#434343"
   version="1.1"
   id="svg1"
   sodipodi:docname="group_remove_24dp_434343_FILL0_wght500_GRAD0_opsz24.svg"
   inkscape:version="1.4 (86a8ad7, 2024-10-11)"
   xmlns:inkscape="http://www.inkscape.org/namespaces/inkscape"
   xmlns:sodipodi="http://sodipodi.sourceforge.net/DTD/sodipodi-0.dtd"
   xmlns="http://www.w3.org/2000/svg"
   xmlns:svg="http://www.w3.org/2000/svg">
  <defs
     id="defs1" />
  <sodipodi:namedview
     id="namedview1"
     pagecolor="#ffffff"
     bordercolor="#000000"
     borderopacity="0.25"
     inkscape:showpageshadow="2"
     inkscape:pageopacity="0.0"
     inkscape:pagecheckerboard="0"
     inkscape:deskcolor="#d1d1d1"
     inkscape:zoom="256"
     inkscape:cx="-0.91015625"
     inkscape:cy="12.751953"
     inkscape:window-width="1920"
     inkscape:window-height="1001"
     inkscape:window-x="-9"
     inkscape:window-y="-9"
     inkscape:window-maximized="1"
     inkscape:current-layer="svg1" />
  <path
     d="m 502.08678,-486.48703 q 30.51419,-33.22764 46.40311,-75.37934 15.88893,-42.15169 15.88893,-87.01685 0,-44.85535 -16.35913,-87.3597 -16.34933,-42.50434 -46.4031,-74.79158 62.52713,9.70773 101.82822,56.25777 39.30109,46.54025 39.30109,106.01107 0,60.42101 -39.53619,106.72616 -39.5362,46.30516 -101.12293,55.55247 z m 192.55772,331.82581 q 13.35179,-19.7485 19.90523,-42.52394 6.56325,-22.77543 6.56325,-46.61862 v -35.44151 q 0,-38.54681 -15.43832,-71.54914 -15.43831,-33.01213 -42.31822,-58.90266 54.41614,16.45708 97.13599,47.18678 42.72966,30.72969 42.72966,83.26502 v 35.44151 q 0,37.00886 -26.05705,63.0757 -26.06685,26.06686 -63.0855,26.06686 z M 920.77271,-525.82731 H 762.63773 q -16.653,0 -27.91827,-11.26527 -11.26527,-11.26527 -11.26527,-27.91827 0,-16.653 11.26527,-27.91827 11.26527,-11.26527 27.91827,-11.26527 h 158.13498 q 16.653,0 27.91827,11.26527 11.26527,11.26527 11.26527,27.91827 0,16.653 -11.26527,27.91827 -11.26527,11.26527 -27.91827,11.26527 z m -599.22409,41.75987 q -68.16956,0 -116.43389,-48.26433 -48.26432,-48.26433 -48.26432,-116.43389 0,-68.15977 48.26432,-116.31635 48.26433,-48.14677 116.43389,-48.14677 68.15977,0 116.31635,48.14677 48.14677,48.15658 48.14677,116.31635 0,68.16956 -48.14677,116.43389 -48.15658,48.26433 -116.31635,48.26433 z M 0.11625,-243.80378 v -29.00562 q 0,-35.50028 18.190959,-65.25038 18.200754,-29.75011 48.714936,-45.38434 61.674885,-30.60234 125.416715,-46.02106 63.75162,-15.41873 129.10976,-15.41873 66.05366,0 129.68773,15.30117 63.62427,15.30118 124.59386,45.90352 30.52398,15.63423 48.71494,45.30597 18.20075,29.68153 18.20075,65.56385 v 29.00562 q 0,37.00886 -26.06685,63.0757 -26.06685,26.06686 -63.0757,26.06686 H 89.258804 q -37.01865,0 -63.075704,-26.06686 -26.06685,-26.06684 -26.06685,-63.0757 z M 321.53883,-573.21 q 31.16071,0 53.24064,-22.18768 22.08971,-22.18769 22.08971,-53.35818 0,-31.16072 -22.1289,-53.24065 -22.1289,-22.08971 -53.19166,-22.08971 -31.1705,0 -53.36798,22.1289 -22.18768,22.1289 -22.18768,53.19166 0,31.1705 22.18768,53.36798 22.19748,22.18768 53.35819,22.18768 z M 89.258804,-243.80378 H 553.60335 v -27.8399 q 0,-10.55017 -5.38774,-19.18034 -5.38774,-8.63018 -14.20404,-13.42037 -51.49696,-25.74358 -104.66903,-38.61538 -53.17206,-12.88159 -107.73514,-12.88159 -54.56308,0 -108.14657,12.99915 -53.59329,12.98933 -104.61026,38.49782 -8.81629,4.79019 -14.204029,13.42037 -5.387737,8.63017 -5.387737,19.18034 z M 321.54862,-648.76566 Z m 0,404.96188 z"
     id="path1"
     style="stroke-width:0.979589" />
</svg>
