<?xml version="1.0" encoding="UTF-8" standalone="no"?>
<svg
   height="24px"
   viewBox="0 -960 960 960"
   width="24px"
   fill="#434343"
   version="1.1"
   id="svg1"
   sodipodi:docname="group_remove_24dp_434343_FILL1_wght500_GRAD0_opsz24.svg"
   inkscape:version="1.4 (86a8ad7, 2024-10-11)"
   xmlns:inkscape="http://www.inkscape.org/namespaces/inkscape"
   xmlns:sodipodi="http://sodipodi.sourceforge.net/DTD/sodipodi-0.dtd"
   xmlns="http://www.w3.org/2000/svg"
   xmlns:svg="http://www.w3.org/2000/svg">
  <defs
     id="defs1" />
  <sodipodi:namedview
     id="namedview1"
     pagecolor="#ffffff"
     bordercolor="#000000"
     borderopacity="0.25"
     inkscape:showpageshadow="2"
     inkscape:pageopacity="0.0"
     inkscape:pagecheckerboard="0"
     inkscape:deskcolor="#d1d1d1"
     inkscape:zoom="32"
     inkscape:cx="0.78125"
     inkscape:cy="12.015625"
     inkscape:window-width="1920"
     inkscape:window-height="1001"
     inkscape:window-x="-9"
     inkscape:window-y="-9"
     inkscape:window-maximized="1"
     inkscape:current-layer="svg1" />
  <path
     d="m 502.09273,-486.48706 q 30.51455,-33.22804 46.40367,-75.38022 15.88911,-42.15221 15.88911,-86.90033 0,-44.97345 -16.35932,-87.4783 -16.34953,-42.50485 -46.40366,-74.79247 62.52788,9.70784 101.82942,56.25843 39.30156,46.5408 39.30156,106.01234 0,60.42174 -39.53665,106.72743 -39.53667,46.30568 -101.12413,55.55312 z m 192.56,331.82973 q 13.35195,-19.74873 19.90547,-42.52443 6.56333,-22.77571 6.56333,-46.61917 v -35.44194 q 0,-38.54725 -15.4385,-71.54998 -15.4385,-33.01253 -42.31873,-58.90336 54.4168,16.45728 97.13714,47.18735 42.73017,30.73005 42.73017,83.26599 v 35.44194 q 0,37.0093 -26.05737,63.07645 -26.06715,26.06715 -63.08625,26.06715 z M 920.78362,-525.82781 H 762.64678 q -16.6532,0 -27.91861,-11.26539 -11.2654,-11.26541 -11.2654,-27.91861 0,-16.6532 11.2654,-27.9186 11.26541,-11.2654 27.91861,-11.2654 h 158.13684 q 16.6532,0 27.9186,11.2654 11.2654,11.2654 11.2654,27.9186 0,16.6532 -11.2654,27.91861 -11.2654,11.26539 -27.9186,11.26539 z m -599.23118,41.76036 q -68.17037,0 -116.43528,-48.2649 -48.26489,-48.26489 -48.26489,-116.43526 0,-68.16058 48.26489,-116.31773 48.26491,-48.14733 116.43528,-48.14733 68.16057,0 116.31772,48.14733 48.14734,48.15715 48.14734,116.31773 0,68.17037 -48.14734,116.43526 -48.15715,48.2649 -116.31772,48.2649 z M 0.11625,-243.80093 v -29.00596 q 0,-35.42234 18.191174,-65.21199 18.20097,-29.78962 48.715513,-45.42405 61.675623,-30.60271 125.418203,-46.02161 63.75237,-15.4189 129.1113,-15.4189 66.05444,0 129.68927,15.30134 63.62501,15.30137 124.59532,45.90407 30.52434,15.63441 48.71552,45.30651 18.20096,29.68188 18.20096,65.56463 v 29.00596 q 0,37.0093 -26.06715,63.07645 -26.06716,26.06715 -63.07646,26.06715 H 89.25986 q -37.019088,0 -63.076452,-26.06715 Q 0.11625,-206.79163 0.11625,-243.80093 Z"
     id="path1"
     style="stroke-width:0.979599" />
</svg>
