<?xml version="1.0" encoding="UTF-8" standalone="no"?>
<svg
   class="icon_d90b3d"
   aria-hidden="true"
   role="img"
   width="24"
   height="24"
   fill="none"
   viewBox="0 0 24 24"
   version="1.1"
   id="svg2"
   sodipodi:docname="ID.svg"
   inkscape:version="1.3.2 (091e20e, 2023-11-25, custom)"
   xmlns:inkscape="http://www.inkscape.org/namespaces/inkscape"
   xmlns:sodipodi="http://sodipodi.sourceforge.net/DTD/sodipodi-0.dtd"
   xmlns="http://www.w3.org/2000/svg"
   xmlns:svg="http://www.w3.org/2000/svg">
  <defs
     id="defs2" />
  <sodipodi:namedview
     id="namedview2"
     pagecolor="#ffffff"
     bordercolor="#000000"
     borderopacity="0.25"
     inkscape:showpageshadow="2"
     inkscape:pageopacity="0.0"
     inkscape:pagecheckerboard="0"
     inkscape:deskcolor="#d1d1d1"
     inkscape:zoom="15.083333"
     inkscape:cx="12"
     inkscape:cy="12"
     inkscape:window-width="1920"
     inkscape:window-height="969"
     inkscape:window-x="-9"
     inkscape:window-y="23"
     inkscape:window-maximized="1"
     inkscape:current-layer="svg2" />
  <path
     fill="currentColor"
     d="M15.3 14.48c-.46.45-1.08.67-1.86.67h-1.39V9.2h1.39c.78 0 1.4.22 1.86.67.46.45.68 1.22.68 2.31 0 1.1-.22 1.86-.68 2.31Z"
     class=""
     id="path1"
     style="fill:#e8eaed;fill-opacity:1" />
  <path
     fill="currentColor"
     fill-rule="evenodd"
     d="M5 2a3 3 0 0 0-3 3v14a3 3 0 0 0 3 3h14a3 3 0 0 0 3-3V5a3 3 0 0 0-3-3H5Zm1 15h2.04V7.34H6V17Zm4-9.66V17h3.44c1.46 0 2.6-.42 3.38-1.25.8-.83 1.2-2.02 1.2-3.58s-.4-2.75-1.2-3.58c-.79-.83-1.92-1.25-3.38-1.25H10Z"
     clip-rule="evenodd"
     class=""
     id="path2"
     style="fill:#e8eaed;fill-opacity:1" />
</svg>
