<svg xmlns="http://www.w3.org/2000/svg" height="24px" viewBox="0 -960 960 960" width="24px" fill="#434343"><path d="M202.87-111.87q-37.78 0-64.39-26.61t-26.61-64.39v-554.26q0-37.78 26.61-64.39t64.39-26.61h289.39q22.33 0 34.06 19.65 11.72 19.65 3.01 41.81-4.76 15.52-7.41 31.04-2.64 15.52-2.64 31.8 0 84.89 59.7 144.72 59.69 59.83 144.61 59.83 16.28 0 31.92-2.64 15.64-2.65 31.16-7.41 22.63-7.24 42.05 3.84 19.41 11.08 19.41 33.23v289.39q0 37.78-26.61 64.39t-64.39 26.61H202.87ZM240-280h480L570-480 450-320l-90-120-120 160Zm483.82-319.28q-17.71 0-29.81-12.05-12.1-12.05-12.1-29.87v-40.71h-40.95q-17.71 0-29.7-12.05-11.98-12.05-11.98-29.87 0-17.71 12.05-29.69t29.87-11.98h40.71v-40.96q0-17.71 12.05-29.69t29.87-11.98q17.71 0 29.69 11.98t11.98 29.69v40.96h40.96q17.71 0 29.69 11.98t11.98 29.7q0 17.71-11.98 29.81-11.98 12.1-29.69 12.1H765.5v40.95q0 17.71-11.98 29.7-11.98 11.98-29.7 11.98Z"/></svg>