<svg xmlns="http://www.w3.org/2000/svg" height="24px" viewBox="0 -960 960 960" width="24px" fill="#434343"><path d="M237.37-111.87q-19.15 0-32.33-13.17-13.17-13.18-13.17-32.33v-74.5h-74.5q-19.15 0-32.33-13.17-13.17-13.18-13.17-32.33t13.17-32.33q13.18-13.17 32.33-13.17h74.5v-74.5q0-19.15 13.17-32.33 13.18-13.17 32.33-13.17t32.33 13.17q13.17 13.18 13.17 32.33v74.5h74.5q19.15 0 32.33 13.17 13.17 13.18 13.17 32.33t-13.17 32.33q-13.18 13.17-32.33 13.17h-74.5v74.5q0 19.15-13.17 32.33-13.18 13.17-32.33 13.17Zm211.11-40q17.19-28.2 25.79-60.13 8.6-31.93 8.6-65.37 0-102.15-71.67-173.83-71.68-71.67-173.83-71.67-46.44 0-88.99 16.72t-76.51 47.39v-258.37q0-37.78 26.61-64.39t64.39-26.61h434.26q21.63 0 41.02 9.7 19.39 9.69 32.07 26.84l177.37 237.13q18.15 24.11 18.15 54.46t-18.15 54.46L670.22-188.41q-12.68 17.15-32.07 26.84-19.39 9.7-41.02 9.7H448.48Z"/></svg>