<svg xmlns="http://www.w3.org/2000/svg" height="24px" viewBox="0 -960 960 960" width="24px" fill="#434343"><path d="m766.57-318.43-489.7-489.7h320.26q21.63 0 41.02 9.7 19.39 9.69 32.07 26.84l177.13 237.13Q865.5-510.35 865.5-480t-18.15 54.46l-80.78 107.11Zm-603.7 166.56q-37.78 0-64.39-26.61t-26.61-64.39v-474.26q0-13.15 3.46-24.8 3.45-11.66 9.89-21.57L45.72-803Q34-814.72 34-832.2q0-17.47 11.72-29.19 11.71-11.72 29.31-11.72 17.6 0 29.32 11.72l750.82 750.82q11.72 11.72 12.1 28.82.38 17.1-12.1 29.58-11.71 11.71-29.19 11.71t-29.2-11.71L666.26-182.46q-11.19 14.68-27.11 22.63-15.91 7.96-34.82 7.96H162.87Z"/></svg>