<svg width="24" height="24" fill="#e8eaed" version="1.1" viewBox="0 -960 960 960" xml:space="preserve" xmlns="http://www.w3.org/2000/svg"><circle cx="402.46" cy="-223.56" r="45.625" fill-opacity=".98235" fill-rule="evenodd" stroke-width=".35909" style="paint-order:stroke fill markers"/><circle cx="766.17" cy="-535.23" r="46.328" fill-rule="evenodd" stroke-width=".36462" style="paint-order:stroke fill markers"/><path d="m190-782.97c-25.453 0-47.003 9.0706-64.609 27.344-17.606 18.266-26.406 39.816-26.406 64.609v422.03c0 24.52 8.7998 45.833 26.406 63.906 17.607 18.073 39.156 27.109 64.609 27.109h215c0.0478-0.10118 0.0683-0.15348 0.23438-0.46875 0.29953-0.55836 0.65344-1.0743 0.9375-1.6406 0.15495-0.30912 0.29483-0.49974 0.46874-0.625 0.0328-24.135-0.24364-48.248-1.7969-72.344-0.29393-4.6906-0.60901-9.3752-0.9375-14.062-0.0317-0.0733-0.0447-0.16249-0.0781-0.23437-0.23412-0.50317-0.53224-0.95656-0.85937-1.4062-0.0505-0.0704-0.104-0.16415-0.15625-0.23438h-212.81v-422.03h410.78l127.97 183.36c0.48054 0.33892 0.90002 0.73564 1.3281 1.0938 1.4924 1.2952 2.9203 2.6578 4.4531 3.9062 0.74434 0.60624 1.4991 1.1533 2.2656 1.7188 0.13473 0.0708 0.25544 0.16404 0.39062 0.23438 1.1472 0.58219 2.3326 1.1267 3.5156 1.6406 22.157-10.724 44.389-21.27 66.641-31.797 1.4489-0.66551 2.9207-1.2937 4.375-1.9531-0.29171-1.505-0.62006-2.9742-0.9375-4.4531-0.38897-1.7518-0.63535-3.0216-1.0938-4.7656-0.86082-3.275-1.9199-6.4694-2.9688-9.6875-1.319-3.9412-2.6911-7.9308-4.2188-11.797-0.23306-0.56211-0.43079-1.0015-0.625-1.4844l-115.86-162.97c-11.206-16.666-25.294-30-42.188-40-16.886-9.9999-35.164-15-54.844-15z"/><g transform="matrix(.97648 0 0 .97648 83.886 139.47)" fill="#e8eaed"><path d="m714.16-567.76c-10.733 0-20.725 1.8898-30.078 5.7031-9.3467 3.8133-17.689 9.6152-24.922 17.422l-209.69 209.84c-4.8933 4.22-8.875 9.7673-11.875 16.641s-4.4531 13.256-4.4531 19.062v72.656c0 15.667 5.2117 28.491 15.625 38.438 10.413 9.94 22.923 14.922 37.656 14.922h72.656c6.4733 1e-5 12.991-1.3958 19.531-4.0625 6.5467-2.6667 12.301-6.0925 17.188-10.312l209.3-209.92c7.3933-8.0067 12.995-16.748 16.875-26.328 3.8733-9.58 5.7812-19.589 5.7812-29.922 0-9.6667-1.845-19.182-5.625-28.516-3.7733-9.3333-9.2148-17.503-16.328-24.609l-37.031-38.047c-7.7067-7.1133-16.301-12.684-25.781-16.797-9.48-4.1067-19.101-6.1719-28.828-6.1719zm-84.688 161.33 36.953 37.031-117.66 118.67h-37.969v-38.047z"/></g></svg>