<svg xmlns="http://www.w3.org/2000/svg" height="24px" viewBox="0 -960 960 960" width="24px" fill="#e8eaed"><path d="M748.33-216.67H645q-22.5 0-37.92-14.94-15.41-14.93-15.41-37.77 0-21.84 15.41-37.89 15.42-16.06 37.92-16.06h103.33l-15-15.67q-15-14.67-14.33-35.2.67-20.53 17-37.13 14.67-15.34 36.5-15.34t38.83 15.34l103 104q15.34 15.63 15.34 38.31 0 22.69-15.34 37.35l-104 104q-17 16-38.66 15.34-21.67-.67-39.29-18.61-14.71-14.39-14.71-33.97 0-19.57 15-34.42l15.66-17.34ZM400.06-576q30.62 0 52.45-21.69 21.82-21.69 21.82-52.04 0-30.62-21.81-52.44Q430.71-724 400.19-724T348-702.19q-21.67 21.81-21.67 52.33 0 30.53 21.69 52.19Q369.71-576 400.06-576Zm-.06 77.67Zm-349.33-57.1Q50.67-717 156.02-814 261.38-911 400-911q74.67 0 135.76 26.14 61.09 26.14 106.33 71.33 45.24 45.2 71.91 107.2 26.67 62 33.33 132.66 1.67 21-13.17 36.84Q719.32-521 696.28-521q-22.03 0-36.99-15.33-14.96-15.34-18.96-37.34-12.33-97-78.5-163.83-66.16-66.83-161.83-66.83-101.61 0-172.47 70.15t-70.86 178.51q0 82.96 60.83 168.15 60.83 85.19 182.5 196.85 10.58-9.22 21.82-18.61 11.24-9.39 21.18-18.39 15-15 37.33-14.33 22.34.67 36.67 16.67 14.33 17 12.83 39.2-1.5 22.2-16.16 38.46-12.67 10.34-27.5 24.17-14.84 13.83-28.5 25.17Q444.33-87.67 429.33-83t-29.5 4.67q-14.5 0-29.33-4.67-14.83-4.67-26.83-15.33-48.34-41.67-100.75-92.81-52.41-51.13-95.33-109.16-42.92-58.03-69.92-121.9-27-63.87-27-133.23ZM400-374.67q35.67 0 67.5-11.33t58.89-35.52q5.54-6.02 10.24-14.29t4.7-17.9q0-13.29-7.66-25.62-7.67-12.34-20.34-19-26.82-10.98-55.3-17.66-28.49-6.68-58.06-6.68-29.58 0-58.06 6.85-28.49 6.84-55.24 17.49-12.34 6.66-19.34 18.3t-7 24.14q0 10.3 3 19.93 3 9.63 10.94 14.44 25.1 24.46 57.58 35.66 32.48 11.19 68.15 11.19Z"/></svg>