<?xml version="1.0" encoding="UTF-8" standalone="no"?>
<svg
   height="24"
   viewBox="0 -960 960 960"
   width="24"
   fill="#e8eaed"
   version="1.1"
   id="svg1"
   sodipodi:docname="notifications_at.svg"
   xml:space="preserve"
   inkscape:version="1.3.2 (091e20e, 2023-11-25, custom)"
   xmlns:inkscape="http://www.inkscape.org/namespaces/inkscape"
   xmlns:sodipodi="http://sodipodi.sourceforge.net/DTD/sodipodi-0.dtd"
   xmlns="http://www.w3.org/2000/svg"
   xmlns:svg="http://www.w3.org/2000/svg"><defs
     id="defs1" /><sodipodi:namedview
     id="namedview1"
     pagecolor="#ffffff"
     bordercolor="#000000"
     borderopacity="0.25"
     inkscape:showpageshadow="2"
     inkscape:pageopacity="0.0"
     inkscape:pagecheckerboard="0"
     inkscape:deskcolor="#d1d1d1"
     inkscape:zoom="22.627417"
     inkscape:cx="11.402097"
     inkscape:cy="5.9883105"
     inkscape:window-width="1920"
     inkscape:window-height="969"
     inkscape:window-x="-9"
     inkscape:window-y="23"
     inkscape:window-maximized="1"
     inkscape:current-layer="svg1" /><path
     d="m 392.96875,-138.98438 c 0,24.19998 8.47252,44.876064 25.3125,62.10938 16.83998,17.233316 37.56086,25.859375 62.1875,25.859375 23.75998,0 44.26252,-8.468767 61.5625,-25.46875 17.29998,-16.999983 25.9375,-37.833355 25.9375,-62.500005 z"
     id="path4" /><path
     d="m 479.84375,-902.96875 c -20.79998,0 -38.40876,7.51627 -52.96875,22.65625 C 412.31501,-865.17252 405,-847.4179 405,-827.03125 V -810 c -60.73994,14.17332 -108.41358,46.18047 -143.04688,96.09375 C 227.32649,-663.99297 210,-608.63536 210,-547.96875 V -270 h -25 c -13.99999,0 -25.1823,4.30209 -33.51562,12.96875 -8.33333,8.66666 -12.5,19.59918 -12.5,32.8125 0,13.20665 4.16667,24.04001 12.5,32.5 8.33332,8.45332 19.51563,12.73437 33.51562,12.73437 h 591.01562 c 12.61333,0 23.60876,-4.28105 32.96876,-12.73437 9.35999,-8.45999 13.98437,-19.42876 13.98437,-32.96875 0,-12.61332 -4.62438,-23.30938 -13.98437,-32.10938 C 799.62438,-265.59687 788.62895,-270 776.01562,-270 h -23.98437 v -130 c 0,-14.33332 -4.90084,-25.44792 -14.6875,-33.28125 C 727.55709,-441.11458 716.91061,-445 705.39062,-445 c -11.51332,0 -21.96813,3.88542 -31.32812,11.71875 C 664.69584,-425.44792 660,-414.33332 660,-400 v 130 H 301.01562 v -277.96875 c 0,-48.62662 16.91941,-90.44879 50.85938,-125.46875 33.93997,-35.01996 75.35401,-53.19792 124.14062,-54.53125 7.29333,0 12.62709,0.77042 16.09376,2.34375 3.45999,1.56667 8.12625,2.73375 13.90624,3.59375 10.66666,0 20.77251,-2.57917 30.3125,-7.8125 9.54666,-5.23333 16.69772,-12.59793 21.48438,-22.03125 2.12666,-6.76666 3.33854,-14.10938 3.67188,-22.10938 0.33333,-7.99999 -0.15105,-15.01563 -1.48438,-21.01562 0.0533,1.33333 -0.45771,1.68229 -1.48438,1.01562 -1.02666,-0.66666 -2.18229,-0.89166 -3.51562,-0.625 v -32.8125 c 0,-20.26664 -7.31314,-37.92209 -21.95312,-52.96874 -14.63999,-15.05332 -32.40315,-22.57813 -53.20313,-22.57813 z"
     id="path1" /><g
     style="fill:#e8eaed"
     id="g1"
     transform="matrix(0.36067697,0,0,0.36067697,528.31153,-456.76451)"><path
       d="m 479,-34 q -91.16,0 -172.74,-35.02 -81.58,-35.02 -141.9,-95.34 Q 104.04,-224.68 69.02,-306.1 34,-387.53 34,-480.08 q 0,-92.56 35.02,-173.9 35.02,-81.34 95.34,-141.66 60.32,-60.32 141.74,-95.34 81.43,-35.02 173.98,-35.02 92.56,0 173.9,35.02 81.34,35.02 141.66,95.34 60.32,60.32 95.34,141.9 Q 926,-572.16 926,-481 v 64 q 0,67.65 -49.84,115.32 Q 826.32,-254 756,-254 716.75,-254 682.88,-269.5 649,-285 626,-315 599,-283 560.74,-268.5 522.48,-254 480,-254 386.38,-254 320.19,-320.19 254,-386.38 254,-480 254,-573.62 320.19,-639.81 386.38,-706 480,-706 q 93.62,0 159.81,66.19 Q 706,-573.62 706,-480 v 55 q 0,21.48 15,36.24 15,14.76 35.98,14.76 19.97,0 34,-14.76 Q 805,-403.52 805,-425 v -56 q 0,-135 -95,-229.5 -95,-94.5 -230,-94.5 -135,0 -230,95 -95,95 -95,230 0,135 94.5,230 94.5,95 229.5,95 h 143 q 25.38,0 42.69,17.31 Q 682,-120.38 682,-95 682,-69 664.69,-51.5 647.38,-34 622,-34 Z m 1.29,-340 q 43.71,0 74.71,-31.29 31,-31.3 31,-75 0,-43.71 -31.29,-74.71 -31.3,-31 -75,-31 -43.71,0 -74.71,31.29 -31,31.3 -31,75 0,43.71 31.29,74.71 31.3,31 75,31 z"
       id="path1-0" /></g></svg>
