<?xml version="1.0" encoding="UTF-8" standalone="no"?>
<svg
   height="24px"
   viewBox="0 -960 960 960"
   width="24px"
   fill="#e8eaed"
   version="1.1"
   id="svg1"
   sodipodi:docname="wifi_notification_24dp_E8EAED_FILL0_wght700_GRAD200_opsz40.svg"
   xml:space="preserve"
   inkscape:version="1.3.2 (091e20e, 2023-11-25, custom)"
   xmlns:inkscape="http://www.inkscape.org/namespaces/inkscape"
   xmlns:sodipodi="http://sodipodi.sourceforge.net/DTD/sodipodi-0.dtd"
   xmlns="http://www.w3.org/2000/svg"
   xmlns:svg="http://www.w3.org/2000/svg"><defs
     id="defs1" /><sodipodi:namedview
     id="namedview1"
     pagecolor="#ffffff"
     bordercolor="#000000"
     borderopacity="0.25"
     inkscape:showpageshadow="2"
     inkscape:pageopacity="0.0"
     inkscape:pagecheckerboard="0"
     inkscape:deskcolor="#d1d1d1"
     inkscape:zoom="10.665527"
     inkscape:cx="7.6883212"
     inkscape:cy="16.829923"
     inkscape:window-width="1920"
     inkscape:window-height="969"
     inkscape:window-x="-9"
     inkscape:window-y="23"
     inkscape:window-maximized="1"
     inkscape:current-layer="svg1" /><path
     d="m 390,-130.70312 c 0,25.14664 8.66231,46.572096 26.01562,64.218745 C 433.36227,-48.831059 454.90503,-40 480.625,-40 c 24.85331,0 46.12814,-8.774809 63.82812,-26.328125 17.69332,-17.559982 26.5625,-39.041695 26.5625,-64.374995 z"
     id="path6" /><path
     d="m 479.92188,-910.70312 c -21.97998,0 -40.66044,7.95001 -56.09376,23.75 -15.43331,15.79331 -23.125,34.51002 -23.125,56.25 v 17.03124 c -62.2266,15.11332 -111.16545,48.18068 -146.71874,99.14063 -35.5533,50.95328 -53.28125,107.7936 -53.28126,170.54687 v 267.34376 h -16.71874 c -15.66666,0 -28.49085,5.08584 -38.4375,15.3125 -9.94,10.21998 -14.84376,22.81438 -14.84376,37.73437 0,15.36665 4.90376,28.00209 14.84376,37.96875 9.94665,9.96666 22.77084,14.92188 38.4375,14.92188 h 593.04687 c 14.23332,0 26.77626,-4.87897 37.65625,-14.76563 10.88666,-9.88666 16.32812,-22.73752 16.32812,-38.4375 10e-6,-14.32665 -5.44146,-26.67605 -16.32812,-37.10937 -10.87999,-10.43333 -23.42293,-15.625 -37.65625,-15.625 H 306.64062 v -267.34376 c 0,-47.83995 16.87358,-88.85357 50.54688,-123.04687 33.6733,-34.18663 74.48671,-51.32813 122.5,-51.32813 9.66666,0 19.56939,0.88292 29.60938,2.65626 10.03998,1.77999 18.40959,4.40104 25.15624,7.73437 15.03332,3.78 27.22918,1.32291 36.5625,-7.34375 9.33333,-8.66666 14.6823,-20.24085 16.01563,-34.6875 0.88667,0.0533 1.49021,-0.15354 1.79687,-0.54688 0.30667,-0.39333 -0.20437,-0.62791 -1.48437,-0.78124 -4.44,-2.22667 -8.91271,-4.1498 -13.35937,-5.70313 -4.44667,-1.55333 -9.35418,-2.77854 -14.6875,-3.67187 v -70 c -10e-6,-21.73998 -7.72981,-40.45669 -23.20313,-56.25 -15.46665,-15.79999 -34.18523,-23.75 -56.17187,-23.75 z"
     id="path1" /><g
     style="fill:#e8eaed"
     id="g6"
     transform="matrix(0.4653032,0,0,0.4653032,476.96422,-283.41291)"><path
       d="m 492.78919,-36.764034 q -93.98477,0 -178.09269,-36.105163 Q 230.58859,-108.97436 168.39946,-171.16349 106.21032,-233.35263 70.105162,-317.29558 34,-401.24885 34,-496.66669 q 0,-95.42815 36.105162,-179.28863 36.105158,-83.86047 98.294298,-146.04961 62.18913,-62.18913 146.13208,-98.29429 83.95327,-36.10516 179.37111,-36.10516 95.42815,0 179.28863,36.10516 83.86048,36.10516 146.04961,98.29429 62.18913,62.18914 98.29429,146.29705 36.10517,84.10791 36.10517,178.09268 v 65.98317 q 0,69.74626 -51.38439,118.89341 -51.38439,49.15746 -123.88339,49.15746 -40.46624,0 -75.38577,-15.9803 -34.92984,-15.9803 -58.64253,-46.90991 -27.83665,32.99159 -67.28221,47.9409 -39.44556,14.94931 -83.24189,14.94931 -96.52099,0 -164.76202,-68.24103 -68.24102,-68.24102 -68.24102,-164.76202 0,-96.521 68.24102,-164.76202 68.24103,-68.24103 164.76202,-68.24103 96.521,0 164.76202,68.24103 68.24103,68.24102 68.24103,164.76202 v 56.70428 q 0,22.1456 15.4648,37.36297 15.46481,15.21737 37.09491,15.21737 20.58881,0 35.05356,-15.21737 14.45444,-15.21737 14.45444,-37.36297 v -57.73527 q 0,-139.18323 -97.94376,-236.6115 -97.94376,-97.42826 -237.127,-97.42826 -139.18323,0 -237.12699,97.94376 -97.94376,97.94375 -97.94376,237.12699 0,139.18324 97.42826,237.12699 97.42827,97.94376 236.61151,97.94376 h 147.43113 q 26.16645,0 44.01283,17.84639 17.84638,17.84638 17.84638,44.012833 0,26.80566 -17.84638,44.847931 -17.84638,18.042272 -44.01283,18.042272 z m 1.32997,-350.535556 q 45.06444,0 77.02503,-32.25959 31.9606,-32.26989 31.9606,-77.32402 0,-45.06444 -32.25958,-77.02503 -32.26989,-31.9606 -77.32402,-31.9606 -45.06444,0 -77.02504,32.25959 -31.96059,32.26989 -31.96059,77.32402 0,45.06444 32.25958,77.02503 32.26989,31.9606 77.32402,31.9606 z"
       id="path1-7"
       style="stroke-width:1.03099" /></g></svg>
