<svg xmlns="http://www.w3.org/2000/svg" height="24px" viewBox="0 -960 960 960" width="24px" fill="#434343"><path d="M680-80q-83 0-141.5-58.5T480-280q0-83 58.5-141.5T680-480q83 0 141.5 58.5T880-280q0 83-58.5 141.5T680-80ZM151.87-516v-186.85q0-28.58 16.41-51.45 16.42-22.87 42.76-33.07l237.13-88.8q15.68-5.72 31.83-5.72t31.83 5.72l237.13 88.8q26.34 10.2 42.76 33.07 16.41 22.87 16.41 51.45v116.26q0 19.87-17.27 31.57-17.27 11.69-36.9 5.26-18.24-5-36.48-7.62T680-560q-116 0-198 82t-82 198q0 31.76 7.5 62.38t22.93 64.01q9.72 20.91-6.21 37.59-15.94 16.67-37.09 7.19-42.24-21.52-77.6-53.52-35.36-32-64.27-72.39-44.19-59.96-68.79-132.01-24.6-72.05-24.6-149.25Zm528.61 236q25 0 42.5-17.5t17.5-42.5q0-25-17.5-42.5t-42.5-17.5q-25 0-42.5 17.5t-17.5 42.5q0 25 17.5 42.5t42.5 17.5Zm0 120q24.28 0 45.68-8.9 21.41-8.9 38.41-25.95 5.95-6.48 4.71-15.17-1.24-8.7-10.19-12.94-18.52-8.76-38.43-12.9-19.9-4.14-40.18-4.14-20.52 0-40.43 4.26-19.9 4.26-38.42 12.78-8.96 4.24-10.2 12.94-1.23 8.69 4.72 15.17 17 17.05 38.52 25.95 21.53 8.9 45.81 8.9Z"/></svg>