<svg xmlns="http://www.w3.org/2000/svg" height="24px" viewBox="0 -960 960 960" width="24px" fill="#e8eaed"><path d="M666.33-786v297l69.34 63q6.33 6.33 10.66 16.9 4.34 10.56 4.34 19.54v32.67q0 22.99-15.25 37.94Q720.18-304 697.33-304h-164v230.33q0 22.5-15.63 37.92-15.63 15.42-37.82 15.42-21.9 0-37.22-15.42-15.33-15.42-15.33-37.92V-304h-164q-23.5 0-38.41-15.01-14.92-15-14.92-38v-32.67q0-8.99 4-19.49 4-10.5 10.33-16.83l66-63v-297H277q-15.83-4.67-24.75-18.21-8.92-13.54-8.92-31.91 0-21.9 15.42-37.22 15.42-15.33 37.92-15.33H660q21.85 0 37.59 15.45 15.74 15.44 15.74 37.34 0 18.36-9.25 31.79-9.25 13.42-24.41 18.09h-13.34ZM355.67-410.67h244.66l-40.66-37.32v-334.68H396.33v335l-40.66 37Zm122.33 0Z"/></svg>