<?xml version="1.0" encoding="UTF-8" standalone="no"?>
<svg
   class="optionIcon_ec5137"
   aria-hidden="true"
   role="img"
   width="24"
   height="24"
   fill="none"
   viewBox="0 0 24 24"
   version="1.1"
   id="svg1"
   sodipodi:docname="poll.svg"
   inkscape:version="1.3.2 (091e20e, 2023-11-25, custom)"
   xmlns:inkscape="http://www.inkscape.org/namespaces/inkscape"
   xmlns:sodipodi="http://sodipodi.sourceforge.net/DTD/sodipodi-0.dtd"
   xmlns="http://www.w3.org/2000/svg"
   xmlns:svg="http://www.w3.org/2000/svg">
  <defs
     id="defs1" />
  <sodipodi:namedview
     id="namedview1"
     pagecolor="#ffffff"
     bordercolor="#000000"
     borderopacity="0.25"
     inkscape:showpageshadow="2"
     inkscape:pageopacity="0.0"
     inkscape:pagecheckerboard="0"
     inkscape:deskcolor="#d1d1d1"
     inkscape:zoom="15.083333"
     inkscape:cx="12"
     inkscape:cy="12"
     inkscape:window-width="1920"
     inkscape:window-height="969"
     inkscape:window-x="-9"
     inkscape:window-y="23"
     inkscape:window-maximized="1"
     inkscape:current-layer="svg1" />
  <path
     fill="currentColor"
     d="M2 5c0-1.1.9-2 2-2h16a2 2 0 1 1 0 4H4a2 2 0 0 1-2-2ZM2 12c0-1.1.9-2 2-2h6a2 2 0 1 1 0 4H4a2 2 0 0 1-2-2ZM4 17a2 2 0 1 0 0 4h12a2 2 0 1 0 0-4H4Z"
     class=""
     id="path1"
     style="fill:#e8eaed;fill-opacity:1" />
</svg>
