<svg xmlns="http://www.w3.org/2000/svg" height="24px" viewBox="0 -960 960 960" width="24px" fill="#e8eaed"><path d="M582.06 12q-27.22 0-46.14-19.42Q517-26.83 517-54.57v-307.89q0-25.04 19.06-44.79Q555.13-427 582.36-427h308.02q26.12 0 45.87 19.92Q956-387.15 956-361.55v307.13Q956-27 936.36-7.5 916.73 12 889.96 12h-307.9ZM437-258.15V-59h-21.45Q398-59 381.5-69 365-79 363-98l-15-94q-14.42-4.11-31.05-13.87Q300.32-215.64 289-225l-84 39q-16.88 8-35.25 2.62Q151.37-188.77 143-206L74-330q-10-14-6.5-32T87-391l78-59.3q-1-4.51-1-13.99v-30.08q0-9.59 1-15.63l-78-57q-16-12-20-29.5t7-33.5l69.38-125.19Q152-769 169.33-775.5q17.34-6.5 34.67.5l87 40q9.89-7.45 26.94-17.23Q335-762 348-766l15-94.57q1.91-19.85 15.11-30.64Q391.32-902 410-902h140q18.75 0 32.01 10.71Q595.26-880.58 597-861l15 94q15.22 3.89 31.61 13.95Q660-743 671-735l84-40q18.05-7 35.6-.5Q808.16-769 817-755l79 138q3 7 4 13.5t-2 12.5l-89 67q-15 11-31 9.5T749.5-529Q735-544 737-565t22-31l29-22-32-59-105.82 47q-23.18-28-53.71-47.29-30.52-19.3-67.14-22.71L516-810h-72.1L431-700q-34.89 7-66.45 25Q333-657 309-631l-103.72-46L173-618l92 66q-5 17-7.5 34.78-2.5 17.77-2.5 37.77 0 19.45 2.5 37.45 2.5 18 7.5 33l-92 67 32 59 103.78-47q27.22 29 58.72 47.09 31.5 18.08 69.5 24.76ZM479-481Zm0-126q-54.56 0-90.78 37.08T352-480q0 21.97 6.5 41.83t21.11 37.35Q390-386 406.43-384.5T436-393q11.26-9.3 12.63-24.55 1.37-15.25-8.39-25.85Q432-449 428.5-459t-3.5-22.39q1-21.53 16.33-37.07Q456.67-534 479.38-534q9.81 0 18.22 4 8.4 4 16.4 9 11 5 23.5-1t18.5-18q7-12 3.67-25.66-3.34-13.65-15.67-21.38Q531-595 514.25-601q-16.75-6-35.25-6Zm0 126Zm257.72 318q-35.68 0-66.57 11.56-30.89 11.55-58.94 34.17Q594-103.11 585.5-91.15 577-79.18 577-66q0 9.06 4.26 13.53Q585.53-48 595-48h288.49q4.51 0 8.51-4.69 4-4.68 4-12.94 0-13.37-8.45-25.47-8.44-12.1-25.78-25.85Q834-140 801.83-151.5 769.67-163 736.72-163Zm.63-45q25.15 0 44.9-19.21Q802-246.41 802-273.85q0-26.11-20.21-45.13-20.2-19.02-46.5-19.02-26.29 0-45.79 19.6-19.5 19.61-19.5 45.75 0 26.15 19.64 45.4Q709.29-208 737.35-208Z"/></svg>