<?xml version="1.0" encoding="UTF-8" standalone="no"?>
<svg
   height="24px"
   viewBox="0 -960 960 960"
   width="24px"
   fill="#434343"
   version="1.1"
   id="svg1"
   sodipodi:docname="settings_voice_fill.svg"
   inkscape:version="1.4 (86a8ad7, 2024-10-11)"
   xmlns:inkscape="http://www.inkscape.org/namespaces/inkscape"
   xmlns:sodipodi="http://sodipodi.sourceforge.net/DTD/sodipodi-0.dtd"
   xmlns="http://www.w3.org/2000/svg"
   xmlns:svg="http://www.w3.org/2000/svg">
  <defs
     id="defs1" />
  <sodipodi:namedview
     id="namedview1"
     pagecolor="#ffffff"
     bordercolor="#000000"
     borderopacity="0.25"
     inkscape:showpageshadow="2"
     inkscape:pageopacity="0.0"
     inkscape:pagecheckerboard="0"
     inkscape:deskcolor="#d1d1d1"
     inkscape:zoom="256"
     inkscape:cx="12.335938"
     inkscape:cy="23.306641"
     inkscape:window-width="1920"
     inkscape:window-height="1001"
     inkscape:window-x="-9"
     inkscape:window-y="-9"
     inkscape:window-maximized="1"
     inkscape:current-layer="svg1" />
  <path
     d="m 316.19,0.07 q -18.21,0 -30.55,-12.32 -12.34,-12.32 -12.34,-30.54 0,-18.21 12.32,-30.55 12.32,-12.33 30.54,-12.33 18.21,0 30.55,12.32 12.33,12.32 12.33,30.53 0,18.21 -12.32,30.55 Q 334.4,0.07 316.19,0.07 Z m 163.83,0 q -18.22,0 -30.55,-12.32 -12.34,-12.32 -12.34,-30.54 0,-18.21 12.32,-30.55 12.32,-12.33 30.53,-12.33 18.22,0 30.55,12.32 12.34,12.32 12.34,30.53 0,18.21 -12.32,30.55 -12.32,12.34 -30.53,12.34 z m 163.82,0 q -18.21,0 -30.55,-12.32 -12.33,-12.32 -12.33,-30.54 0,-18.21 12.32,-30.55 12.32,-12.33 30.53,-12.33 18.21,0 30.55,12.32 12.34,12.32 12.34,30.53 0,18.21 -12.32,30.55 Q 662.06,0.07 643.84,0.07 Z M 479.97,-409.02 q -53.8,0 -91.43,-37.65 -37.63,-37.65 -37.63,-91.44 v -238.32 q 0,-53.79 37.66,-91.44 37.66,-37.65 91.46,-37.65 53.8,0 91.43,37.65 37.63,37.65 37.63,91.44 v 238.32 q 0,53.79 -37.66,91.44 -37.66,37.65 -91.46,37.65 z m -43.56,240 v -81.13 q -95.25,-12.44 -163.07,-79.85 -67.82,-67.41 -82.54,-163.52 -2.47,-18.43 9.72,-31.51 12.2,-13.08 30.63,-13.08 18.44,0 31.25,12.7 12.82,12.69 17.3,31.13 15.19,70.96 71.77,116.08 56.57,45.11 128.52,45.11 72.97,0 129.04,-45.61 56.08,-45.62 71.27,-115.58 4.48,-18.44 17.3,-31.13 12.81,-12.7 31.25,-12.7 18.43,0 30.51,13.2 12.08,13.19 9.6,31.63 -14.72,94.11 -81.87,162.38 -67.16,68.27 -163.5,80.75 v 81.13 q 0,18.52 -12.53,31.06 -12.54,12.53 -31.06,12.53 -18.52,0 -31.06,-12.53 -12.53,-12.54 -12.53,-31.06 z"
     id="path1" />
</svg>
