<svg xmlns="http://www.w3.org/2000/svg" height="24px" viewBox="0 -960 960 960" width="24px" fill="#e8eaed"><path d="M480.2-906q9.51 0 18.72 1.57 9.21 1.56 18.08 5.43l243.33 91.33q31.02 11.67 50.68 39.13t19.66 61.21v138q0 23.66-15.87 37.66-15.87 14-37.8 14-23.33 0-38.17-15.19Q724-548.05 724-570v-138l-243.33-90-244 89.97V-520q0 61.33 16.5 111.5t42.16 90.17Q321-278.33 352-249t59.33 49q17.62 14.88 24.48 35.61 6.86 20.72-3.89 40.81-11.85 21.2-33.38 27.22-21.54 6.03-39.87-7.97Q251.33-167.67 191-281.52q-60.33-113.86-60.33-238.65v-187.16q0-33.87 18.98-61.42 18.98-27.56 50.02-38.92l243-91.33q9.75-3.27 17.83-5.13 8.08-1.87 19.7-1.87ZM688.38-78.67q-80 0-136.69-56.76Q495-192.2 495-270.91q0-80.33 56.63-137.21Q608.27-465 688.62-465q79.67 0 136.69 56.79 57.02 56.79 57.02 137.12 0 78.71-56.97 135.57-56.97 56.85-136.98 56.85ZM480-488.33Zm209.04 215q25.53 0 43.74-18.41Q751-310.14 751-335.6q0-25.45-18.73-43.43Q713.55-397 688.94-397q-25.94 0-44.27 17.9-18.34 17.89-18.34 43.46t18.59 43.94q18.59 18.37 44.12 18.37ZM688.49-150q24.2 0 46-7.89 21.81-7.89 39.84-24.78Q781-188 780-199.17q-1-11.16-11.33-14.83-19.47-8.67-39.98-13-20.51-4.33-41.17-4.33-21.15 0-40.5 4.5T607.47-214q-10.14 2.67-11.8 13.83-1.67 11.17 5.66 17.5 17.87 17.19 40.24 24.93 22.37 7.74 46.92 7.74Z"/></svg>