<?xml version="1.0" encoding="UTF-8" standalone="no"?>
<svg
   height="24px"
   viewBox="0 -960 960 960"
   width="24px"
   fill="#434343"
   version="1.1"
   id="svg1"
   sodipodi:docname="brand_awareness_24dp_434343_FILL0_wght500_GRAD0_opsz24.svg"
   inkscape:version="1.4 (86a8ad7, 2024-10-11)"
   xmlns:inkscape="http://www.inkscape.org/namespaces/inkscape"
   xmlns:sodipodi="http://sodipodi.sourceforge.net/DTD/sodipodi-0.dtd"
   xmlns="http://www.w3.org/2000/svg"
   xmlns:svg="http://www.w3.org/2000/svg">
  <defs
     id="defs1" />
  <sodipodi:namedview
     id="namedview1"
     pagecolor="#ffffff"
     bordercolor="#000000"
     borderopacity="0.25"
     inkscape:showpageshadow="2"
     inkscape:pageopacity="0.0"
     inkscape:pagecheckerboard="0"
     inkscape:deskcolor="#d1d1d1"
     inkscape:zoom="64"
     inkscape:cx="5.109375"
     inkscape:cy="9.9609375"
     inkscape:window-width="1920"
     inkscape:window-height="1001"
     inkscape:window-x="-9"
     inkscape:window-y="-9"
     inkscape:window-maximized="1"
     inkscape:current-layer="svg1" />
  <path
     d="m 766.48,-436.41 h -83.83 q -18.43,0 -31.01,-12.58 -12.58,-12.58 -12.58,-31.01 0,-18.43 12.58,-31.01 12.58,-12.58 31.01,-12.58 h 83.83 q 18.43,0 31.01,12.58 12.57,12.58 12.57,31.01 0,18.43 -12.57,31.01 -12.58,12.58 -31.01,12.58 z m -182.7,146.26 q 10.96,-14.96 28.51,-17.32 17.56,-2.36 32.51,8.6 l 67.11,50.15 q 15.2,10.96 17.44,28.39 2.24,17.44 -8.72,32.63 -10.96,15.2 -28.63,17.44 -17.68,2.24 -32.87,-8.72 l -66.63,-50.15 q -14.96,-10.96 -17.32,-28.39 -2.36,-17.44 8.6,-32.63 z m 127.89,-421.13 -66.87,50.15 q -14.95,10.96 -32.51,8.72 -17.55,-2.24 -28.51,-17.44 -10.96,-14.95 -8.6,-32.51 2.36,-17.55 17.32,-28.51 l 66.87,-50.39 q 14.95,-10.96 32.51,-8.6 17.55,2.36 28.51,17.32 10.96,15.19 8.72,32.75 -2.24,17.55 -17.44,28.51 z M 269.02,-351.87 H 149.74 q -19.16,0 -32.33,-13.17 -13.17,-13.18 -13.17,-32.33 v -165.26 q 0,-19.15 13.17,-32.33 13.17,-13.17 32.33,-13.17 H 269.02 L 402.69,-741.8 q 21.63,-21.64 49.6,-9.82 27.97,11.82 27.97,42.4 v 458.44 q 0,30.58 -27.97,42.4 -27.97,11.82 -49.6,-9.82 z m 120.24,-247.2 -81.94,81.94 H 195.24 v 74.26 h 112.08 l 81.94,81.94 z M 292.13,-480 Z"
     id="path1" />
</svg>
