<?xml version="1.0" encoding="UTF-8" standalone="no"?>
<svg
   width="16"
   height="16"
   fill="currentColor"
   class="bi bi-spotify"
   viewBox="0 0 16 16"
   version="1.1"
   id="svg1"
   sodipodi:docname="spotify.svg"
   inkscape:version="1.3.2 (091e20e, 2023-11-25, custom)"
   xmlns:inkscape="http://www.inkscape.org/namespaces/inkscape"
   xmlns:sodipodi="http://sodipodi.sourceforge.net/DTD/sodipodi-0.dtd"
   xmlns="http://www.w3.org/2000/svg"
   xmlns:svg="http://www.w3.org/2000/svg">
  <defs
     id="defs1" />
  <sodipodi:namedview
     id="namedview1"
     pagecolor="#ffffff"
     bordercolor="#000000"
     borderopacity="0.25"
     inkscape:showpageshadow="2"
     inkscape:pageopacity="0.0"
     inkscape:pagecheckerboard="0"
     inkscape:deskcolor="#d1d1d1"
     inkscape:zoom="22.625"
     inkscape:cx="8"
     inkscape:cy="8"
     inkscape:window-width="1920"
     inkscape:window-height="969"
     inkscape:window-x="-9"
     inkscape:window-y="23"
     inkscape:window-maximized="1"
     inkscape:current-layer="svg1" />
  <path
     d="M8 0a8 8 0 1 0 0 16A8 8 0 0 0 8 0m3.669 11.538a.5.5 0 0 1-.686.165c-1.879-1.147-4.243-1.407-7.028-.77a.499.499 0 0 1-.222-.973c3.048-.696 5.662-.397 7.77.892a.5.5 0 0 1 .166.686m.979-2.178a.624.624 0 0 1-.858.205c-2.15-1.321-5.428-1.704-7.972-.932a.625.625 0 0 1-.362-1.194c2.905-.881 6.517-.454 8.986 1.063a.624.624 0 0 1 .206.858m.084-2.268C10.154 5.56 5.9 5.419 3.438 6.166a.748.748 0 1 1-.434-1.432c2.825-.857 7.523-.692 10.492 1.07a.747.747 0 1 1-.764 1.288"
     id="path1"
     style="fill:#e8eaed;fill-opacity:1" />
</svg>
