<?xml version="1.0" encoding="UTF-8" standalone="no"?>
<svg
   height="24px"
   viewBox="0 -960 960 960"
   width="24px"
   fill="#434343"
   version="1.1"
   id="svg1"
   sodipodi:docname="tag.svg"
   inkscape:version="1.4 (86a8ad7, 2024-10-11)"
   xmlns:inkscape="http://www.inkscape.org/namespaces/inkscape"
   xmlns:sodipodi="http://sodipodi.sourceforge.net/DTD/sodipodi-0.dtd"
   xmlns="http://www.w3.org/2000/svg"
   xmlns:svg="http://www.w3.org/2000/svg">
  <defs
     id="defs1" />
  <sodipodi:namedview
     id="namedview1"
     pagecolor="#ffffff"
     bordercolor="#000000"
     borderopacity="0.25"
     inkscape:showpageshadow="2"
     inkscape:pageopacity="0.0"
     inkscape:pagecheckerboard="0"
     inkscape:deskcolor="#d1d1d1"
     inkscape:zoom="32.625"
     inkscape:cx="12.015326"
     inkscape:cy="11.984674"
     inkscape:window-width="1920"
     inkscape:window-height="1001"
     inkscape:window-x="-9"
     inkscape:window-y="-9"
     inkscape:window-maximized="1"
     inkscape:current-layer="svg1" />
  <path
     d="m 615.46875,-849.29688 c -8.60125,0.50626 -17.31625,2.385 -26.09375,5.625 l -301.95312,110 c -23.40667,8.28667 -40.26209,23.61084 -50.46876,45.9375 -10.21333,22.32667 -10.90937,45.18709 -2.10937,68.59376 l 178.04687,488.04687 c 8.80001,23.56667 24.18334,40.767292 46.25,51.640625 22.07334,10.88 44.87459,11.925 68.28126,3.125 L 828.90625,-186.32812 c 23.40667,-8.28667 40.32979,-23.61271 50.70313,-45.85938 10.36666,-22.24667 11.21812,-45.03083 2.57812,-68.4375 L 704.14062,-788.90625 c -8.79333,-23.56667 -24.25291,-40.69104 -46.40624,-51.48437 -13.84584,-6.75 -27.93021,-9.75 -42.26563,-8.90626 z m 3.125,92.89063 L 794.6875,-271.875 498.20312,-163.59375 322.10938,-648.125 Z m -174.29687,115.9375 c -12.28667,0 -22.62896,4.18958 -31.01563,12.65625 -8.38667,8.46 -12.57813,18.87854 -12.57813,31.17188 0,12.28666 4.14,22.62895 12.5,31.01562 8.35334,8.38 18.74709,12.57812 31.09376,12.57812 12.29333,0 22.63374,-4.22479 31.09374,-12.57812 8.46667,-8.35333 12.73438,-18.66896 12.73438,-31.01562 0,-12.29334 -4.26771,-22.71188 -12.73438,-31.17188 -8.45999,-8.46667 -18.80041,-12.65625 -31.09374,-12.65625 z"
     id="path1" />
</svg>
