<?xml version="1.0" encoding="UTF-8" standalone="no"?>
<svg
   x="0"
   y="0"
   class="icon_fc4f04"
   aria-hidden="true"
   role="img"
   width="24"
   height="24"
   fill="none"
   viewBox="0 0 24 24"
   version="1.1"
   id="svg1"
   sodipodi:docname="thread.svg"
   inkscape:version="1.3.2 (091e20e, 2023-11-25, custom)"
   xmlns:inkscape="http://www.inkscape.org/namespaces/inkscape"
   xmlns:sodipodi="http://sodipodi.sourceforge.net/DTD/sodipodi-0.dtd"
   xmlns="http://www.w3.org/2000/svg"
   xmlns:svg="http://www.w3.org/2000/svg">
  <defs
     id="defs1" />
  <sodipodi:namedview
     id="namedview1"
     pagecolor="#ffffff"
     bordercolor="#000000"
     borderopacity="0.25"
     inkscape:showpageshadow="2"
     inkscape:pageopacity="0.0"
     inkscape:pagecheckerboard="0"
     inkscape:deskcolor="#d1d1d1"
     inkscape:zoom="15.083333"
     inkscape:cx="12"
     inkscape:cy="12"
     inkscape:window-width="1920"
     inkscape:window-height="969"
     inkscape:window-x="-9"
     inkscape:window-y="23"
     inkscape:window-maximized="1"
     inkscape:current-layer="svg1" />
  <path
     d="M12 2.81a1 1 0 0 1 0-1.41l.36-.36a1 1 0 0 1 1.41 0l9.2 9.2a1 1 0 0 1 0 1.4l-.7.7a1 1 0 0 1-1.3.13l-9.54-6.72a1 1 0 0 1-.08-1.58l1-1L12 2.8ZM12 21.2a1 1 0 0 1 0 1.41l-.35.35a1 1 0 0 1-1.41 0l-9.2-9.19a1 1 0 0 1 0-1.41l.7-.7a1 1 0 0 1 1.3-.12l9.54 6.72a1 1 0 0 1 .07 1.58l-1 1 .35.36ZM15.66 16.8a1 1 0 0 1-1.38.28l-8.49-5.66A1 1 0 1 1 6.9 9.76l8.49 5.65a1 1 0 0 1 .27 1.39ZM17.1 14.25a1 1 0 1 0 1.11-1.66L9.73 6.93a1 1 0 0 0-1.11 1.66l8.49 5.66Z"
     fill="currentColor"
     class=""
     id="path1"
     style="fill:#e8eaed;fill-opacity:1" />
</svg>
