<?xml version="1.0" encoding="UTF-8" standalone="no"?>
<svg
   aria-hidden="true"
   role="img"
   width="16"
   height="16"
   fill="none"
   viewBox="0 0 24 24"
   version="1.1"
   id="svg2"
   sodipodi:docname="timeout.svg"
   inkscape:version="1.3.2 (091e20e, 2023-11-25, custom)"
   xmlns:inkscape="http://www.inkscape.org/namespaces/inkscape"
   xmlns:sodipodi="http://sodipodi.sourceforge.net/DTD/sodipodi-0.dtd"
   xmlns="http://www.w3.org/2000/svg"
   xmlns:svg="http://www.w3.org/2000/svg">
  <defs
     id="defs2" />
  <sodipodi:namedview
     id="namedview2"
     pagecolor="#ffffff"
     bordercolor="#000000"
     borderopacity="0.25"
     inkscape:showpageshadow="2"
     inkscape:pageopacity="0.0"
     inkscape:pagecheckerboard="0"
     inkscape:deskcolor="#d1d1d1"
     inkscape:zoom="22.625"
     inkscape:cx="8"
     inkscape:cy="8"
     inkscape:window-width="1920"
     inkscape:window-height="1001"
     inkscape:window-x="-9"
     inkscape:window-y="-9"
     inkscape:window-maximized="1"
     inkscape:current-layer="svg2" />
  <path
     fill="currentColor"
     d="M12 23c.08 0 .14-.08.11-.16a2.88 2.88 0 0 1 .29-2.31l2.2-3.85c.18-.3-.06-.73-.3-.97l-3-3A1 1 0 0 1 11 12V5a1 1 0 1 1 2 0v6.38c0 .13.05.26.15.35l2.56 2.56c.08.08.22.08.28-.02l.36-.64a3.06 3.06 0 0 1 5.3 0l.3.54c.22.38.78.31.86-.12A11 11 0 1 0 12 23Z"
     class=""
     id="path1"
     style="fill:#e8eaed;fill-opacity:1" />
  <path
     fill="currentColor"
     fill-rule="evenodd"
     d="M18.09 14.63c.4-.7 1.43-.7 1.82 0l3.96 6.9c.38.66-.12 1.47-.91 1.47h-7.92c-.79 0-1.3-.81-.91-1.48l3.96-6.9Zm.46 1.87h.9c.3 0 .52.26.5.55l-.22 2.02c-.01.16-.17.26-.33.23a1.93 1.93 0 0 0-.8 0c-.16.03-.32-.07-.33-.23l-.21-2.02a.5.5 0 0 1 .5-.55ZM19 22a1 1 0 1 0 0-2 1 1 0 0 0 0 2Z"
     clip-rule="evenodd"
     class=""
     id="path2"
     style="fill:#e8eaed;fill-opacity:1" />
</svg>
