<?xml version="1.0" encoding="UTF-8" standalone="no"?>
<svg
   class="vc-settings-quickActions-img vc-log-icon vc-icon"
   role="img"
   width="24"
   height="24"
   viewBox="0 0 24 24"
   version="1.1"
   id="svg1"
   sodipodi:docname="vencord_notifications_log.svg"
   inkscape:version="1.3.2 (091e20e, 2023-11-25, custom)"
   xmlns:inkscape="http://www.inkscape.org/namespaces/inkscape"
   xmlns:sodipodi="http://sodipodi.sourceforge.net/DTD/sodipodi-0.dtd"
   xmlns="http://www.w3.org/2000/svg"
   xmlns:svg="http://www.w3.org/2000/svg">
  <defs
     id="defs1" />
  <sodipodi:namedview
     id="namedview1"
     pagecolor="#ffffff"
     bordercolor="#000000"
     borderopacity="0.25"
     inkscape:showpageshadow="2"
     inkscape:pageopacity="0.0"
     inkscape:pagecheckerboard="0"
     inkscape:deskcolor="#d1d1d1"
     inkscape:zoom="15.083333"
     inkscape:cx="12"
     inkscape:cy="12"
     inkscape:window-width="1920"
     inkscape:window-height="969"
     inkscape:window-x="-9"
     inkscape:window-y="23"
     inkscape:window-maximized="1"
     inkscape:current-layer="svg1" />
  <path
     fill="currentColor"
     fill-rule="evenodd"
     clip-rule="evenodd"
     d="M3.11 8H6v10.82c0 .86.37 1.68 1 2.27.46.43 1.02.71 1.63.84A1 1 0 0 0 9 22h10a4 4 0 0 0 4-4v-1a2 2 0 0 0-2-2h-1V5a3 3 0 0 0-3-3H4.67c-.87 0-1.7.32-2.34.9-.63.6-1 1.42-1 2.28 0 .71.3 1.35.52 1.75a5.35 5.35 0 0 0 .48.7l.01.01h.01L3.11 7l-.76.65a1 1 0 0 0 .76.35Zm1.56-4c-.38 0-.72.14-.97.37-.24.23-.37.52-.37.81a1.69 1.69 0 0 0 .3.82H6v-.83c0-.29-.13-.58-.37-.8C5.4 4.14 5.04 4 4.67 4Zm5 13a3.58 3.58 0 0 1 0 3H19a2 2 0 0 0 2-2v-1H9.66ZM3.86 6.35ZM11 8a1 1 0 1 0 0 2h5a1 1 0 1 0 0-2h-5Zm-1 5a1 1 0 0 1 1-1h5a1 1 0 1 1 0 2h-5a1 1 0 0 1-1-1Z"
     id="path1"
     style="fill:#e8eaed;fill-opacity:1" />
</svg>
