<svg width="25" height="25" viewBox="0 0 25 25" fill="none" xmlns="http://www.w3.org/2000/svg">
<path fill-rule="evenodd" clip-rule="evenodd" d="M12.7139 22.4884C18.2367 22.4884 22.7139 18.0112 22.7139 12.4884C22.7139 6.96552 18.2367 2.48837 12.7139 2.48837C7.19102 2.48837 2.71387 6.96552 2.71387 12.4884C2.71387 18.0112 7.19102 22.4884 12.7139 22.4884ZM13.4639 9.48837C13.4639 9.07416 13.1281 8.73837 12.7139 8.73837C12.2997 8.73837 11.9639 9.07416 11.9639 9.48837V11.7384H9.71387C9.29966 11.7384 8.96387 12.0742 8.96387 12.4884C8.96387 12.9026 9.29966 13.2384 9.71387 13.2384H11.9639V15.4884C11.9639 15.9026 12.2997 16.2384 12.7139 16.2384C13.1281 16.2384 13.4639 15.9026 13.4639 15.4884V13.2384H15.7139C16.1281 13.2384 16.4639 12.9026 16.4639 12.4884C16.4639 12.0742 16.1281 11.7384 15.7139 11.7384H13.4639V9.48837Z" fill="#2D2D2D"/>
</svg>
