<svg width="25" height="25" viewBox="0 0 25 25" fill="none" xmlns="http://www.w3.org/2000/svg">
<path fill-rule="evenodd" clip-rule="evenodd" d="M2.78322 5.49676C2.71387 5.86432 2.71387 6.30559 2.71387 7.18812V14.2384C2.71387 18.0096 2.71387 19.8953 3.88544 21.0668C5.05702 22.2384 6.94263 22.2384 10.7139 22.2384H14.7139C18.4851 22.2384 20.3708 22.2384 21.5423 21.0668C22.7139 19.8953 22.7139 18.0096 22.7139 14.2384V12.0363C22.7139 9.40391 22.7139 8.08772 21.9444 7.2322C21.8737 7.15351 21.7988 7.07861 21.7201 7.00783C20.8645 6.23837 19.5484 6.23837 16.916 6.23837H16.5423C15.3886 6.23837 14.8118 6.23837 14.2743 6.08515C13.979 6.00097 13.6943 5.88308 13.426 5.7338C12.9376 5.46204 12.5297 5.05415 11.7139 4.23837L11.1636 3.68812C10.8902 3.4147 10.7535 3.27798 10.6098 3.15888C9.99039 2.64541 9.23052 2.33066 8.42944 2.25575C8.24363 2.23837 8.05029 2.23837 7.66362 2.23837C6.78109 2.23837 6.33982 2.23837 5.97226 2.30772C4.35418 2.61301 3.08851 3.87868 2.78322 5.49676ZM12.7139 11.4884C13.1281 11.4884 13.4639 11.8242 13.4639 12.2384V13.4884H14.7139C15.1281 13.4884 15.4639 13.8242 15.4639 14.2384C15.4639 14.6526 15.1281 14.9884 14.7139 14.9884H13.4639V16.2384C13.4639 16.6526 13.1281 16.9884 12.7139 16.9884C12.2997 16.9884 11.9639 16.6526 11.9639 16.2384V14.9884H10.7139C10.2997 14.9884 9.96387 14.6526 9.96387 14.2384C9.96387 13.8242 10.2997 13.4884 10.7139 13.4884H11.9639V12.2384C11.9639 11.8242 12.2997 11.4884 12.7139 11.4884Z" fill="#2D2D2D"/>
</svg>
