<svg width="25" height="25" viewBox="0 0 25 25" fill="none" xmlns="http://www.w3.org/2000/svg">
<path fill-rule="evenodd" clip-rule="evenodd" d="M12.7139 22.4884C18.2367 22.4884 22.7139 18.0112 22.7139 12.4884C22.7139 6.96552 18.2367 2.48837 12.7139 2.48837C7.19102 2.48837 2.71387 6.96552 2.71387 12.4884C2.71387 18.0112 7.19102 22.4884 12.7139 22.4884ZM16.7139 14.5339V12.0372C16.7139 9.89282 16.7139 8.82067 16.1281 8.15452C15.5423 7.48837 14.5995 7.48837 12.7139 7.48837C10.8283 7.48837 9.88544 7.48837 9.29966 8.15452C8.71387 8.82067 8.71387 9.89282 8.71387 12.0372V14.5339C8.71387 16.0821 8.71387 16.8563 9.04014 17.1946C9.19574 17.3559 9.39216 17.4572 9.60139 17.4842C10.0401 17.5406 10.5524 17.0309 11.5771 16.0113C12.03 15.5606 12.2565 15.3353 12.5185 15.2759C12.6475 15.2467 12.7803 15.2467 12.9093 15.2759C13.1713 15.3353 13.3978 15.5606 13.8507 16.0113C14.8754 17.0309 15.3877 17.5406 15.8264 17.4842C16.0356 17.4572 16.232 17.3559 16.3876 17.1946C16.7139 16.8563 16.7139 16.0821 16.7139 14.5339Z" fill="#2D2D2D"/>
</svg>
