<svg width="25" height="25" viewBox="0 0 25 25" fill="none" xmlns="http://www.w3.org/2000/svg">
<path d="M22.7139 14.4884V12.4884C22.7139 11.6494 22.7139 10.9037 22.701 10.2384H2.72677C2.71387 10.9037 2.71387 11.6494 2.71387 12.4884V14.4884C2.71387 18.2596 2.71387 20.1453 3.88544 21.3168C5.05702 22.4884 6.94263 22.4884 10.7139 22.4884H14.7139C18.4851 22.4884 20.3708 22.4884 21.5423 21.3168C22.7139 20.1453 22.7139 18.2596 22.7139 14.4884Z" fill="#2D2D2D"/>
<path d="M8.46395 2.98837C8.46395 2.57416 8.12816 2.23837 7.71395 2.23837C7.29974 2.23837 6.96395 2.57416 6.96395 2.98837V4.56763C5.52462 4.68288 4.57972 4.96574 3.88552 5.65994C3.19132 6.35414 2.90846 7.29904 2.79321 8.73837H22.6347C22.5195 7.29904 22.2366 6.35414 21.5424 5.65994C20.8482 4.96574 19.9033 4.68288 18.464 4.56763V2.98837C18.464 2.57416 18.1282 2.23837 17.714 2.23837C17.2998 2.23837 16.964 2.57416 16.964 2.98837V4.50127C16.2987 4.48837 15.553 4.48837 14.714 4.48837H10.714C9.87492 4.48837 9.12922 4.48837 8.46395 4.50127V2.98837Z" fill="#2D2D2D"/>
</svg>
