<svg width="25" height="25" viewBox="0 0 25 25" fill="none" xmlns="http://www.w3.org/2000/svg">
<path d="M8.46395 2.98837C8.46395 2.57416 8.12816 2.23837 7.71395 2.23837C7.29974 2.23837 6.96395 2.57416 6.96395 2.98837V4.56763C5.52462 4.68288 4.57972 4.96574 3.88552 5.65994C3.19132 6.35414 2.90846 7.29904 2.79321 8.73837H22.6347C22.5195 7.29904 22.2366 6.35414 21.5424 5.65994C20.8482 4.96574 19.9033 4.68288 18.464 4.56763V2.98837C18.464 2.57416 18.1282 2.23837 17.714 2.23837C17.2998 2.23837 16.964 2.57416 16.964 2.98837V4.50127C16.2987 4.48837 15.553 4.48837 14.714 4.48837H10.714C9.87492 4.48837 9.12922 4.48837 8.46395 4.50127V2.98837Z" fill="#2D2D2D"/>
<path fill-rule="evenodd" clip-rule="evenodd" d="M22.7139 12.4884V14.4884C22.7139 18.2596 22.7139 20.1453 21.5423 21.3168C20.3708 22.4884 18.4851 22.4884 14.7139 22.4884H10.7139C6.94263 22.4884 5.05702 22.4884 3.88544 21.3168C2.71387 20.1453 2.71387 18.2596 2.71387 14.4884V12.4884C2.71387 11.6494 2.71387 10.9037 2.72677 10.2384H22.701C22.7139 10.9037 22.7139 11.6494 22.7139 12.4884ZM16.7139 13.7384C17.1281 13.7384 17.4639 14.0742 17.4639 14.4884V15.7384H18.7139C19.1281 15.7384 19.4639 16.0742 19.4639 16.4884C19.4639 16.9026 19.1281 17.2384 18.7139 17.2384H17.4639V18.4884C17.4639 18.9026 17.1281 19.2384 16.7139 19.2384C16.2997 19.2384 15.9639 18.9026 15.9639 18.4884V17.2384H14.7139C14.2997 17.2384 13.9639 16.9026 13.9639 16.4884C13.9639 16.0742 14.2997 15.7384 14.7139 15.7384H15.9639V14.4884C15.9639 14.0742 16.2997 13.7384 16.7139 13.7384Z" fill="#2D2D2D"/>
</svg>
