<svg width="25" height="25" viewBox="0 0 25 25" fill="none" xmlns="http://www.w3.org/2000/svg">
<path d="M15.2701 16.0361L14.8146 16.5156C14.8146 16.5156 13.732 17.6554 10.777 14.5443C7.82199 11.4332 8.90456 10.2934 8.90456 10.2934L9.19139 9.99148C9.89794 9.24761 9.96455 8.05334 9.34811 7.18147L8.08713 5.39798C7.32415 4.31887 5.84983 4.17632 4.97532 5.09701L3.40572 6.74951C2.9721 7.20603 2.68152 7.79782 2.71676 8.45431C2.80691 10.1338 3.52458 13.7474 7.52923 17.9636C11.776 22.4346 15.7607 22.6123 17.3902 22.4515C17.9056 22.4006 18.3538 22.1227 18.715 21.7424L20.1356 20.2468C21.0945 19.2373 20.8241 17.5066 19.5972 16.8004L17.6867 15.7007C16.8811 15.237 15.8997 15.3732 15.2701 16.0361Z" fill="#2D2D2D"/>
<path d="M17.7139 12.4884C20.4753 12.4884 22.7139 10.2498 22.7139 7.48837C22.7139 4.72695 20.4753 2.48837 17.7139 2.48837C14.9525 2.48837 12.7139 4.72695 12.7139 7.48837C12.7139 8.28821 12.9017 9.04419 13.2356 9.71461C13.3244 9.89277 13.3539 10.0964 13.3025 10.2887L13.0047 11.4017C12.8754 11.8849 13.3174 12.3269 13.8006 12.1976L14.9136 11.8998C15.1059 11.8484 15.3095 11.8779 15.4877 11.9667C16.1581 12.3006 16.9141 12.4884 17.7139 12.4884Z" fill="#2D2D2D"/>
</svg>
