<svg width="25" height="25" viewBox="0 0 25 25" fill="none" xmlns="http://www.w3.org/2000/svg">
<path d="M20.7139 4.48839L16.7139 8.48837M16.7139 4.48837L20.7139 8.48835" stroke="#2D2D2D" stroke-width="1.5" stroke-linecap="round"/>
<path d="M16.2701 15.0361L15.8146 15.5156C15.8146 15.5156 14.732 16.6554 11.777 13.5443C8.82199 10.4332 9.90456 9.29344 9.90456 9.29344L10.1914 8.99148C10.898 8.24761 10.9646 7.05334 10.3481 6.18147L9.08712 4.39798C8.32414 3.31887 6.84983 3.17632 5.97532 4.09701L4.40572 5.74951C3.9721 6.20603 3.68152 6.79782 3.71676 7.45431C3.80691 9.13383 4.52458 12.7474 8.52923 16.9636C12.776 21.4346 16.7607 21.6123 18.3902 21.4515C18.9056 21.4006 19.3538 21.1227 19.715 20.7424L21.1356 19.2468C22.0945 18.2373 21.8241 16.5066 20.5972 15.8004L18.6867 14.7007C17.8811 14.237 16.8997 14.3732 16.2701 15.0361Z" fill="#2D2D2D"/>
</svg>
