<svg width="25" height="25" viewBox="0 0 25 25" fill="none" xmlns="http://www.w3.org/2000/svg">
<path d="M14.7138 4.48837H10.7138C6.94254 4.48837 5.05693 4.48837 3.88535 5.65994C3.04181 6.50348 2.80563 7.71719 2.7395 9.73837H22.6881C22.622 7.71719 22.3858 6.50348 21.5422 5.65994C20.3707 4.48837 18.485 4.48837 14.7138 4.48837Z" fill="#2D2D2D"/>
<path fill-rule="evenodd" clip-rule="evenodd" d="M14.7139 20.4884H10.7139C6.94263 20.4884 5.05702 20.4884 3.88544 19.3168C2.71387 18.1453 2.71387 16.2596 2.71387 12.4884C2.71387 12.0465 2.71387 11.6304 2.71576 11.2384H22.712C22.7139 11.6304 22.7139 12.0465 22.7139 12.4884C22.7139 16.2596 22.7139 18.1453 21.5423 19.3168C20.3708 20.4884 18.4851 20.4884 14.7139 20.4884ZM16.7586 12.7384C17.1915 12.7383 17.5883 12.7383 17.9111 12.7817C18.2666 12.8295 18.6423 12.9419 18.9513 13.251C19.2604 13.56 19.3728 13.9357 19.4206 14.2912C19.464 14.614 19.464 15.0108 19.4639 15.4437V15.5331C19.464 15.966 19.464 16.3628 19.4206 16.6856C19.3728 17.0411 19.2604 17.4168 18.9513 17.7258C18.6423 18.0349 18.2666 18.1473 17.9111 18.1951C17.5883 18.2385 17.1915 18.2385 16.7586 18.2384H16.7139H16.6692C16.2363 18.2385 15.8395 18.2385 15.5167 18.1951C15.1612 18.1473 14.7855 18.0349 14.4765 17.7258C14.1674 17.4168 14.055 17.0411 14.0072 16.6856C13.9638 16.3628 13.9638 15.966 13.9639 15.5331V15.4884V15.4437C13.9638 15.0108 13.9638 14.614 14.0072 14.2912C14.055 13.9357 14.1674 13.56 14.4765 13.251C14.7855 12.9419 15.1612 12.8295 15.5167 12.7817C15.8395 12.7383 16.2363 12.7383 16.6692 12.7384H16.7586ZM5.96387 13.9884C5.96387 13.5742 6.29966 13.2384 6.71387 13.2384H8.71387C9.12808 13.2384 9.46387 13.5742 9.46387 13.9884C9.46387 14.4026 9.12808 14.7384 8.71387 14.7384H6.71387C6.29966 14.7384 5.96387 14.4026 5.96387 13.9884ZM5.96387 16.9884C5.96387 16.5742 6.29966 16.2384 6.71387 16.2384H10.7139C11.1281 16.2384 11.4639 16.5742 11.4639 16.9884C11.4639 17.4026 11.1281 17.7384 10.7139 17.7384H6.71387C6.29966 17.7384 5.96387 17.4026 5.96387 16.9884Z" fill="#2D2D2D"/>
<path d="M15.5372 14.3116L15.5396 14.3103C15.5415 14.3093 15.5448 14.3076 15.5499 14.3056C15.5716 14.2966 15.62 14.2813 15.7166 14.2683C15.9273 14.24 16.2213 14.2384 16.7139 14.2384C17.2065 14.2384 17.5005 14.24 17.7112 14.2683C17.8078 14.2813 17.8562 14.2966 17.8779 14.3056C17.883 14.3076 17.8863 14.3093 17.8882 14.3103L17.8907 14.3116L17.892 14.3141C17.893 14.316 17.8947 14.3193 17.8967 14.3244C17.9057 14.3461 17.921 14.3945 17.934 14.4911C17.9623 14.7018 17.9639 14.9958 17.9639 15.4884C17.9639 15.981 17.9623 16.275 17.934 16.4857C17.921 16.5823 17.9057 16.6307 17.8967 16.6524C17.8947 16.6575 17.893 16.6608 17.892 16.6627L17.8907 16.6652L17.8882 16.6665C17.8863 16.6675 17.883 16.6692 17.8779 16.6712C17.8562 16.6802 17.8078 16.6955 17.7112 16.7085C17.5005 16.7368 17.2065 16.7384 16.7139 16.7384C16.2213 16.7384 15.9273 16.7368 15.7166 16.7085C15.62 16.6955 15.5716 16.6802 15.5499 16.6712C15.5448 16.6692 15.5415 16.6675 15.5396 16.6665L15.5371 16.6652L15.5358 16.6627C15.5348 16.6608 15.5331 16.6575 15.5311 16.6524C15.5221 16.6307 15.5068 16.5823 15.4938 16.4857C15.4655 16.275 15.4639 15.981 15.4639 15.4884C15.4639 14.9958 15.4655 14.7018 15.4938 14.4911C15.5068 14.3945 15.5221 14.3461 15.5311 14.3244C15.5331 14.3193 15.5348 14.316 15.5358 14.3141L15.5372 14.3116Z" fill="#2D2D2D"/>
</svg>
