<svg width="25" height="25" viewBox="0 0 25 25" fill="none" xmlns="http://www.w3.org/2000/svg">
<path fill-rule="evenodd" clip-rule="evenodd" d="M12.464 6.89473C10.9837 6.89473 10.8361 7.05087 10.07 7.05087C9.43156 7.05087 7.51632 5.48837 6.55872 5.48837C5.60111 5.48837 4.48391 6.05087 4.48391 7.67587V9.55087C4.48584 10.0431 4.66468 11.5518 5.36462 11.1486C4.5371 12.1266 4.4535 13.267 4.46487 14.371C4.24199 14.4354 4.01459 14.508 3.7939 14.5834C3.11001 14.8173 2.38472 15.1155 2.05707 15.3271C1.70911 15.5518 1.60921 16.0161 1.83393 16.364C2.05865 16.712 2.5229 16.8119 2.87085 16.5872C3.02707 16.4863 3.5921 16.2377 4.27919 16.0028C4.35511 15.9768 4.43118 15.9515 4.50685 15.927C4.55312 16.3608 4.66795 16.7568 4.83865 17.1176L4.81507 17.13C4.40535 17.3465 4.02517 17.5951 3.78276 17.7536C3.74081 17.781 3.70299 17.8057 3.66986 17.8271C3.3219 18.0518 3.222 18.5161 3.44672 18.864C3.67144 19.212 4.13569 19.3119 4.48365 19.0872C4.52477 19.0606 4.56859 19.032 4.61484 19.0018C4.86017 18.8417 5.17386 18.6369 5.51586 18.4562C5.59605 18.4138 5.67322 18.3754 5.74704 18.3408C7.47734 19.9632 10.5838 20.4884 12.464 20.4884C14.3441 20.4884 17.4506 19.9632 19.1809 18.3408C19.2547 18.3754 19.3318 18.4138 19.412 18.4562C19.754 18.6369 20.0677 18.8417 20.313 19.0018C20.3593 19.032 20.4031 19.0606 20.4442 19.0872C20.7922 19.3119 21.2564 19.212 21.4812 18.864C21.7059 18.5161 21.606 18.0518 21.258 17.8271C21.2249 17.8057 21.1871 17.781 21.1451 17.7536C20.9027 17.5951 20.5225 17.3465 20.1128 17.13L20.0893 17.1176C20.26 16.7567 20.3748 16.3608 20.4211 15.9269C20.4969 15.9514 20.5731 15.9767 20.6491 16.0028C21.3362 16.2377 21.9013 16.4863 22.0575 16.5872C22.4054 16.8119 22.8697 16.712 23.0944 16.364C23.3191 16.0161 23.2192 15.5518 22.8713 15.3271C22.5436 15.1155 21.8183 14.8173 21.1344 14.5834C20.9136 14.5079 20.6861 14.4354 20.4631 14.3709C20.4744 13.2669 20.3908 12.1266 19.5633 11.1486C20.2633 11.5518 20.4421 10.0431 20.4441 9.55087V7.67598C20.4441 6.05098 19.3268 5.48848 18.3692 5.48848C17.4116 5.48848 15.4964 7.05087 14.858 7.05087C14.0919 7.05087 13.9444 6.89473 12.464 6.89473ZM11.7884 16.0888C11.991 16.0198 12.2301 15.9884 12.464 15.9884C12.6979 15.9884 12.937 16.0198 13.1396 16.0888C13.239 16.1226 13.3606 16.176 13.4676 16.2622C13.5751 16.3487 13.714 16.509 13.714 16.7384C13.714 16.9678 13.5751 17.1281 13.4676 17.2146C13.3606 17.3008 13.239 17.3542 13.1396 17.388C12.937 17.457 12.6979 17.4884 12.464 17.4884C12.2301 17.4884 11.991 17.457 11.7884 17.388C11.689 17.3542 11.5674 17.3008 11.4603 17.2146C11.3528 17.1281 11.214 16.9678 11.214 16.7384C11.214 16.509 11.3528 16.3487 11.4603 16.2622C11.5674 16.176 11.689 16.1226 11.7884 16.0888ZM14.634 12.9889C14.7705 12.7605 15.0399 12.4884 15.444 12.4884C15.8481 12.4884 16.1175 12.7605 16.2539 12.9889C16.3962 13.2271 16.464 13.5158 16.464 13.8009C16.464 14.086 16.3962 14.3747 16.2539 14.6129C16.1175 14.8413 15.8481 15.1134 15.444 15.1134C15.0399 15.1134 14.7705 14.8413 14.634 14.6129C14.4917 14.3747 14.424 14.086 14.424 13.8009C14.424 13.5158 14.4917 13.2271 14.634 12.9889ZM8.67403 12.9889C8.81045 12.7605 9.07986 12.4884 9.48397 12.4884C9.88808 12.4884 10.1575 12.7605 10.2939 12.9889C10.4362 13.2271 10.504 13.5158 10.504 13.8009C10.504 14.086 10.4362 14.3747 10.2939 14.6129C10.1575 14.8413 9.88808 15.1134 9.48397 15.1134C9.07986 15.1134 8.81045 14.8413 8.67403 14.6129C8.53173 14.3747 8.46396 14.086 8.46396 13.8009C8.46396 13.5158 8.53173 13.2271 8.67403 12.9889Z" fill="#2D2D2D"/>
</svg>
