<svg width="25" height="25" viewBox="0 0 25 25" fill="none" xmlns="http://www.w3.org/2000/svg">
<path d="M20.7139 14.2384C20.7139 13.8242 20.3781 13.4884 19.9639 13.4884H16.9639C16.5497 13.4884 16.2139 13.8242 16.2139 14.2384V20.9884H14.7139V4.73837C14.7139 4.01006 14.7123 3.53928 14.6657 3.1924C14.6219 2.86709 14.5513 2.76513 14.4942 2.70804C14.4371 2.65095 14.3352 2.58034 14.0099 2.5366C13.663 2.48996 13.1922 2.48837 12.4639 2.48837C11.7356 2.48837 11.2648 2.48996 10.9179 2.5366C10.5926 2.58034 10.4906 2.65095 10.4335 2.70804C10.3764 2.76513 10.3058 2.86709 10.2621 3.1924C10.2155 3.53928 10.2139 4.01006 10.2139 4.73837V20.9884H8.71387V9.23837C8.71387 8.82416 8.37808 8.48837 7.96387 8.48837H4.96387C4.54966 8.48837 4.21387 8.82416 4.21387 9.23837V20.9884H2.71387H2.46387C2.04966 20.9884 1.71387 21.3242 1.71387 21.7384C1.71387 22.1526 2.04966 22.4884 2.46387 22.4884H22.4639C22.8781 22.4884 23.2139 22.1526 23.2139 21.7384C23.2139 21.3242 22.8781 20.9884 22.4639 20.9884H22.2139H20.7139V14.2384Z" fill="#2D2D2D"/>
</svg>
