<svg width="25" height="25" viewBox="0 0 25 25" fill="none" xmlns="http://www.w3.org/2000/svg">
<path fill-rule="evenodd" clip-rule="evenodd" d="M14.3427 20.9602L13.8006 21.8761C13.3174 22.6924 12.1104 22.6924 11.6272 21.8761L11.0851 20.9602C10.6646 20.2498 10.4544 19.8947 10.1167 19.6982C9.77896 19.5018 9.35379 19.4945 8.50345 19.4799C7.24809 19.4582 6.46076 19.3813 5.80045 19.1078C4.57531 18.6003 3.60194 17.627 3.09447 16.4018C2.71387 15.483 2.71387 14.3181 2.71387 11.9884V10.9884C2.71387 7.71494 2.71387 6.07822 3.45067 4.87588C3.86295 4.2031 4.4286 3.63745 5.10138 3.22517C6.30372 2.48837 7.94044 2.48837 11.2139 2.48837H14.2139C17.4873 2.48837 19.124 2.48837 20.3264 3.22517C20.9992 3.63745 21.5648 4.2031 21.9771 4.87588C22.7139 6.07822 22.7139 7.71494 22.7139 10.9884V11.9884C22.7139 14.3181 22.7139 15.483 22.3333 16.4018C21.8258 17.627 20.8525 18.6003 19.6273 19.1078C18.967 19.3813 18.1797 19.4582 16.9243 19.4799C16.0739 19.4945 15.6488 19.5018 15.3111 19.6982C14.9734 19.8946 14.7631 20.2498 14.3427 20.9602ZM8.71387 12.2384C8.29966 12.2384 7.96387 12.5742 7.96387 12.9884C7.96387 13.4026 8.29966 13.7384 8.71387 13.7384H14.2139C14.6281 13.7384 14.9639 13.4026 14.9639 12.9884C14.9639 12.5742 14.6281 12.2384 14.2139 12.2384H8.71387ZM7.96387 9.48837C7.96387 9.07416 8.29966 8.73837 8.71387 8.73837H16.7139C17.1281 8.73837 17.4639 9.07416 17.4639 9.48837C17.4639 9.90258 17.1281 10.2384 16.7139 10.2384H8.71387C8.29966 10.2384 7.96387 9.90258 7.96387 9.48837Z" fill="#2D2D2D"/>
</svg>
