<svg width="25" height="25" viewBox="0 0 25 25" fill="none" xmlns="http://www.w3.org/2000/svg">
<path fill-rule="evenodd" clip-rule="evenodd" d="M4.17835 3.95284C2.71388 5.4173 2.71388 7.77432 2.71388 12.4884C2.71388 17.2024 2.71388 19.5595 4.17835 21.0239C5.64281 22.4884 7.99983 22.4884 12.7139 22.4884C17.4279 22.4884 19.785 22.4884 21.2494 21.0239C22.7139 19.5595 22.7139 17.2024 22.7139 12.4884C22.7139 7.77432 22.7139 5.4173 21.2494 3.95284C19.785 2.48837 17.4279 2.48837 12.7139 2.48837C7.99983 2.48837 5.64281 2.48837 4.17835 3.95284ZM17.7139 8.73837C18.1281 8.73837 18.4639 9.07416 18.4639 9.48837V18.4884C18.4639 18.9026 18.1281 19.2384 17.7139 19.2384C17.2997 19.2384 16.9639 18.9026 16.9639 18.4884V9.48837C16.9639 9.07416 17.2997 8.73837 17.7139 8.73837ZM13.4639 12.4884C13.4639 12.0742 13.1281 11.7384 12.7139 11.7384C12.2997 11.7384 11.9639 12.0742 11.9639 12.4884V18.4884C11.9639 18.9026 12.2997 19.2384 12.7139 19.2384C13.1281 19.2384 13.4639 18.9026 13.4639 18.4884V12.4884ZM7.71388 14.7384C8.12809 14.7384 8.46388 15.0742 8.46388 15.4884V18.4884C8.46388 18.9026 8.12809 19.2384 7.71388 19.2384C7.29967 19.2384 6.96388 18.9026 6.96388 18.4884V15.4884C6.96388 15.0742 7.29967 14.7384 7.71388 14.7384Z" fill="#2D2D2D"/>
</svg>
