<svg width="25" height="25" viewBox="0 0 25 25" fill="none" xmlns="http://www.w3.org/2000/svg">
<path fill-rule="evenodd" clip-rule="evenodd" d="M12.7139 22.4884C18.2367 22.4884 22.7139 18.0112 22.7139 12.4884C22.7139 6.96552 18.2367 2.48837 12.7139 2.48837C7.19102 2.48837 2.71387 6.96552 2.71387 12.4884C2.71387 14.0881 3.08949 15.6 3.75733 16.9409C3.93481 17.2972 3.99388 17.7045 3.89099 18.089L3.29538 20.3151C3.03682 21.2814 3.92088 22.1654 4.88722 21.9069L7.11326 21.3113C7.4978 21.2084 7.90508 21.2675 8.2614 21.4449C9.60224 22.1128 11.1142 22.4884 12.7139 22.4884ZM8.71387 13.7384C8.29966 13.7384 7.96387 14.0742 7.96387 14.4884C7.96387 14.9026 8.29966 15.2384 8.71387 15.2384H14.2139C14.6281 15.2384 14.9639 14.9026 14.9639 14.4884C14.9639 14.0742 14.6281 13.7384 14.2139 13.7384H8.71387ZM7.96387 10.9884C7.96387 10.5742 8.29966 10.2384 8.71387 10.2384H16.7139C17.1281 10.2384 17.4639 10.5742 17.4639 10.9884C17.4639 11.4026 17.1281 11.7384 16.7139 11.7384H8.71387C8.29966 11.7384 7.96387 11.4026 7.96387 10.9884Z" fill="#2D2D2D"/>
</svg>
