<svg width="25" height="25" viewBox="0 0 25 25" fill="none" xmlns="http://www.w3.org/2000/svg">
<path fill-rule="evenodd" clip-rule="evenodd" d="M22.7139 12.4884C22.7139 18.0112 18.2367 22.4884 12.7139 22.4884C7.19102 22.4884 2.71387 18.0112 2.71387 12.4884C2.71387 6.96552 7.19102 2.48837 12.7139 2.48837C18.2367 2.48837 22.7139 6.96552 22.7139 12.4884ZM16.7442 9.45804C17.0371 9.75093 17.0371 10.2258 16.7442 10.5187L11.7442 15.5187C11.4513 15.8116 10.9765 15.8116 10.6835 15.5187L8.68354 13.5187C8.39065 13.2258 8.39065 12.751 8.68354 12.4581C8.97643 12.1652 9.45131 12.1652 9.7442 12.4581L11.2139 13.9277L13.4487 11.6929L15.6836 9.45804C15.9765 9.16515 16.4513 9.16515 16.7442 9.45804Z" fill="#2D2D2D"/>
</svg>
