<svg width="25" height="25" viewBox="0 0 25 25" fill="none" xmlns="http://www.w3.org/2000/svg">
<path d="M10.2139 2.48837C9.38544 2.48837 8.71387 3.15994 8.71387 3.98837V4.98837C8.71387 5.8168 9.38544 6.48837 10.2139 6.48837H15.2139C16.0423 6.48837 16.7139 5.8168 16.7139 4.98837V3.98837C16.7139 3.15994 16.0423 2.48837 15.2139 2.48837H10.2139Z" fill="#2D2D2D"/>
<path fill-rule="evenodd" clip-rule="evenodd" d="M7.21387 4.52499C5.95596 4.59556 5.16185 4.79601 4.59255 5.36531C3.71387 6.24399 3.71387 7.6582 3.71387 10.4866V16.4867C3.71387 19.3151 3.71387 20.7293 4.59255 21.608C5.47123 22.4867 6.88544 22.4867 9.71387 22.4867H15.7139C18.5423 22.4867 19.9565 22.4867 20.8352 21.608C21.7139 20.7293 21.7139 19.3151 21.7139 16.4867V10.4866C21.7139 7.6582 21.7139 6.24399 20.8352 5.36531C20.2659 4.79601 19.4718 4.59556 18.2139 4.52499V4.98837C18.2139 6.64522 16.8708 7.98837 15.2139 7.98837H10.2139C8.55702 7.98837 7.21387 6.64522 7.21387 4.98837V4.52499ZM7.71387 14.2384C7.29966 14.2384 6.96387 14.5742 6.96387 14.9884C6.96387 15.4026 7.29966 15.7384 7.71387 15.7384H15.7139C16.1281 15.7384 16.4639 15.4026 16.4639 14.9884C16.4639 14.5742 16.1281 14.2384 15.7139 14.2384H7.71387ZM7.71387 17.7384C7.29966 17.7384 6.96387 18.0742 6.96387 18.4884C6.96387 18.9026 7.29966 19.2384 7.71387 19.2384H13.2139C13.6281 19.2384 13.9639 18.9026 13.9639 18.4884C13.9639 18.0742 13.6281 17.7384 13.2139 17.7384H7.71387Z" fill="#2D2D2D"/>
</svg>
