<svg width="25" height="25" viewBox="0 0 25 25" fill="none" xmlns="http://www.w3.org/2000/svg">
<path fill-rule="evenodd" clip-rule="evenodd" d="M12.7139 22.4884C7.99982 22.4884 5.6428 22.4884 4.17834 21.0239C2.71387 19.5595 2.71387 17.2024 2.71387 12.4884C2.71387 7.77432 2.71387 5.4173 4.17834 3.95284C5.6428 2.48837 7.99982 2.48837 12.7139 2.48837C17.4279 2.48837 19.785 2.48837 21.2494 3.95284C22.7139 5.4173 22.7139 7.77432 22.7139 12.4884C22.7139 17.2024 22.7139 19.5595 21.2494 21.0239C19.785 22.4884 17.4279 22.4884 12.7139 22.4884ZM9.68352 9.45804C9.97641 9.16515 10.4513 9.16515 10.7442 9.45804L12.7139 11.4278L14.6835 9.45806C14.9764 9.16517 15.4513 9.16517 15.7442 9.45806C16.0371 9.75095 16.0371 10.2258 15.7442 10.5187L13.7745 12.4884L15.7442 14.4581C16.0371 14.7509 16.0371 15.2258 15.7442 15.5187C15.4513 15.8116 14.9764 15.8116 14.6835 15.5187L12.7139 13.5491L10.7442 15.5187C10.4513 15.8116 9.97643 15.8116 9.68354 15.5187C9.39065 15.2258 9.39065 14.751 9.68354 14.4581L11.6532 12.4884L9.68352 10.5187C9.39063 10.2258 9.39063 9.75093 9.68352 9.45804Z" fill="#2D2D2D"/>
</svg>
