<svg width="25" height="25" viewBox="0 0 25 25" fill="none" xmlns="http://www.w3.org/2000/svg">
<path fill-rule="evenodd" clip-rule="evenodd" d="M22.7139 12.4884C22.7139 18.0112 18.2367 22.4884 12.7139 22.4884C7.19102 22.4884 2.71387 18.0112 2.71387 12.4884C2.71387 6.96552 7.19102 2.48837 12.7139 2.48837C18.2367 2.48837 22.7139 6.96552 22.7139 12.4884ZM9.6835 9.45802C9.97639 9.16513 10.4513 9.16513 10.7442 9.45802L12.7139 11.4277L14.6835 9.45804C14.9764 9.16515 15.4513 9.16515 15.7442 9.45804C16.0371 9.75093 16.0371 10.2258 15.7442 10.5187L13.7745 12.4884L15.7442 14.458C16.0371 14.7509 16.0371 15.2258 15.7442 15.5187C15.4513 15.8116 14.9764 15.8116 14.6835 15.5187L12.7139 13.5491L10.7442 15.5187C10.4513 15.8116 9.97641 15.8116 9.68352 15.5187C9.39063 15.2258 9.39063 14.7509 9.68352 14.4581L11.6532 12.4884L9.6835 10.5187C9.3906 10.2258 9.3906 9.75091 9.6835 9.45802Z" fill="#2D2D2D"/>
</svg>
