<svg width="25" height="25" viewBox="0 0 25 25" fill="none" xmlns="http://www.w3.org/2000/svg">
<path d="M11.9996 22.4884C14.051 22.4884 15.7139 20.9082 15.7139 18.959C15.7139 17.4141 14.6693 16.101 13.2147 15.6228C13.008 13.8595 11.4342 12.4884 9.52339 12.4884C7.47205 12.4884 5.80911 14.0686 5.80911 16.0178C5.80911 16.4489 5.89046 16.862 6.03937 17.2439C5.86474 17.2114 5.68426 17.1943 5.49958 17.1943C3.96108 17.1943 2.71387 18.3794 2.71387 19.8413C2.71387 21.3033 3.96108 22.4884 5.49958 22.4884H11.9996Z" fill="#2D2D2D"/>
<path d="M3.42992 16.2115C3.70783 16.0631 4.00345 15.9439 4.31166 15.8575C4.39996 13.0875 6.76958 10.9884 9.52339 10.9884C9.69572 10.9884 9.86648 10.9966 10.0352 11.0126C9.82667 10.3755 9.71387 9.69512 9.71387 8.98837C9.71387 6.62682 10.9733 4.55942 12.8571 3.42113C13.2531 3.18184 13.1766 2.48837 12.7139 2.48837C7.19102 2.48837 2.71387 6.96552 2.71387 12.4884C2.71387 13.8043 2.96802 15.0608 3.42992 16.2115Z" fill="#2D2D2D"/>
<path d="M22.7139 12.4884C22.7139 16.7542 20.0428 20.3962 16.282 21.8331C16.8666 21.0267 17.2139 20.0411 17.2139 18.959C17.2139 17.588 16.6511 16.3673 15.7573 15.4726C15.9081 15.4831 16.0604 15.4884 16.2139 15.4884C18.5754 15.4884 20.6428 14.229 21.7811 12.3452C22.0204 11.9492 22.7139 12.0257 22.7139 12.4884Z" fill="#2D2D2D"/>
</svg>
