<svg width="25" height="25" viewBox="0 0 25 25" fill="none" xmlns="http://www.w3.org/2000/svg">
<path d="M14.8947 4.76387C15.2948 4.87107 15.5323 5.28233 15.4251 5.68243L11.4515 20.5122C11.3442 20.9123 10.933 21.1497 10.5329 21.0425C10.1328 20.9353 9.89535 20.524 10.0025 20.1239L13.9762 5.2942C14.0834 4.8941 14.4946 4.65666 14.8947 4.76387Z" fill="#2D2D2D"/>
<path d="M17.1564 7.81618C17.4335 7.5083 17.9077 7.48334 18.2156 7.76043L19.9531 9.32417C20.6895 9.98684 21.3003 10.5366 21.7197 11.0351C22.1607 11.5594 22.4742 12.1226 22.4742 12.8179C22.4742 13.5132 22.1607 14.0765 21.7197 14.6007C21.3003 15.0993 20.6895 15.649 19.9531 16.3117L18.2156 17.8754C17.9077 18.1525 17.4335 18.1275 17.1564 17.8197C16.8793 17.5118 16.9043 17.0376 17.2122 16.7605L18.9086 15.2336C19.6965 14.5246 20.2277 14.0442 20.5718 13.6351C20.9021 13.2425 20.9742 13.0134 20.9742 12.8179C20.9742 12.6225 20.9021 12.3933 20.5718 12.0007C20.2277 11.5917 19.6965 11.1113 18.9086 10.4022L17.2122 8.87537C16.9043 8.59828 16.8793 8.12406 17.1564 7.81618Z" fill="#2D2D2D"/>
<path d="M8.21564 8.87537C8.52352 8.59828 8.54848 8.12406 8.27138 7.81618C7.99429 7.5083 7.52007 7.48334 7.21219 7.76043L5.4747 9.32417C4.73836 9.98684 4.12755 10.5366 3.70814 11.0351C3.26711 11.5594 2.95361 12.1226 2.95361 12.8179C2.95361 13.5132 3.26711 14.0765 3.70814 14.6007C4.12755 15.0993 4.73835 15.649 5.47468 16.3116L7.21219 17.8754C7.52007 18.1525 7.99429 18.1275 8.27138 17.8197C8.54848 17.5118 8.52352 17.0376 8.21564 16.7605L6.51917 15.2336C5.73129 14.5246 5.20009 14.0442 4.85599 13.6351C4.52574 13.2425 4.45361 13.0134 4.45361 12.8179C4.45361 12.6225 4.52574 12.3933 4.85599 12.0007C5.20009 11.5917 5.73129 11.1113 6.51917 10.4022L8.21564 8.87537Z" fill="#2D2D2D"/>
</svg>
