<svg width="25" height="25" viewBox="0 0 25 25" fill="none" xmlns="http://www.w3.org/2000/svg">
<path fill-rule="evenodd" clip-rule="evenodd" d="M22.7139 12.4884C22.7139 18.0112 18.2367 22.4884 12.7139 22.4884C7.19102 22.4884 2.71387 18.0112 2.71387 12.4884C2.71387 6.96552 7.19102 2.48837 12.7139 2.48837C18.2367 2.48837 22.7139 6.96552 22.7139 12.4884ZM14.202 6.93428C14.6021 7.04148 14.8395 7.45274 14.7323 7.85284L12.1441 17.5121C12.0369 17.9122 11.6256 18.1497 11.2255 18.0425C10.8254 17.9352 10.588 17.524 10.6952 17.1239L13.2834 7.46461C13.3906 7.06451 13.8019 6.82707 14.202 6.93428ZM15.6836 8.95804C15.9765 8.66515 16.4513 8.66515 16.7442 8.95804L16.9526 9.16638C17.5879 9.80167 18.1177 10.3315 18.4817 10.8086C18.866 11.3122 19.1355 11.8443 19.1355 12.4884C19.1355 13.1325 18.866 13.6646 18.4817 14.1682C18.1177 14.6453 17.5879 15.1751 16.9526 15.8104L16.7442 16.0187C16.4513 16.3116 15.9765 16.3116 15.6836 16.0187C15.3907 15.7258 15.3907 15.251 15.6836 14.9581L15.8551 14.7865C16.5368 14.1048 16.9936 13.6458 17.2892 13.2583C17.5716 12.8882 17.6355 12.6727 17.6355 12.4884C17.6355 12.3041 17.5716 12.0886 17.2892 11.7185C16.9936 11.331 16.5368 10.872 15.8551 10.1903L15.6836 10.0187C15.3907 9.72581 15.3907 9.25094 15.6836 8.95804ZM8.68373 8.95804C8.97662 8.66515 9.45149 8.66515 9.74439 8.95804C10.0373 9.25094 10.0373 9.72581 9.74439 10.0187L9.57281 10.1903C8.89116 10.872 8.43439 11.331 8.13875 11.7185C7.85632 12.0886 7.79248 12.3041 7.79248 12.4884C7.79248 12.6727 7.85632 12.8882 8.13875 13.2583C8.43439 13.6458 8.89116 14.1048 9.57281 14.7865L9.74439 14.9581C10.0373 15.251 10.0373 15.7258 9.74439 16.0187C9.45149 16.3116 8.97662 16.3116 8.68373 16.0187L8.47538 15.8104C7.84004 15.1751 7.31025 14.6453 6.94622 14.1682C6.56198 13.6646 6.29248 13.1325 6.29248 12.4884C6.29248 11.8443 6.56198 11.3122 6.94622 10.8086C7.31025 10.3315 7.84004 9.80168 8.47538 9.16638L8.68373 8.95804Z" fill="#2D2D2D"/>
</svg>
