<svg width="25" height="25" viewBox="0 0 25 25" fill="none" xmlns="http://www.w3.org/2000/svg">
<path d="M9.21564 5.87544C9.52352 5.59834 9.54848 5.12413 9.27138 4.81624C8.99429 4.50836 8.52007 4.4834 8.21219 4.7605L6.4747 6.32424C5.73836 6.9869 5.12755 7.53659 4.70814 8.03516C4.26711 8.55941 3.95361 9.12267 3.95361 9.81797C3.95361 10.5133 4.26711 11.0766 4.70814 11.6008C5.12755 12.0994 5.73835 12.6491 6.47469 13.3117L8.21219 14.8755C8.52007 15.1526 8.99429 15.1276 9.27138 14.8197C9.54848 14.5118 9.52352 14.0376 9.21564 13.7605L7.51917 12.2337C6.73129 11.5246 6.20009 11.0442 5.85599 10.6352C5.52574 10.2426 5.45361 10.0134 5.45361 9.81797C5.45361 9.62254 5.52574 9.39336 5.85599 9.00078C6.20009 8.59175 6.73129 8.11135 7.51917 7.40226L9.21564 5.87544Z" fill="#2D2D2D"/>
<path d="M14.8933 4.76354C15.2936 4.86994 15.5318 5.28071 15.4255 5.68103L11.4386 20.6811C11.3322 21.0814 10.9215 21.3196 10.5212 21.2132C10.1208 21.1068 9.88257 20.6961 9.98897 20.2958L13.9758 5.29572C14.0822 4.89541 14.493 4.65714 14.8933 4.76354Z" fill="#2D2D2D"/>
<path d="M16.1564 10.9867C16.4335 10.6788 16.9077 10.6538 17.2156 10.9309L18.9531 12.4947C19.6895 13.1573 20.3003 13.707 20.7197 14.2056C21.1607 14.7299 21.4742 15.2931 21.4742 15.9884C21.4742 16.6837 21.1607 17.247 20.7197 17.7712C20.3003 18.2698 19.6895 18.8195 18.9531 19.4821L17.2156 21.0459C16.9077 21.323 16.4335 21.298 16.1564 20.9901C15.8793 20.6822 15.9043 20.208 16.2122 19.9309L17.9086 18.4041C18.6965 17.695 19.2277 17.2146 19.5718 16.8056C19.9021 16.413 19.9742 16.1838 19.9742 15.9884C19.9742 15.793 19.9021 15.5638 19.5718 15.1712C19.2277 14.7622 18.6965 14.2818 17.9086 13.5727L16.2122 12.0459C15.9043 11.7688 15.8793 11.2946 16.1564 10.9867Z" fill="#2D2D2D"/>
</svg>
