<svg width="25" height="25" viewBox="0 0 25 25" fill="none" xmlns="http://www.w3.org/2000/svg">
<path d="M15.9539 2.48837H12.0597C10.2955 2.48836 8.89805 2.48834 7.80441 2.63597C6.67888 2.7879 5.76789 3.10801 5.04946 3.82933C4.33104 4.55064 4.0122 5.46529 3.86088 6.59534C3.71384 7.69337 3.71386 9.09639 3.71387 10.8677V16.7053C3.71387 18.2134 4.63382 19.5058 5.94104 20.0476C5.87376 19.1382 5.87381 17.8621 5.87387 16.8004V11.886V11.7908C5.8738 10.5091 5.87373 9.40481 5.99215 8.52048C6.11906 7.57275 6.40526 6.66429 7.13917 5.92743C7.87308 5.19056 8.77791 4.90322 9.72185 4.7758C10.6026 4.65691 11.7026 4.65697 12.9791 4.65704L13.0739 4.65705H15.9539L16.0487 4.65704C17.3252 4.65697 18.4227 4.65691 19.3035 4.7758C18.7766 3.43616 17.4755 2.48837 15.9539 2.48837Z" fill="#2D2D2D"/>
<path d="M7.31396 11.8858C7.31396 9.15956 7.31397 7.79647 8.1575 6.94955C9.00102 6.10263 10.3587 6.10263 13.074 6.10263H15.954C18.6693 6.10263 20.0269 6.10263 20.8705 6.94955C21.714 7.79647 21.714 9.15957 21.714 11.8858V16.7051C21.714 19.4313 21.714 20.7944 20.8705 21.6413C20.0269 22.4882 18.6693 22.4882 15.954 22.4882H13.074C10.3587 22.4882 9.00102 22.4882 8.1575 21.6413C7.31397 20.7944 7.31396 19.4313 7.31396 16.7051V11.8858Z" fill="#2D2D2D"/>
</svg>
