<svg width="25" height="25" viewBox="0 0 25 25" fill="none" xmlns="http://www.w3.org/2000/svg">
<path fill-rule="evenodd" clip-rule="evenodd" d="M8.55695 4.29048C10.5857 3.08907 11.6001 2.48837 12.7139 2.48837C13.8277 2.48837 14.8421 3.08907 16.8708 4.29048L17.557 4.69683C19.5857 5.89824 20.6001 6.49894 21.157 7.48837C21.7139 8.4778 21.7139 9.67921 21.7139 12.0821V12.8947C21.7139 15.2976 21.7139 16.499 21.157 17.4884C20.6001 18.4778 19.5857 19.0785 17.557 20.2799L16.8708 20.6863C14.8421 21.8877 13.8277 22.4884 12.7139 22.4884C11.6001 22.4884 10.5857 21.8877 8.55695 20.6863L7.87079 20.2799C5.84207 19.0785 4.82771 18.4778 4.27079 17.4884C3.71387 16.499 3.71387 15.2976 3.71387 12.8947V12.0821C3.71387 9.67921 3.71387 8.4778 4.27079 7.48837C4.82771 6.49894 5.84207 5.89824 7.87079 4.69683L8.55695 4.29048ZM13.7139 16.4884C13.7139 17.0407 13.2662 17.4884 12.7139 17.4884C12.1616 17.4884 11.7139 17.0407 11.7139 16.4884C11.7139 15.9361 12.1616 15.4884 12.7139 15.4884C13.2662 15.4884 13.7139 15.9361 13.7139 16.4884ZM12.7139 6.73837C13.1281 6.73837 13.4639 7.07416 13.4639 7.48837V13.4884C13.4639 13.9026 13.1281 14.2384 12.7139 14.2384C12.2997 14.2384 11.9639 13.9026 11.9639 13.4884V7.48837C11.9639 7.07416 12.2997 6.73837 12.7139 6.73837Z" fill="#2D2D2D"/>
</svg>
