<svg width="25" height="25" viewBox="0 0 25 25" fill="none" xmlns="http://www.w3.org/2000/svg">
<path fill-rule="evenodd" clip-rule="evenodd" d="M6.02558 11.2499C8.94394 6.07553 10.4031 3.48837 12.7139 3.48837C15.0246 3.48837 16.4838 6.07553 19.4022 11.2499L19.7658 11.8947C22.191 16.1945 23.4036 18.3444 22.3076 19.9164C21.2117 21.4884 18.5003 21.4884 13.0776 21.4884H12.3502C6.92743 21.4884 4.21604 21.4884 3.12013 19.9164C2.02421 18.3444 3.23678 16.1945 5.66192 11.8947L6.02558 11.2499ZM12.7139 7.73837C13.1281 7.73837 13.4639 8.07416 13.4639 8.48837V13.4884C13.4639 13.9026 13.1281 14.2384 12.7139 14.2384C12.2997 14.2384 11.9639 13.9026 11.9639 13.4884V8.48837C11.9639 8.07416 12.2997 7.73837 12.7139 7.73837ZM12.7139 17.4884C13.2662 17.4884 13.7139 17.0407 13.7139 16.4884C13.7139 15.9361 13.2662 15.4884 12.7139 15.4884C12.1616 15.4884 11.7139 15.9361 11.7139 16.4884C11.7139 17.0407 12.1616 17.4884 12.7139 17.4884Z" fill="#2D2D2D"/>
</svg>
