<svg width="25" height="25" viewBox="0 0 25 25" fill="none" xmlns="http://www.w3.org/2000/svg">
<path fill-rule="evenodd" clip-rule="evenodd" d="M11.2626 22.0161L11.5127 21.5937C11.9135 20.9166 12.1138 20.5781 12.433 20.3893C12.7522 20.2004 13.1686 20.1871 14.0013 20.1605C14.7821 20.1355 15.3069 20.0674 15.7556 19.8815C16.7003 19.4902 17.4508 18.7397 17.8421 17.795C18.1356 17.0865 18.1356 16.1883 18.1356 14.3919V13.6208C18.1356 11.0967 18.1356 9.8346 17.5675 8.90748C17.2496 8.38871 16.8134 7.95254 16.2946 7.63464C15.3675 7.06651 14.1055 7.0665 11.5814 7.0665H9.26809C6.744 7.0665 5.48195 7.06651 4.55484 7.63464C4.03607 7.95254 3.59991 8.38871 3.282 8.90748C2.71387 9.8346 2.71387 11.0967 2.71387 13.6208V14.3919C2.71387 16.1883 2.71387 17.0865 3.00735 17.795C3.39865 18.7397 4.1492 19.4902 5.09389 19.8815C5.54258 20.0674 6.06735 20.1355 6.84814 20.1605C7.68085 20.1871 8.09721 20.2004 8.4164 20.3893C8.73559 20.5781 8.93597 20.9166 9.33672 21.5937L9.58678 22.0161C9.95934 22.6456 10.8901 22.6456 11.2626 22.0161ZM13.7982 14.7774C14.3306 14.7774 14.7621 14.3458 14.7621 13.8135C14.7621 13.2812 14.3306 12.8497 13.7982 12.8497C13.2659 12.8497 12.8344 13.2812 12.8344 13.8135C12.8344 14.3458 13.2659 14.7774 13.7982 14.7774ZM11.3886 13.8135C11.3886 14.3458 10.9571 14.7774 10.4247 14.7774C9.89239 14.7774 9.46086 14.3458 9.46086 13.8135C9.46086 13.2812 9.89239 12.8497 10.4247 12.8497C10.9571 12.8497 11.3886 13.2812 11.3886 13.8135ZM7.05122 14.7774C7.58354 14.7774 8.01508 14.3458 8.01508 13.8135C8.01508 13.2812 7.58354 12.8497 7.05122 12.8497C6.5189 12.8497 6.08736 13.2812 6.08736 13.8135C6.08736 14.3458 6.5189 14.7774 7.05122 14.7774Z" fill="#2D2D2D"/>
<path d="M15.8834 2.48837C17.0352 2.48836 17.951 2.48836 18.6855 2.55819C19.4387 2.6298 20.0755 2.77991 20.6427 3.12752C21.2263 3.48517 21.717 3.97585 22.0746 4.55947C22.4223 5.12673 22.5724 5.76351 22.644 6.51666C22.7138 7.25116 22.7138 8.16708 22.7138 9.31876V10.1054C22.7138 10.9251 22.7138 11.577 22.6777 12.1057C22.6408 12.6465 22.5638 13.111 22.3836 13.5459C21.9434 14.6086 21.0991 15.453 20.0363 15.8932C20.0097 15.9042 19.983 15.9149 19.9561 15.9251C19.8278 15.9742 19.718 16.0162 19.6215 16.0475C19.6355 15.5787 19.6355 15.0447 19.6355 14.4421V13.5498C19.6355 12.3482 19.6355 11.3416 19.5577 10.5233C19.4763 9.66654 19.2991 8.86258 18.8463 8.12373C18.4047 7.40312 17.7989 6.79726 17.0783 6.35567C16.3394 5.9029 15.5355 5.7257 14.6787 5.64425C13.8604 5.56644 12.8538 5.56646 11.6522 5.56649H9.1971C8.38101 5.56647 7.65489 5.56646 7.0166 5.59082C7.04634 5.48777 7.08708 5.36965 7.1349 5.23101C7.21624 4.99519 7.31903 4.77218 7.44938 4.55947C7.80702 3.97585 8.2977 3.48517 8.88132 3.12752C9.44857 2.77991 10.0854 2.6298 10.8385 2.55819C11.573 2.48836 12.4888 2.48836 13.6406 2.48837H15.8834Z" fill="#2D2D2D"/>
</svg>
