<svg width="25" height="25" viewBox="0 0 25 25" fill="none" xmlns="http://www.w3.org/2000/svg">
<path d="M17.2328 16.9897C17.4078 16.8532 17.5665 16.6945 17.884 16.377L21.8414 12.4196C21.937 12.324 21.8932 12.1592 21.7654 12.1148C21.2983 11.9528 20.6906 11.6485 20.1222 11.0801C19.5538 10.5117 19.2495 9.90398 19.0875 9.43686C19.0431 9.30903 18.8783 9.26524 18.7827 9.36091L14.8253 13.3183C14.5078 13.6358 14.3491 13.7945 14.2126 13.9695C14.0516 14.176 13.9135 14.3993 13.8009 14.6357C13.7054 14.836 13.6344 15.049 13.4925 15.4749L13.309 16.0252L13.0173 16.9002L12.7438 17.7207C12.674 17.9303 12.7285 18.1613 12.8847 18.3176C13.041 18.4738 13.272 18.5283 13.4816 18.4585L14.3021 18.185L15.1771 17.8933L15.7274 17.7098C16.1532 17.5679 16.3663 17.4969 16.5666 17.4014C16.803 17.2888 17.0263 17.1507 17.2328 16.9897Z" fill="#2D2D2D"/>
<path d="M23.0804 11.1806C23.9251 10.3359 23.9251 8.96649 23.0804 8.12185C22.2358 7.27721 20.8664 7.27721 20.0217 8.12185L19.8945 8.24908C19.7717 8.37185 19.7161 8.54333 19.7468 8.71423C19.7661 8.82173 19.8018 8.9789 19.8669 9.16644C19.997 9.54151 20.2427 10.0339 20.7056 10.4967C21.1684 10.9596 21.6608 11.2053 22.0358 11.3354C22.2234 11.4005 22.3805 11.4362 22.488 11.4555C22.6589 11.4862 22.8304 11.4306 22.9532 11.3078L23.0804 11.1806Z" fill="#2D2D2D"/>
<path fill-rule="evenodd" clip-rule="evenodd" d="M4.88544 3.65994C3.71387 4.83152 3.71387 6.71713 3.71387 10.4884V14.4884C3.71387 18.2596 3.71387 20.1453 4.88544 21.3168C6.05702 22.4884 7.94263 22.4884 11.7139 22.4884H13.7139C17.4851 22.4884 19.3708 22.4884 20.5423 21.3168C21.6951 20.164 21.7136 18.32 21.7139 14.6685L18.8956 17.4868C18.6258 17.7567 18.4049 17.9778 18.1554 18.1725C17.863 18.4005 17.5467 18.596 17.212 18.7555C16.9263 18.8916 16.6298 18.9904 16.2677 19.1109L13.956 19.8815C13.2074 20.131 12.3821 19.9362 11.8241 19.3782C11.2662 18.8202 11.0713 17.9949 11.3209 17.2463L11.5944 16.4259L12.0695 15.0005L12.0914 14.9347C12.212 14.5726 12.3107 14.276 12.4468 13.9903C12.6063 13.6556 12.8018 13.3393 13.0299 13.047C13.2245 12.7974 13.4456 12.5765 13.7156 12.3067L17.722 8.30025L18.8339 7.18841L18.9611 7.06119C19.6765 6.34578 20.6142 5.98818 21.5519 5.98837C21.4006 4.95782 21.108 4.22564 20.5423 3.65994C19.3708 2.48837 17.4851 2.48837 13.7139 2.48837H11.7139C7.94263 2.48837 6.05702 2.48837 4.88544 3.65994ZM7.96387 9.48837C7.96387 9.07416 8.29966 8.73837 8.71387 8.73837H15.2139C15.6281 8.73837 15.9639 9.07416 15.9639 9.48837C15.9639 9.90258 15.6281 10.2384 15.2139 10.2384H8.71387C8.29966 10.2384 7.96387 9.90258 7.96387 9.48837ZM7.96387 13.4884C7.96387 13.0742 8.29966 12.7384 8.71387 12.7384H11.2139C11.6281 12.7384 11.9639 13.0742 11.9639 13.4884C11.9639 13.9026 11.6281 14.2384 11.2139 14.2384H8.71387C8.29966 14.2384 7.96387 13.9026 7.96387 13.4884ZM7.96387 17.4884C7.96387 17.0742 8.29966 16.7384 8.71387 16.7384H10.2139C10.6281 16.7384 10.9639 17.0742 10.9639 17.4884C10.9639 17.9026 10.6281 18.2384 10.2139 18.2384H8.71387C8.29966 18.2384 7.96387 17.9026 7.96387 17.4884Z" fill="#2D2D2D"/>
</svg>
