<svg width="25" height="25" viewBox="0 0 25 25" fill="none" xmlns="http://www.w3.org/2000/svg">
<path fill-rule="evenodd" clip-rule="evenodd" d="M5.14444 11.0003C5.41401 10.6858 5.88748 10.6494 6.20198 10.919L12.7139 16.5006L19.2258 10.919C19.5403 10.6494 20.0138 10.6858 20.2834 11.0003C20.5529 11.3148 20.5165 11.7883 20.202 12.0578L13.202 18.0578C12.9211 18.2986 12.5067 18.2986 12.2258 18.0578L5.22579 12.0578C4.9113 11.7883 4.87487 11.3148 5.14444 11.0003Z" fill="#2D2D2D"/>
<path d="M5.7139 6.73837C5.40004 6.73837 5.11938 6.9338 5.01049 7.22816C4.90159 7.52252 4.98751 7.85356 5.22581 8.05781L12.2259 14.0578C12.5067 14.2986 12.9212 14.2986 13.202 14.0578L20.202 8.05781C20.4403 7.85356 20.5263 7.52252 20.4174 7.22816C20.3085 6.9338 20.0278 6.73837 19.7139 6.73837H5.7139Z" fill="#2D2D2D"/>
</svg>
