<svg width="25" height="25" viewBox="0 0 25 25" fill="none" xmlns="http://www.w3.org/2000/svg">
<path fill-rule="evenodd" clip-rule="evenodd" d="M5.14444 13.9765C5.41401 14.291 5.88748 14.3274 6.20198 14.0578L12.7139 8.47619L19.2258 14.0578C19.5403 14.3274 20.0138 14.291 20.2834 13.9765C20.5529 13.662 20.5165 13.1885 20.202 12.919L13.202 6.91894C12.9211 6.67819 12.5067 6.67819 12.2258 6.91894L5.22579 12.919C4.9113 13.1885 4.87487 13.662 5.14444 13.9765Z" fill="#2D2D2D"/>
<path d="M5.7139 18.2384C5.40004 18.2384 5.11938 18.043 5.01049 17.7486C4.90159 17.4542 4.98751 17.1232 5.22581 16.919L12.2259 10.919C12.5067 10.6782 12.9212 10.6782 13.202 10.919L20.202 16.919C20.4403 17.1232 20.5263 17.4542 20.4174 17.7486C20.3085 18.043 20.0278 18.2384 19.7139 18.2384H5.7139Z" fill="#2D2D2D"/>
</svg>
