<svg width="25" height="25" viewBox="0 0 25 25" fill="none" xmlns="http://www.w3.org/2000/svg">
<path d="M8.71387 13.9666V13.3501C8.71387 13.3501 8.71387 11.8847 12.7139 11.8847C16.7139 11.8847 16.7139 13.3501 16.7139 13.3501V13.7384C16.7139 14.6948 17.4366 15.5076 18.4143 15.6509L20.4143 15.944C21.6244 16.1213 22.7139 15.2151 22.7139 14.0313V11.9067C22.7139 11.3197 22.5301 10.7426 22.0842 10.3444C20.9435 9.32569 18.1347 7.48837 12.7139 7.48837C6.96528 7.48837 4.15414 10.0711 3.1547 11.2773C2.83857 11.6588 2.71387 12.1409 2.71387 12.6298V14.5527C2.71387 15.8507 4.00948 16.7804 5.29384 16.404L7.29384 15.8179C8.13716 15.5707 8.71387 14.8189 8.71387 13.9666Z" fill="#2D2D2D"/>
</svg>
