<svg width="25" height="25" viewBox="0 0 25 25" fill="none" xmlns="http://www.w3.org/2000/svg">
<path d="M14.7139 3.23837C16.6207 3.23837 17.9754 3.23996 19.0031 3.37813C20.0091 3.5134 20.5888 3.76706 21.012 4.19027C21.4991 4.67741 21.7112 5.05503 21.8286 5.72821C21.961 6.48697 21.9639 7.56929 21.9639 9.48837C21.9639 9.90259 22.2997 10.2384 22.7139 10.2384C23.1281 10.2384 23.4639 9.90259 23.4639 9.48837V9.39206C23.464 7.59287 23.464 6.37408 23.3063 5.47036C23.1309 4.46502 22.7571 3.81405 22.0727 3.12961C21.3243 2.38125 20.3754 2.04913 19.2029 1.89151C18.0637 1.73834 16.6081 1.73835 14.7703 1.73837H14.7139C14.2997 1.73837 13.9639 2.07416 13.9639 2.48837C13.9639 2.90258 14.2997 3.23837 14.7139 3.23837Z" fill="#2D2D2D"/>
<path d="M2.71388 14.7384C3.12809 14.7384 3.46388 15.0742 3.46388 15.4884C3.46388 17.4075 3.46676 18.4898 3.59916 19.2486C3.71662 19.9217 3.92864 20.2994 4.41578 20.7865C4.83899 21.2097 5.41863 21.4634 6.42472 21.5986C7.45239 21.7368 8.80705 21.7384 10.7139 21.7384C11.1281 21.7384 11.4639 22.0742 11.4639 22.4884C11.4639 22.9026 11.1281 23.2384 10.7139 23.2384H10.6575C8.8197 23.2384 7.36407 23.2384 6.22485 23.0853C5.05243 22.9276 4.10348 22.5955 3.35512 21.8472C2.67068 21.1627 2.29691 20.5117 2.12149 19.5064C1.96379 18.6027 1.96382 17.3839 1.96387 15.5848L1.96388 15.4884C1.96388 15.0742 2.29966 14.7384 2.71388 14.7384Z" fill="#2D2D2D"/>
<path d="M22.7139 14.7384C23.1281 14.7384 23.4639 15.0742 23.4639 15.4884V15.5847C23.464 17.3839 23.464 18.6027 23.3063 19.5064C23.1309 20.5117 22.7571 21.1627 22.0727 21.8472C21.3243 22.5955 20.3754 22.9276 19.2029 23.0853C18.0637 23.2384 16.6081 23.2384 14.7703 23.2384H14.7139C14.2997 23.2384 13.9639 22.9026 13.9639 22.4884C13.9639 22.0742 14.2997 21.7384 14.7139 21.7384C16.6207 21.7384 17.9754 21.7368 19.0031 21.5986C20.0091 21.4634 20.5888 21.2097 21.012 20.7865C21.4991 20.2994 21.7112 19.9217 21.8286 19.2486C21.961 18.4898 21.9639 17.4075 21.9639 15.4884C21.9639 15.0742 22.2997 14.7384 22.7139 14.7384Z" fill="#2D2D2D"/>
<path d="M10.6575 1.73837H10.7139C11.1281 1.73837 11.4639 2.07416 11.4639 2.48837C11.4639 2.90258 11.1281 3.23837 10.7139 3.23837C8.80706 3.23837 7.45239 3.23996 6.42472 3.37813C5.41863 3.5134 4.83899 3.76706 4.41578 4.19027C3.92864 4.67741 3.71662 5.05503 3.59916 5.72821C3.46676 6.48697 3.46388 7.56929 3.46388 9.48837C3.46388 9.90259 3.12809 10.2384 2.71388 10.2384C2.29966 10.2384 1.96388 9.90259 1.96388 9.48837L1.96387 9.39206C1.96382 7.5929 1.96379 6.37407 2.12149 5.47036C2.29691 4.46502 2.67068 3.81405 3.35512 3.12961C4.10348 2.38125 5.05243 2.04913 6.22485 1.89151C7.36406 1.73834 8.81971 1.73835 10.6575 1.73837Z" fill="#2D2D2D"/>
<path d="M12.7139 11.2384C12.0235 11.2384 11.4639 11.798 11.4639 12.4884C11.4639 13.1788 12.0235 13.7384 12.7139 13.7384C13.4043 13.7384 13.9639 13.1788 13.9639 12.4884C13.9639 11.798 13.4043 11.2384 12.7139 11.2384Z" fill="#2D2D2D"/>
<path fill-rule="evenodd" clip-rule="evenodd" d="M6.60629 14.5482C6.01134 13.8581 5.71387 13.513 5.71387 12.4884C5.71387 11.4638 6.01134 11.1187 6.60629 10.4286C7.79424 9.0506 9.78655 7.48837 12.7139 7.48837C15.6412 7.48837 17.6335 9.05059 18.8215 10.4286C19.4164 11.1187 19.7139 11.4638 19.7139 12.4884C19.7139 13.513 19.4164 13.8581 18.8215 14.5482C17.6335 15.9262 15.6412 17.4884 12.7139 17.4884C9.78655 17.4884 7.79424 15.9262 6.60629 14.5482ZM9.96387 12.4884C9.96387 10.9696 11.1951 9.73837 12.7139 9.73837C14.2327 9.73837 15.4639 10.9696 15.4639 12.4884C15.4639 14.0072 14.2327 15.2384 12.7139 15.2384C11.1951 15.2384 9.96387 14.0072 9.96387 12.4884Z" fill="#2D2D2D"/>
</svg>
