<svg width="25" height="25" viewBox="0 0 25 25" fill="none" xmlns="http://www.w3.org/2000/svg">
<path fill-rule="evenodd" clip-rule="evenodd" d="M2.3199 6.56899C2.82753 6.35144 3.41541 6.58659 3.63297 7.09422L2.71382 7.48814C3.63297 7.09422 3.63311 7.09455 3.63297 7.09422L3.63245 7.09302C3.63217 7.09237 3.63238 7.09284 3.63245 7.09302L3.63637 7.10188C3.64038 7.1109 3.64726 7.12622 3.65706 7.14742C3.67665 7.18984 3.70784 7.25572 3.75083 7.34171C3.83689 7.51383 3.96981 7.76559 4.15124 8.0704C4.51524 8.68192 5.06826 9.49638 5.82162 10.3077C5.99919 10.4989 6.18711 10.6893 6.3856 10.8762C6.3939 10.8838 6.4021 10.8915 6.4102 10.8993C7.89489 12.2896 9.96614 13.4882 12.7139 13.4882C13.9228 13.4882 14.9922 13.2574 15.9348 12.8864C17.1608 12.4038 18.1884 11.6773 19.0295 10.8879C19.9791 9.99652 20.6766 9.03818 21.1371 8.29913C21.3665 7.93105 21.5346 7.62132 21.6438 7.40723C21.6983 7.30029 21.738 7.21756 21.763 7.16375C21.7756 7.13685 21.7845 7.11721 21.7897 7.10541L21.7947 7.09422C22.0124 6.58687 22.6003 6.35149 23.1078 6.56899C23.6154 6.78655 23.8506 7.37443 23.633 7.88206L22.7139 7.48814C23.633 7.88206 23.6331 7.88183 23.633 7.88206L23.6308 7.88708L23.6273 7.8953L23.6158 7.92115C23.6063 7.94247 23.5929 7.97191 23.5757 8.00885C23.5413 8.08271 23.4913 8.18668 23.4254 8.31587C23.2938 8.57403 23.0979 8.93421 22.8345 9.35681C22.4319 10.003 21.8659 10.8044 21.1235 11.6125L21.921 12.4099C22.3115 12.8004 22.3115 13.4336 21.921 13.8241C21.5304 14.2146 20.8973 14.2146 20.5067 13.8241L19.6666 12.9839C19.1023 13.4397 18.4709 13.8695 17.7697 14.2404L18.552 15.4428C18.8532 15.9057 18.7222 16.5251 18.2592 16.8264C17.7963 17.1276 17.1769 16.9965 16.8757 16.5336L15.8902 15.019C15.2112 15.2272 14.4859 15.3747 13.7139 15.4438V16.9882C13.7139 17.5405 13.2661 17.9882 12.7139 17.9882C12.1616 17.9882 11.7139 17.5405 11.7139 16.9882V15.444C10.9392 15.3748 10.214 15.227 9.53721 15.0194L8.55201 16.5336C8.2508 16.9965 7.63135 17.1276 7.16844 16.8264C6.70552 16.5251 6.57443 15.9057 6.87564 15.4428L7.65804 14.2403C6.95792 13.8698 6.32632 13.4399 5.76133 12.9837L4.92093 13.8241C4.53041 14.2146 3.89724 14.2146 3.50672 13.8241C3.11619 13.4336 3.11619 12.8004 3.50672 12.4099L4.30416 11.6125C3.45916 10.6927 2.84159 9.78037 2.43266 9.09337C2.22347 8.74193 2.06732 8.44682 1.96197 8.23613C1.90926 8.13071 1.86916 8.0462 1.84139 7.98608C1.8275 7.95602 1.81669 7.93203 1.80892 7.91455L1.79953 7.89327L1.79654 7.88638L1.79547 7.8839L1.79504 7.8829C1.79485 7.88246 1.79468 7.88206 2.71382 7.48814L1.79504 7.8829C1.57748 7.37527 1.81227 6.78655 2.3199 6.56899Z" fill="#2D2D2D"/>
</svg>
