<svg width="25" height="25" viewBox="0 0 25 25" fill="none" xmlns="http://www.w3.org/2000/svg">
<path d="M10.4639 12.4884C10.4639 11.2458 11.4713 10.2384 12.7139 10.2384C13.9565 10.2384 14.9639 11.2458 14.9639 12.4884C14.9639 13.731 13.9565 14.7384 12.7139 14.7384C11.4713 14.7384 10.4639 13.731 10.4639 12.4884Z" fill="#2D2D2D"/>
<path fill-rule="evenodd" clip-rule="evenodd" d="M2.71387 12.4884C2.71387 14.1278 3.13883 14.6799 3.98876 15.7841C5.68583 17.9888 8.53198 20.4884 12.7139 20.4884C16.8958 20.4884 19.7419 17.9888 21.439 15.7841C22.2889 14.6799 22.7139 14.1278 22.7139 12.4884C22.7139 10.849 22.2889 10.2969 21.439 9.1927C19.7419 6.98793 16.8958 4.48837 12.7139 4.48837C8.53198 4.48837 5.68583 6.98793 3.98876 9.1927C3.13883 10.2969 2.71387 10.849 2.71387 12.4884ZM12.7139 8.73837C10.6428 8.73837 8.96387 10.4173 8.96387 12.4884C8.96387 14.5595 10.6428 16.2384 12.7139 16.2384C14.785 16.2384 16.4639 14.5595 16.4639 12.4884C16.4639 10.4173 14.785 8.73837 12.7139 8.73837Z" fill="#2D2D2D"/>
</svg>
