<svg width="25" height="25" viewBox="0 0 25 25" fill="none" xmlns="http://www.w3.org/2000/svg">
<path d="M20.0656 8.10503L16.1068 4.54213C14.979 3.52706 14.4151 3.01952 13.7231 2.754L13.7139 5.48849C13.7139 7.84551 13.7139 9.02402 14.4461 9.75625C15.1784 10.4885 16.3569 10.4885 18.7139 10.4885H22.294C21.9314 9.78426 21.2823 9.20002 20.0656 8.10503Z" fill="#2D2D2D"/>
<path fill-rule="evenodd" clip-rule="evenodd" d="M10.7139 22.4884H14.7139C18.4851 22.4884 20.3708 22.4884 21.5423 21.3168C22.7139 20.1453 22.7139 18.2596 22.7139 14.4884V14.0513C22.7139 13.1785 22.7139 12.5228 22.6713 11.9885H18.7139H18.619C17.5219 11.9886 16.5524 11.9887 15.7708 11.8836C14.9237 11.7697 14.0767 11.5082 13.3855 10.8169C12.6942 10.1256 12.4327 9.27865 12.3188 8.43153C12.2137 7.65001 12.2138 6.68044 12.2139 5.58334L12.2231 2.74894C12.2234 2.6665 12.2305 2.58496 12.2439 2.50503C11.8353 2.48837 11.3497 2.48837 10.7437 2.48837C6.95256 2.48837 5.05702 2.48837 3.88544 3.65994C2.71387 4.83152 2.71387 6.71713 2.71387 10.4884V14.4884C2.71387 18.2596 2.71387 20.1453 3.88544 21.3168C5.05702 22.4884 6.94263 22.4884 10.7139 22.4884ZM8.70091 19.5356C8.98941 19.806 9.43833 19.806 9.72683 19.5356L11.7269 17.6606C12.029 17.3773 12.0444 16.9026 11.7611 16.6004C11.4778 16.2983 11.0031 16.2829 10.7009 16.5662L9.96387 17.2572V13.9884C9.96387 13.5742 9.62808 13.2384 9.21387 13.2384C8.79966 13.2384 8.46387 13.5742 8.46387 13.9884V17.2572L7.72683 16.5662C7.42464 16.2829 6.95002 16.2983 6.66672 16.6004C6.38342 16.9026 6.39873 17.3773 6.70091 17.6606L8.70091 19.5356Z" fill="#2D2D2D"/>
</svg>
