<svg width="25" height="25" viewBox="0 0 25 25" fill="none" xmlns="http://www.w3.org/2000/svg">
<path d="M20.0656 8.10503L16.1068 4.54213C14.979 3.52706 14.4151 3.01952 13.7231 2.754L13.7139 5.48849C13.7139 7.84551 13.7139 9.02402 14.4461 9.75625C15.1784 10.4885 16.3569 10.4885 18.7139 10.4885H22.294C21.9314 9.78426 21.2823 9.20002 20.0656 8.10503Z" fill="#2D2D2D"/>
<path fill-rule="evenodd" clip-rule="evenodd" d="M10.7139 22.4884H14.7139C18.4851 22.4884 20.3708 22.4884 21.5423 21.3168C22.7139 20.1453 22.7139 18.2596 22.7139 14.4884V14.0513C22.7139 13.1785 22.7139 12.5228 22.6713 11.9885H18.7139H18.619C17.5219 11.9886 16.5524 11.9887 15.7708 11.8836C14.9237 11.7697 14.0767 11.5082 13.3855 10.8169C12.6942 10.1256 12.4327 9.27865 12.3188 8.43153C12.2137 7.65001 12.2138 6.68044 12.2139 5.58334L12.2231 2.74894C12.2234 2.6665 12.2305 2.58496 12.2439 2.50503C11.8353 2.48837 11.3497 2.48837 10.7437 2.48837C6.95256 2.48837 5.05702 2.48837 3.88544 3.65994C2.71387 4.83152 2.71387 6.71713 2.71387 10.4884V14.4884C2.71387 18.2596 2.71387 20.1453 3.88544 21.3168C5.05702 22.4884 6.94263 22.4884 10.7139 22.4884ZM9.72683 13.4412C9.43833 13.1708 8.98941 13.1708 8.70091 13.4412L6.70091 15.3162C6.39873 15.5995 6.38342 16.0742 6.66672 16.3764C6.95002 16.6785 7.42464 16.6939 7.72683 16.4106L8.46387 15.7196V18.9884C8.46387 19.4026 8.79966 19.7384 9.21387 19.7384C9.62808 19.7384 9.96387 19.4026 9.96387 18.9884V15.7196L10.7009 16.4106C11.0031 16.6939 11.4778 16.6785 11.7611 16.3764C12.0444 16.0742 12.029 15.5995 11.7269 15.3162L9.72683 13.4412Z" fill="#2D2D2D"/>
</svg>
