<svg width="25" height="25" viewBox="0 0 25 25" fill="none" xmlns="http://www.w3.org/2000/svg">
<path d="M19.7139 3.48837H5.71387C4.29966 3.48837 3.59255 3.48837 3.15321 3.90057C2.71387 4.31277 2.71387 4.97619 2.71387 6.30303V6.99285C2.71387 8.03069 2.71387 8.54961 2.97347 8.97979C3.23307 9.40997 3.70734 9.67695 4.65589 10.2109L7.56891 11.8508C8.20533 12.209 8.52354 12.3882 8.75138 12.586C9.22586 12.9979 9.51795 13.4819 9.65031 14.0756C9.71387 14.3606 9.71387 14.6942 9.71387 15.3613V18.0308C9.71387 18.9404 9.71387 19.3951 9.96579 19.7497C10.2177 20.1042 10.6651 20.2791 11.5601 20.629C13.4387 21.3634 14.378 21.7306 15.046 21.3128C15.7139 20.895 15.7139 19.9403 15.7139 18.0308V15.3613C15.7139 14.6942 15.7139 14.3606 15.7775 14.0756C15.9098 13.4819 16.2019 12.9979 16.6764 12.586C16.9042 12.3882 17.2224 12.209 17.8589 11.8508L20.7719 10.2109C21.7204 9.67695 22.1947 9.40997 22.4543 8.97979C22.7139 8.54961 22.7139 8.03069 22.7139 6.99285V6.30303C22.7139 4.97619 22.7139 4.31277 22.2746 3.90057C21.8352 3.48837 21.1281 3.48837 19.7139 3.48837Z" fill="#2D2D2D"/>
</svg>
