<svg width="25" height="25" viewBox="0 0 25 25" fill="none" xmlns="http://www.w3.org/2000/svg">
<path d="M6.46387 1.48837C6.87808 1.48837 7.21387 1.82416 7.21387 2.23837V4.08837L8.93454 3.74424C10.5851 3.41413 12.296 3.57121 13.8588 4.19634L14.0625 4.2778C15.6236 4.90226 17.3419 5.01888 18.9731 4.61107C19.7304 4.42176 20.4639 4.9945 20.4639 5.77506V13.1421C20.4639 13.7864 20.0254 14.348 19.4003 14.5043L19.1859 14.5579C17.4163 15.0003 15.5524 14.8738 13.8588 14.1964C12.296 13.5712 10.5851 13.4142 8.93454 13.7443L7.21387 14.0884V22.2384C7.21387 22.6526 6.87808 22.9884 6.46387 22.9884C6.04966 22.9884 5.71387 22.6526 5.71387 22.2384V2.23837C5.71387 1.82416 6.04966 1.48837 6.46387 1.48837Z" fill="#2D2D2D"/>
</svg>
