<svg width="25" height="25" viewBox="0 0 25 25" fill="none" xmlns="http://www.w3.org/2000/svg">
<path d="M14.669 5.67178L19.6468 10.0965C20.5774 10.9237 21.0427 11.3373 21.2141 11.8257C21.3647 12.2546 21.3647 12.7219 21.2141 13.1508C21.0427 13.6392 20.5774 14.0528 19.6468 14.88L14.669 19.3047C14.2467 19.6801 14.0355 19.8678 13.8562 19.8745C13.7004 19.8803 13.5508 19.8131 13.4516 19.6928C13.3375 19.5543 13.3375 19.2718 13.3375 18.7068V15.9168C10.9094 15.9168 8.3448 16.6967 6.47218 18.081C5.49729 18.8017 5.00982 19.1621 4.82416 19.1479C4.64319 19.134 4.52833 19.0634 4.43443 18.908C4.3381 18.7487 4.42319 18.2508 4.59336 17.255C5.69833 10.7888 10.1483 9.05966 13.3375 9.05966V6.26971C13.3375 5.70469 13.3375 5.42218 13.4516 5.28368C13.5508 5.16335 13.7004 5.09617 13.8562 5.102C14.0355 5.10871 14.2467 5.2964 14.669 5.67178Z" fill="#2D2D2D"/>
</svg>
