<svg width="25" height="25" viewBox="0 0 25 25" fill="none" xmlns="http://www.w3.org/2000/svg">
<path d="M22.7137 13.1862C22.7122 14.6558 22.701 15.9049 22.6175 16.9298C22.5206 18.1192 22.322 19.113 21.8775 19.9384C21.6815 20.3024 21.4406 20.6285 21.1473 20.9218C20.3149 21.7541 19.2544 22.1312 17.9105 22.3119C16.5974 22.4884 14.9146 22.4884 12.7673 22.4884H12.6605C10.5132 22.4884 8.83033 22.4884 7.51732 22.3119C6.17338 22.1312 5.11289 21.7541 4.28051 20.9218C3.54258 20.1838 3.1615 19.2654 2.95885 18.126C2.75978 17.0068 2.72336 15.6143 2.71579 13.8851C2.71387 13.4453 2.71387 12.9801 2.71387 12.4893V12.435C2.71386 10.2877 2.71385 8.60484 2.89038 7.29183C3.07107 5.94789 3.44813 4.8874 4.28051 4.05502C5.11289 3.22264 6.17338 2.84558 7.51732 2.66489C8.68498 2.5079 10.1873 2.49053 12.0159 2.48862C12.4012 2.48821 12.7139 2.80074 12.7139 3.18605C12.7139 3.57137 12.4011 3.88358 12.0158 3.88399C10.1614 3.88595 8.78138 3.90284 7.70324 4.04779C6.51403 4.20768 5.79708 4.51177 5.26717 5.04168C4.73726 5.57159 4.43317 6.28854 4.27328 7.47775C4.1107 8.68704 4.10922 10.2761 4.10922 12.4884C4.10922 12.7586 4.10922 13.0198 4.10954 13.2728L5.04083 12.458C5.88852 11.7162 7.16612 11.7588 7.96259 12.5552L11.9531 16.5457C12.5924 17.185 13.5987 17.2721 14.3384 16.7523L14.6158 16.5573C15.6802 15.8093 17.1203 15.896 18.0873 16.7663L20.7203 19.136C20.9853 18.5794 21.1427 17.8481 21.2267 16.8165C21.3059 15.8445 21.3168 14.6639 21.3183 13.1863C21.3187 12.801 21.6309 12.4884 22.0162 12.4884C22.4015 12.4884 22.7141 12.8009 22.7137 13.1862Z" fill="#2D2D2D"/>
<path fill-rule="evenodd" clip-rule="evenodd" d="M18.2139 11.4884C16.0926 11.4884 15.0319 11.4884 14.3729 10.8294C13.7139 10.1704 13.7139 9.10969 13.7139 6.98837C13.7139 4.86705 13.7139 3.80639 14.3729 3.14738C15.0319 2.48837 16.0926 2.48837 18.2139 2.48837C20.3352 2.48837 21.3959 2.48837 22.0549 3.14738C22.7139 3.80639 22.7139 4.86705 22.7139 6.98837C22.7139 9.10969 22.7139 10.1704 22.0549 10.8294C21.3959 11.4884 20.3352 11.4884 18.2139 11.4884ZM16.7442 4.45804C16.4513 4.16515 15.9765 4.16515 15.6836 4.45804C15.3907 4.75093 15.3907 5.22581 15.6836 5.5187L17.1532 6.98837L15.6836 8.45804C15.3907 8.75093 15.3907 9.22581 15.6836 9.5187C15.9765 9.81159 16.4513 9.81159 16.7442 9.5187L18.2139 8.04903L19.6836 9.5187C19.9765 9.81159 20.4513 9.81159 20.7442 9.5187C21.0371 9.22581 21.0371 8.75093 20.7442 8.45804L19.2746 6.98837L20.7442 5.5187C21.0371 5.22581 21.0371 4.75093 20.7442 4.45804C20.4513 4.16515 19.9765 4.16515 19.6836 4.45804L18.2139 5.92771L16.7442 4.45804Z" fill="#2D2D2D"/>
</svg>
