<svg width="25" height="25" viewBox="0 0 25 25" fill="none" xmlns="http://www.w3.org/2000/svg">
<path d="M18.7139 8.48837C18.7139 9.59294 17.8185 10.4884 16.7139 10.4884C15.6093 10.4884 14.7139 9.59294 14.7139 8.48837C14.7139 7.3838 15.6093 6.48837 16.7139 6.48837C17.8185 6.48837 18.7139 7.3838 18.7139 8.48837Z" fill="#2D2D2D"/>
<path fill-rule="evenodd" clip-rule="evenodd" d="M12.6565 1.73837H12.7713C15.0797 1.73836 16.8887 1.73835 18.3002 1.92812C19.7449 2.12236 20.885 2.5277 21.7798 3.42251C22.6746 4.31732 23.0799 5.45734 23.2742 6.90208C23.4639 8.31356 23.4639 10.1226 23.4639 12.431V12.5193C23.4639 14.4281 23.4639 15.9907 23.3602 17.2629C23.2561 18.5415 23.0426 19.6098 22.5648 20.4971C22.354 20.8885 22.0951 21.239 21.7798 21.5543C20.885 22.4491 19.7449 22.8544 18.3002 23.0487C16.8887 23.2384 15.0797 23.2384 12.7713 23.2384H12.6565C10.3481 23.2384 8.53906 23.2384 7.12758 23.0487C5.68284 22.8544 4.54282 22.4491 3.64801 21.5543C2.85473 20.761 2.44507 19.7736 2.22722 18.5488C2.01322 17.3457 1.97407 15.8487 1.96594 13.9899C1.96387 13.5171 1.96387 13.017 1.96387 12.4894V12.431C1.96386 10.1226 1.96385 8.31356 2.15362 6.90208C2.34786 5.45734 2.7532 4.31732 3.64801 3.42251C4.54282 2.5277 5.68284 2.12236 7.12758 1.92812C8.53906 1.73835 10.3481 1.73836 12.6565 1.73837ZM7.32745 3.41474C6.04904 3.58662 5.27832 3.91351 4.70867 4.48317C4.13901 5.05282 3.81212 5.82354 3.64024 7.10195C3.46546 8.40193 3.46387 10.1102 3.46387 12.4884C3.46387 12.7789 3.46387 13.0599 3.46421 13.3319L4.46535 12.4559C5.37662 11.6586 6.75004 11.7043 7.60625 12.5605L11.896 16.8502C12.5832 17.5375 13.665 17.6312 14.4602 17.0723L14.7584 16.8628C15.9026 16.0586 17.4507 16.1518 18.4903 17.0874L21.3207 19.6347C21.6056 19.0364 21.7748 18.2502 21.8652 17.1411C21.9633 15.9366 21.9639 14.4343 21.9639 12.4884C21.9639 10.1102 21.9623 8.40193 21.7875 7.10195C21.6157 5.82354 21.2888 5.05282 20.7191 4.48317C20.1494 3.91351 19.3787 3.58662 18.1003 3.41474C16.8003 3.23996 15.0921 3.23837 12.7139 3.23837C10.3356 3.23837 8.62743 3.23996 7.32745 3.41474Z" fill="#2D2D2D"/>
</svg>
