<svg width="25" height="25" viewBox="0 0 25 25" fill="none" xmlns="http://www.w3.org/2000/svg">
<path fill-rule="evenodd" clip-rule="evenodd" d="M15.7139 1.73837C16.1281 1.73837 16.4639 2.07416 16.4639 2.48837V3.48837C16.4639 4.45487 15.6804 5.23837 14.7139 5.23837H13.7139C13.5758 5.23837 13.4639 5.3503 13.4639 5.48837V6.48837H14.7139C18.4851 6.48837 20.3708 6.48837 21.5423 7.65994C22.7139 8.83152 22.7139 10.7172 22.7139 14.4884C22.7139 18.2596 22.7139 20.1453 21.5423 21.3168C20.3708 22.4884 18.4851 22.4884 14.7139 22.4884H10.7139C6.94263 22.4884 5.05702 22.4884 3.88544 21.3168C2.71387 20.1453 2.71387 18.2596 2.71387 14.4884C2.71387 10.7172 2.71387 8.83152 3.88544 7.65994C5.05702 6.48837 6.94263 6.48837 10.7139 6.48837H11.9639V5.48837C11.9639 4.52187 12.7474 3.73837 13.7139 3.73837H14.7139C14.852 3.73837 14.9639 3.62644 14.9639 3.48837V2.48837C14.9639 2.07416 15.2997 1.73837 15.7139 1.73837ZM9.46387 12.4884C9.46387 12.0742 9.12808 11.7384 8.71387 11.7384C8.29966 11.7384 7.96387 12.0742 7.96387 12.4884V13.5384C7.96387 13.6489 7.87433 13.7384 7.76387 13.7384H6.71387C6.29966 13.7384 5.96387 14.0742 5.96387 14.4884C5.96387 14.9026 6.29966 15.2384 6.71387 15.2384H7.76387C7.87433 15.2384 7.96387 15.3279 7.96387 15.4384V16.4884C7.96387 16.9026 8.29966 17.2384 8.71387 17.2384C9.12808 17.2384 9.46387 16.9026 9.46387 16.4884V15.4384C9.46387 15.3279 9.55341 15.2384 9.66387 15.2384H10.7139C11.1281 15.2384 11.4639 14.9026 11.4639 14.4884C11.4639 14.0742 11.1281 13.7384 10.7139 13.7384H9.66387C9.55341 13.7384 9.46387 13.6489 9.46387 13.5384V12.4884ZM15.7139 13.9884C16.2662 13.9884 16.7139 13.5407 16.7139 12.9884C16.7139 12.4361 16.2662 11.9884 15.7139 11.9884C15.1616 11.9884 14.7139 12.4361 14.7139 12.9884C14.7139 13.5407 15.1616 13.9884 15.7139 13.9884ZM18.7139 15.9884C18.7139 16.5407 18.2662 16.9884 17.7139 16.9884C17.1616 16.9884 16.7139 16.5407 16.7139 15.9884C16.7139 15.4361 17.1616 14.9884 17.7139 14.9884C18.2662 14.9884 18.7139 15.4361 18.7139 15.9884Z" fill="#2D2D2D"/>
</svg>
