<svg width="25" height="25" viewBox="0 0 25 25" fill="none" xmlns="http://www.w3.org/2000/svg">
<path d="M18.5283 21.7243L18.2572 22.1822C18.0156 22.5904 17.4121 22.5904 17.1706 22.1822L16.8995 21.7243C16.6893 21.3691 16.5841 21.1915 16.4153 21.0933C16.2464 20.9951 16.0339 20.9914 15.6087 20.9841C14.981 20.9733 14.5873 20.9348 14.2572 20.7981C13.6446 20.5443 13.1579 20.0577 12.9042 19.4451C12.7139 18.9857 12.7139 18.4032 12.7139 17.2384V16.7384C12.7139 15.1016 12.7139 14.2833 13.0823 13.6821C13.2884 13.3457 13.5713 13.0629 13.9077 12.8567C14.5088 12.4883 15.3272 12.4883 16.9639 12.4883H18.4639C20.1006 12.4883 20.919 12.4883 21.5201 12.8567C21.8565 13.0629 22.1394 13.3457 22.3455 13.6821C22.7139 14.2833 22.7139 15.1016 22.7139 16.7384V17.2384C22.7139 18.4032 22.7139 18.9857 22.5236 19.4451C22.2699 20.0577 21.7832 20.5443 21.1706 20.7981C20.8405 20.9348 20.4468 20.9733 19.8191 20.9841C19.3939 20.9914 19.1813 20.9951 19.0125 21.0933C18.8436 21.1915 18.7385 21.3691 18.5283 21.7243Z" fill="#2D2D2D"/>
<path fill-rule="evenodd" clip-rule="evenodd" d="M10.9146 2.76568C11.3137 2.87654 11.5474 3.28995 11.4365 3.68905L10.0339 8.73832H17.4772L18.9913 3.28758C19.1021 2.88848 19.5155 2.65482 19.9146 2.76568C20.3137 2.87654 20.5474 3.28995 20.4365 3.68905L19.034 8.73832H22.7139C23.1281 8.73832 23.4639 9.0741 23.4639 9.48832C23.4639 9.90253 23.1281 10.2383 22.7139 10.2383H18.6155C18.4855 10.6072 18.09 10.8172 17.7076 10.711C17.4627 10.643 17.2801 10.461 17.2012 10.2383H9.61727L8.08949 15.7383H9.71387C10.1281 15.7383 10.4639 16.0741 10.4639 16.4883C10.4639 16.9026 10.1281 17.2383 9.71387 17.2383H7.67282L6.43651 21.6891C6.32565 22.0882 5.91224 22.3218 5.51314 22.211C5.11403 22.1001 4.88037 21.6867 4.99123 21.2876L6.11603 17.2383H2.71387C2.29966 17.2383 1.96387 16.9026 1.96387 16.4883C1.96387 16.0741 2.29966 15.7383 2.71387 15.7383H6.53269L8.06047 10.2383H4.71387C4.29966 10.2383 3.96387 9.90253 3.96387 9.48832C3.96387 9.0741 4.29966 8.73832 4.71387 8.73832H8.47714L9.99123 3.28758C10.1021 2.88848 10.5155 2.65482 10.9146 2.76568Z" fill="#2D2D2D"/>
</svg>
