<svg width="25" height="25" viewBox="0 0 25 25" fill="none" xmlns="http://www.w3.org/2000/svg">
<path fill-rule="evenodd" clip-rule="evenodd" d="M11.4365 3.68905C11.5474 3.28995 11.3137 2.87654 10.9146 2.76568C10.5155 2.65482 10.1021 2.88848 9.99123 3.28758L8.47714 8.73832H4.71387C4.29966 8.73832 3.96387 9.0741 3.96387 9.48832C3.96387 9.90253 4.29966 10.2383 4.71387 10.2383H8.06047L6.53269 15.7383H2.71387C2.29966 15.7383 1.96387 16.0741 1.96387 16.4883C1.96387 16.9026 2.29966 17.2383 2.71387 17.2383H6.11603L4.99123 21.2876C4.88037 21.6867 5.11403 22.1001 5.51314 22.211C5.91224 22.3218 6.32565 22.0882 6.43651 21.6891L7.67282 17.2383H15.1161L13.9913 21.2876C13.8804 21.6867 14.1141 22.1001 14.5132 22.211C14.9123 22.3218 15.3257 22.0882 15.4365 21.6891L16.6729 17.2383H20.7139C21.1281 17.2383 21.4639 16.9026 21.4639 16.4883C21.4639 16.0741 21.1281 15.7383 20.7139 15.7383H17.0895L18.6173 10.2383H22.7139C23.1281 10.2383 23.4639 9.90253 23.4639 9.48832C23.4639 9.0741 23.1281 8.73832 22.7139 8.73832H19.034L20.4365 3.68905C20.5474 3.28995 20.3137 2.87654 19.9146 2.76568C19.5155 2.65482 19.1021 2.88848 18.9913 3.28758L17.4772 8.73832H10.0339L11.4365 3.68905ZM15.5327 15.7383L17.0605 10.2383H9.61727L8.08949 15.7383H15.5327Z" fill="#2D2D2D"/>
</svg>
