<svg width="25" height="25" viewBox="0 0 25 25" fill="none" xmlns="http://www.w3.org/2000/svg">
<path d="M14.8059 11.2384L14.0559 13.7384H10.6219L11.3719 11.2384H14.8059Z" fill="#2D2D2D"/>
<path fill-rule="evenodd" clip-rule="evenodd" d="M4.17834 3.95284C2.71387 5.4173 2.71387 7.77432 2.71387 12.4884C2.71387 17.2024 2.71387 19.5595 4.17834 21.0239C5.6428 22.4884 7.99982 22.4884 12.7139 22.4884C17.4279 22.4884 19.785 22.4884 21.2494 21.0239C22.7139 19.5595 22.7139 17.2024 22.7139 12.4884C22.7139 7.77432 22.7139 5.4173 21.2494 3.95284C19.785 2.48837 17.4279 2.48837 12.7139 2.48837C7.99982 2.48837 5.6428 2.48837 4.17834 3.95284ZM11.9294 6.77001C12.3262 6.88904 12.5513 7.30715 12.4323 7.7039L11.8219 9.73838H15.2559L15.9955 7.27287C16.1146 6.87613 16.5327 6.65099 16.9294 6.77001C17.3262 6.88904 17.5513 7.30715 17.4323 7.7039L16.8219 9.73838H18.7139C19.1281 9.73838 19.4639 10.0742 19.4639 10.4884C19.4639 10.9026 19.1281 11.2384 18.7139 11.2384H16.3719L15.6219 13.7384H17.7139C18.1281 13.7384 18.4639 14.0742 18.4639 14.4884C18.4639 14.9026 18.1281 15.2384 17.7139 15.2384H15.1719L14.4323 17.7039C14.3132 18.1007 13.8951 18.3258 13.4984 18.2068C13.1016 18.0878 12.8765 17.6696 12.9955 17.2729L13.6059 15.2384H10.1719L9.43224 17.7039C9.31322 18.1007 8.8951 18.3258 8.49836 18.2068C8.10161 18.0878 7.87648 17.6696 7.9955 17.2729L8.60585 15.2384H6.71387C6.29966 15.2384 5.96387 14.9026 5.96387 14.4884C5.96387 14.0742 6.29966 13.7384 6.71387 13.7384H9.05585L9.80585 11.2384H7.71387C7.29966 11.2384 6.96387 10.9026 6.96387 10.4884C6.96387 10.0742 7.29966 9.73838 7.71387 9.73838H10.2558L10.9955 7.27287C11.1146 6.87613 11.5327 6.65099 11.9294 6.77001Z" fill="#2D2D2D"/>
</svg>
