<svg width="25" height="25" viewBox="0 0 25 25" fill="none" xmlns="http://www.w3.org/2000/svg">
<path d="M2.71387 12.6124C2.71387 7.02106 7.191 2.48837 12.7138 2.48837C18.2367 2.48837 22.7138 7.02106 22.7138 12.6124V17.8559C22.7141 18.6728 22.7143 19.233 22.5707 19.7248C22.2899 20.6866 21.6185 21.4821 20.7239 21.9129C20.2664 22.1333 19.7198 22.2204 18.9227 22.3475L18.7928 22.3683C18.5093 22.4136 18.2671 22.4523 18.0661 22.4723C17.857 22.4931 17.6438 22.4995 17.4257 22.456C16.7081 22.3129 16.1163 21.801 15.8647 21.1056C15.7883 20.8943 15.7613 20.68 15.7489 20.4677C15.7371 20.2637 15.7371 20.0154 15.7371 19.7249L15.737 15.5525C15.7365 15.127 15.7361 14.7609 15.8334 14.4474C16.0561 13.73 16.6377 13.1859 17.3616 13.0176C17.678 12.944 18.0385 12.9733 18.4574 13.0073L18.5506 13.0148L18.6604 13.0236C19.4441 13.0859 19.9803 13.1286 20.4355 13.299C20.7554 13.4188 21.052 13.5837 21.3185 13.786V12.6124C21.3185 7.80125 17.466 3.90103 12.7138 3.90103C7.96163 3.90103 4.10921 7.80125 4.10921 12.6124V13.786C4.37563 13.5837 4.6723 13.4188 4.99216 13.299C5.44732 13.1286 5.98352 13.0859 6.76722 13.0236L6.87705 13.0148L6.97028 13.0073C7.38921 12.9733 7.74968 12.944 8.06611 13.0176C8.78999 13.1859 9.37153 13.73 9.59426 14.4474C9.69161 14.7609 9.69117 15.127 9.69065 15.5525L9.69058 19.7249C9.69058 20.0154 9.69059 20.2637 9.67874 20.4677C9.66641 20.68 9.63937 20.8943 9.56293 21.1056C9.31141 21.801 8.71961 22.3129 8.00199 22.456C7.78388 22.4995 7.57062 22.4931 7.36155 22.4723C7.16058 22.4523 6.91836 22.4136 6.63489 22.3683L6.50493 22.3475C5.70786 22.2204 5.16124 22.1333 4.70378 21.9129C3.80921 21.4821 3.13775 20.6866 2.85695 19.7248C2.73854 19.3193 2.71791 18.8672 2.71447 18.2631L2.71387 18.0687V12.6124Z" fill="#2D2D2D"/>
</svg>
