<svg width="25" height="25" viewBox="0 0 25 25" fill="none" xmlns="http://www.w3.org/2000/svg">
<path d="M12.7139 5.98901L12.1735 6.50911C12.3149 6.65601 12.51 6.73901 12.7139 6.73901C12.9178 6.73901 13.1129 6.65601 13.2543 6.50911L12.7139 5.98901ZM10.1399 18.8103C8.62426 17.6155 6.96694 16.4487 5.65216 14.9682C4.36309 13.5166 3.46387 11.8229 3.46387 9.62548H1.96387C1.96387 12.291 3.07437 14.3245 4.53059 15.9642C5.9611 17.575 7.78464 18.8636 9.21129 19.9883L10.1399 18.8103ZM3.46387 9.62548C3.46387 7.47461 4.67924 5.6709 6.33823 4.91257C7.94994 4.17586 10.1155 4.37096 12.1735 6.50911L13.2543 5.46891C10.8124 2.9319 7.97796 2.51377 5.71463 3.54834C3.49858 4.5613 1.96387 6.91341 1.96387 9.62548H3.46387ZM9.21129 19.9883C9.72352 20.3921 10.2734 20.8227 10.8307 21.1483C11.3878 21.4738 12.0235 21.7384 12.7139 21.7384V20.2384C12.4043 20.2384 12.04 20.1177 11.5875 19.8532C11.1352 19.5889 10.6659 19.225 10.1399 18.8103L9.21129 19.9883ZM16.2165 19.9883C17.6431 18.8636 19.4667 17.575 20.8972 15.9642C22.3534 14.3245 23.4639 12.291 23.4639 9.62548H21.9639C21.9639 11.8229 21.0647 13.5166 19.7756 14.9682C18.4608 16.4487 16.8035 17.6155 15.2879 18.8103L16.2165 19.9883ZM23.4639 9.62548C23.4639 6.91341 21.9292 4.5613 19.7131 3.54834C17.4498 2.51377 14.6154 2.9319 12.1735 5.46891L13.2543 6.50911C15.3122 4.37096 17.4778 4.17586 19.0895 4.91257C20.7485 5.6709 21.9639 7.47461 21.9639 9.62548H23.4639ZM15.2879 18.8103C14.7618 19.225 14.2926 19.5889 13.8403 19.8532C13.3878 20.1177 13.0235 20.2384 12.7139 20.2384V21.7384C13.4043 21.7384 14.04 21.4738 14.5971 21.1483C15.1544 20.8227 15.7042 20.3921 16.2165 19.9883L15.2879 18.8103Z" fill="#2D2D2D"/>
</svg>
