<svg width="25" height="25" viewBox="0 0 25 25" fill="none" xmlns="http://www.w3.org/2000/svg">
<path d="M8.82014 18.7352C6.01206 16.5717 2.71387 14.0306 2.71387 9.62547C2.71387 5.02493 7.63647 1.69013 11.9778 5.3021L10.5245 8.69304C10.3857 9.01699 10.4911 9.39391 10.778 9.59877L13.6112 11.6225L11.1445 14.5004C10.8894 14.798 10.9065 15.2417 11.1836 15.5188L12.8833 17.2186L11.9733 20.8586C11.2182 20.6053 10.4578 20.0159 9.6756 19.3993C9.39858 19.1809 9.11201 18.9601 8.82014 18.7352Z" fill="#2D2D2D"/>
<path d="M13.5257 20.8337C14.2574 20.5682 14.9946 19.9965 15.7522 19.3993C16.0292 19.1809 16.3158 18.9601 16.6076 18.7352C19.4157 16.5717 22.7139 14.0306 22.7139 9.62547C22.7139 5.11058 17.9729 1.81474 13.6931 5.10756L12.1411 8.72904L15.1498 10.8782C15.3211 11.0005 15.433 11.1891 15.4584 11.398C15.4838 11.6069 15.4203 11.8168 15.2833 11.9766L12.7353 14.9493L14.2442 16.4582C14.4305 16.6445 14.5054 16.9148 14.4415 17.1704L13.5257 20.8337Z" fill="#2D2D2D"/>
</svg>
