<svg width="25" height="25" viewBox="0 0 25 25" fill="none" xmlns="http://www.w3.org/2000/svg">
<path d="M5.91212 3.78755C6.51433 2.48837 8.58084 2.48837 12.7139 2.48837C16.8469 2.48837 18.9134 2.48837 19.5156 3.78755C19.5674 3.89923 19.6111 4.01523 19.6462 4.13447C20.0553 5.52167 18.5941 7.12948 15.6716 10.3451L13.7139 12.4884L15.6716 14.6317C18.5941 17.8473 20.0553 19.4551 19.6462 20.8423C19.6111 20.9615 19.5674 21.0775 19.5156 21.1892C18.9134 22.4884 16.8469 22.4884 12.7139 22.4884C8.58084 22.4884 6.51433 22.4884 5.91212 21.1892C5.86036 21.0775 5.81669 20.9615 5.78152 20.8423C5.37244 19.4551 6.83368 17.8473 9.75617 14.6317L11.7139 12.4884L9.75617 10.3451C6.83368 7.12948 5.37244 5.52167 5.78152 4.13447C5.81669 4.01523 5.86036 3.89923 5.91212 3.78755Z" fill="#2D2D2D"/>
</svg>
