<svg width="25" height="25" viewBox="0 0 25 25" fill="none" xmlns="http://www.w3.org/2000/svg">
<path fill-rule="evenodd" clip-rule="evenodd" d="M22.7139 12.4884C22.7139 18.0112 18.2367 22.4884 12.7139 22.4884C7.19102 22.4884 2.71387 18.0112 2.71387 12.4884C2.71387 6.96552 7.19102 2.48837 12.7139 2.48837C18.2367 2.48837 22.7139 6.96552 22.7139 12.4884ZM12.7139 18.2384C13.1281 18.2384 13.4639 17.9026 13.4639 17.4884V11.4884C13.4639 11.0742 13.1281 10.7384 12.7139 10.7384C12.2997 10.7384 11.9639 11.0742 11.9639 11.4884V17.4884C11.9639 17.9026 12.2997 18.2384 12.7139 18.2384ZM12.7139 7.48837C13.2662 7.48837 13.7139 7.93609 13.7139 8.48837C13.7139 9.04065 13.2662 9.48837 12.7139 9.48837C12.1616 9.48837 11.7139 9.04065 11.7139 8.48837C11.7139 7.93609 12.1616 7.48837 12.7139 7.48837Z" fill="#2D2D2D"/>
</svg>
