<svg width="25" height="25" viewBox="0 0 25 25" fill="none" xmlns="http://www.w3.org/2000/svg">
<path fill-rule="evenodd" clip-rule="evenodd" d="M12.7139 22.4884C7.99982 22.4884 5.6428 22.4884 4.17834 21.0239C2.71387 19.5595 2.71387 17.2024 2.71387 12.4884C2.71387 7.77432 2.71387 5.4173 4.17834 3.95284C5.6428 2.48837 7.99982 2.48837 12.7139 2.48837C17.4279 2.48837 19.785 2.48837 21.2494 3.95284C22.7139 5.4173 22.7139 7.77432 22.7139 12.4884C22.7139 17.2024 22.7139 19.5595 21.2494 21.0239C19.785 22.4884 17.4279 22.4884 12.7139 22.4884ZM12.7139 18.2384C13.1281 18.2384 13.4639 17.9026 13.4639 17.4884V11.4884C13.4639 11.0742 13.1281 10.7384 12.7139 10.7384C12.2997 10.7384 11.9639 11.0742 11.9639 11.4884V17.4884C11.9639 17.9026 12.2997 18.2384 12.7139 18.2384ZM12.7139 7.48837C13.2662 7.48837 13.7139 7.93609 13.7139 8.48837C13.7139 9.04065 13.2662 9.48837 12.7139 9.48837C12.1616 9.48837 11.7139 9.04065 11.7139 8.48837C11.7139 7.93609 12.1616 7.48837 12.7139 7.48837Z" fill="#2D2D2D"/>
</svg>
