<svg width="25" height="25" viewBox="0 0 25 25" fill="none" xmlns="http://www.w3.org/2000/svg">
<path d="M14.9223 11.5816C15.6527 11.5816 16.2449 10.9919 16.2449 10.2643C16.2449 9.53685 15.6527 8.94711 14.9223 8.94711C14.1918 8.94711 13.5996 9.53685 13.5996 10.2643C13.5996 10.9919 14.1918 11.5816 14.9223 11.5816Z" fill="#2D2D2D"/>
<path fill-rule="evenodd" clip-rule="evenodd" d="M4.17834 3.95284C2.71387 5.4173 2.71387 7.77432 2.71387 12.4884C2.71387 17.2024 2.71387 19.5595 4.17834 21.0239C5.6428 22.4884 7.99982 22.4884 12.7139 22.4884C17.4279 22.4884 19.785 22.4884 21.2494 21.0239C22.7139 19.5595 22.7139 17.2024 22.7139 12.4884C22.7139 7.77432 22.7139 5.4173 21.2494 3.95284C19.785 2.48837 17.4279 2.48837 12.7139 2.48837C7.99982 2.48837 5.6428 2.48837 4.17834 3.95284ZM14.9223 14.0405C17.0164 14.0405 18.7139 12.3499 18.7139 10.2644C18.7139 8.17897 17.0164 6.48837 14.9223 6.48837C12.8283 6.48837 11.1308 8.17897 11.1308 10.2644C11.1308 11.2304 11.5717 11.933 11.5717 11.933L6.98651 16.4994C6.78077 16.7043 6.49273 17.237 6.98651 17.7288L7.51557 18.2557C7.7213 18.4313 8.23858 18.6772 8.66183 18.2557L9.27906 17.641C9.89629 18.2557 10.6017 17.9044 10.8662 17.5531C11.3071 16.9384 10.7781 16.3237 10.7781 16.3237L10.9544 16.1481C11.8009 16.9911 12.5416 16.4994 12.8061 16.1481C13.247 15.5334 12.8061 14.9187 12.8061 14.9187C12.7542 14.8153 12.687 14.7423 12.6292 14.6796C12.4909 14.5294 12.4069 14.4382 12.7179 14.1284L13.247 13.6014C13.6703 13.9527 14.5403 14.0405 14.9223 14.0405Z" fill="#2D2D2D"/>
</svg>
