<svg width="25" height="25" viewBox="0 0 25 25" fill="none" xmlns="http://www.w3.org/2000/svg">
<path fill-rule="evenodd" clip-rule="evenodd" d="M22.7139 7.20845C22.7139 9.81527 20.592 11.9286 17.9745 11.9286C17.4968 11.9286 16.4093 11.8188 15.8803 11.3797L15.2189 12.0383C14.8301 12.4256 14.9351 12.5396 15.1081 12.7274C15.1803 12.8058 15.2643 12.897 15.3292 13.0262C15.3292 13.0262 15.8803 13.7946 15.3292 14.563C14.9985 15.0021 14.0727 15.6168 13.0146 14.563L12.7941 14.7826C12.7941 14.7826 13.4554 15.5509 12.9043 16.3193C12.5737 16.7584 11.6919 17.1975 10.9204 16.4291L10.1488 17.1975C9.61976 17.7244 8.97316 17.417 8.71599 17.1975L8.05467 16.5389C7.43744 15.9242 7.7975 15.2582 8.05467 15.0021L13.7861 9.29406C13.7861 9.29406 13.235 8.41591 13.235 7.20845C13.235 4.60162 15.3569 2.48837 17.9745 2.48837C20.592 2.48837 22.7139 4.60162 22.7139 7.20845ZM19.6279 7.2084C19.6279 8.11775 18.8877 8.85493 17.9746 8.85493C17.0615 8.85493 16.3213 8.11775 16.3213 7.2084C16.3213 6.29904 17.0615 5.56186 17.9746 5.56186C18.8877 5.56186 19.6279 6.29904 19.6279 7.2084Z" fill="#2D2D2D"/>
<path d="M13.9096 2.48938C12.5789 3.62916 11.735 5.31901 11.735 7.20845C11.735 7.88963 11.8621 8.4854 12.0084 8.94743L6.99612 13.9393C6.6976 14.2366 6.35317 14.7405 6.24635 15.394C6.12416 16.1416 6.34087 16.9491 6.99612 17.6017L7.65744 18.2603C7.68462 18.2874 7.71284 18.3134 7.74202 18.3383C8.0371 18.5902 8.5161 18.8733 9.11105 18.9613C9.77788 19.0598 10.5606 18.8992 11.1994 18.2681C11.5854 18.3654 11.9797 18.373 12.3598 18.3002C13.1139 18.1558 13.7325 17.713 14.1025 17.2217C14.1095 17.2124 14.1164 17.203 14.1232 17.1935C14.2561 17.0083 14.3577 16.8213 14.4335 16.6361C14.5303 16.6281 14.6273 16.6149 14.7241 16.5966C15.5859 16.4331 16.1995 15.9006 16.5273 15.4654C16.5343 15.4561 16.5412 15.4467 16.548 15.4372C17.0763 14.7007 17.1308 13.9358 17.0348 13.3564C17.3976 13.4091 17.731 13.4286 17.9744 13.4286C19.868 13.4286 21.5675 12.5865 22.7128 11.2555C22.7139 11.6476 22.7139 12.0582 22.7139 12.4884C22.7139 17.2024 22.7139 19.5595 21.2494 21.0239C19.785 22.4884 17.4279 22.4884 12.7139 22.4884C7.99982 22.4884 5.6428 22.4884 4.17834 21.0239C2.71387 19.5595 2.71387 17.2024 2.71387 12.4884C2.71387 7.77432 2.71387 5.4173 4.17834 3.95284C5.6428 2.48837 7.99982 2.48837 12.7139 2.48837C13.1305 2.48837 13.5288 2.48837 13.9096 2.48938Z" fill="#2D2D2D"/>
</svg>
