<svg width="25" height="25" viewBox="0 0 25 25" fill="none" xmlns="http://www.w3.org/2000/svg">
<path d="M22.8155 6.50923C22.8155 8.16608 21.4724 9.50923 19.8155 9.50923C18.1586 9.50923 16.8155 8.16608 16.8155 6.50923C16.8155 4.85238 18.1586 3.50923 19.8155 3.50923C21.4724 3.50923 22.8155 4.85238 22.8155 6.50923Z" fill="#2D2D2D"/>
<path fill-rule="evenodd" clip-rule="evenodd" d="M14.8155 5.50923H10.8155C7.04428 5.50923 5.15867 5.50923 3.98709 6.6808C2.81552 7.85238 2.81552 9.73799 2.81552 13.5092C2.81552 17.2804 2.81552 19.1661 3.98709 20.3376C5.15867 21.5092 7.04428 21.5092 10.8155 21.5092H14.8155C18.5867 21.5092 20.4724 21.5092 21.6439 20.3376C22.8155 19.1661 22.8155 17.2804 22.8155 13.5092C22.8155 12.0558 22.8155 10.8825 22.7484 9.92223C21.9608 10.5997 20.936 11.0092 19.8155 11.0092C19.3368 11.0092 18.8756 10.9345 18.4429 10.796L17.0992 11.9158C16.2128 12.6544 15.4944 13.2531 14.8603 13.6609C14.1998 14.0857 13.5566 14.3541 12.8155 14.3541C12.0744 14.3541 11.4312 14.0857 10.7707 13.6609C10.1366 13.2531 9.41823 12.6544 8.53188 11.9158L6.33538 10.0854C6.01717 9.82022 5.97418 9.3473 6.23935 9.02909C6.50453 8.71088 6.97745 8.66789 7.29566 8.93306L9.45455 10.7321C10.3875 11.5096 11.0352 12.0476 11.5821 12.3993C12.1114 12.7398 12.4704 12.8541 12.8155 12.8541C13.1606 12.8541 13.5196 12.7398 14.0489 12.3993C14.5958 12.0476 15.2435 11.5096 16.1765 10.7321L17.0159 10.0326C15.9798 9.20816 15.3155 7.93627 15.3155 6.50923C15.3155 6.16561 15.354 5.83098 15.427 5.50943C15.2288 5.50923 15.0251 5.50923 14.8155 5.50923Z" fill="#2D2D2D"/>
</svg>
