<svg width="25" height="25" viewBox="0 0 25 25" fill="none" xmlns="http://www.w3.org/2000/svg">
<path fill-rule="evenodd" clip-rule="evenodd" d="M3.98709 5.6808C2.81552 6.85238 2.81552 8.73799 2.81552 12.5092C2.81552 16.2804 2.81552 18.1661 3.98709 19.3376C5.15867 20.5092 7.04428 20.5092 10.8155 20.5092H14.8155C18.5867 20.5092 20.4724 20.5092 21.6439 19.3376C22.8155 18.1661 22.8155 16.2804 22.8155 12.5092C22.8155 8.73799 22.8155 6.85238 21.6439 5.6808C20.4724 4.50923 18.5867 4.50923 14.8155 4.50923H10.8155C7.04428 4.50923 5.15867 4.50923 3.98709 5.6808ZM19.3917 8.02909C19.6568 8.3473 19.6138 8.82022 19.2956 9.0854L17.0992 10.9158C16.2128 11.6544 15.4944 12.2531 14.8603 12.6609C14.1998 13.0857 13.5566 13.3541 12.8155 13.3541C12.0744 13.3541 11.4312 13.0857 10.7707 12.6609C10.1366 12.2531 9.41823 11.6544 8.53188 10.9158L6.33538 9.0854C6.01717 8.82022 5.97418 8.3473 6.23935 8.02909C6.50453 7.71088 6.97745 7.66789 7.29566 7.93306L9.45455 9.73214C10.3875 10.5096 11.0352 11.0476 11.5821 11.3993C12.1114 11.7398 12.4704 11.8541 12.8155 11.8541C13.1606 11.8541 13.5196 11.7398 14.0489 11.3993C14.5958 11.0476 15.2435 10.5096 16.1765 9.73214L18.3354 7.93306C18.6536 7.66789 19.1265 7.71088 19.3917 8.02909Z" fill="#2D2D2D"/>
</svg>
