<svg width="25" height="25" viewBox="0 0 25 25" fill="none" xmlns="http://www.w3.org/2000/svg">
<path fill-rule="evenodd" clip-rule="evenodd" d="M9.96388 19.1973C9.96388 18.7778 10.2997 18.4378 10.7139 18.4378H14.7139C15.1281 18.4378 15.4639 18.7778 15.4639 19.1973C15.4639 19.6167 15.1281 19.9568 14.7139 19.9568H10.7139C10.2997 19.9568 9.96388 19.6167 9.96388 19.1973ZM10.6306 21.7289C10.6306 21.3094 10.9664 20.9694 11.3806 20.9694H14.0472C14.4614 20.9694 14.7972 21.3094 14.7972 21.7289C14.7972 22.1484 14.4614 22.4884 14.0472 22.4884H11.3806C10.9664 22.4884 10.6306 22.1484 10.6306 21.7289Z" fill="#2D2D2D"/>
<path d="M8.12446 14.3167L9.22851 15.3691C9.53825 15.6643 9.71388 16.0759 9.71388 16.5066C9.71388 17.1537 10.2319 17.6783 10.8709 17.6783H14.5569C15.1959 17.6783 15.7139 17.1537 15.7139 16.5066C15.7139 16.0759 15.8895 15.6643 16.1993 15.3691L17.3033 14.3167C18.8445 12.8365 19.7051 10.8918 19.7138 8.87007L19.7139 8.78515C19.7139 5.3308 16.5799 2.48837 12.7139 2.48837C8.84789 2.48837 5.71388 5.3308 5.71388 8.78515L5.71395 8.87007C5.72263 10.8918 6.58327 12.8365 8.12446 14.3167Z" fill="#2D2D2D"/>
</svg>
