<svg width="25" height="25" viewBox="0 0 25 25" fill="none" xmlns="http://www.w3.org/2000/svg">
<path d="M8.71387 7.23837C5.81438 7.23837 3.46387 9.58888 3.46387 12.4884C3.46387 15.3879 5.81438 17.7384 8.71387 17.7384H9.71387C10.1281 17.7384 10.4639 18.0742 10.4639 18.4884C10.4639 18.9026 10.1281 19.2384 9.71387 19.2384H8.71387C4.98595 19.2384 1.96387 16.2163 1.96387 12.4884C1.96387 8.76045 4.98595 5.73837 8.71387 5.73837H9.71387C10.1281 5.73837 10.4639 6.07416 10.4639 6.48837C10.4639 6.90258 10.1281 7.23837 9.71387 7.23837H8.71387Z" fill="#2D2D2D"/>
<path d="M8.96381 12.4883C8.96381 12.0741 9.29959 11.7383 9.71381 11.7383H15.7138C16.128 11.7383 16.4638 12.0741 16.4638 12.4883C16.4638 12.9026 16.128 13.2383 15.7138 13.2383H9.71381C9.29959 13.2383 8.96381 12.9026 8.96381 12.4883Z" fill="#2D2D2D"/>
<path d="M15.7139 5.73837C15.2997 5.73837 14.9639 6.07416 14.9639 6.48837C14.9639 6.90258 15.2997 7.23837 15.7139 7.23837H16.7139C19.6134 7.23837 21.9639 9.58888 21.9639 12.4884C21.9639 15.3879 19.6134 17.7384 16.7139 17.7384H15.7139C15.2997 17.7384 14.9639 18.0742 14.9639 18.4884C14.9639 18.9026 15.2997 19.2384 15.7139 19.2384H16.7139C20.4418 19.2384 23.4639 16.2163 23.4639 12.4884C23.4639 8.76045 20.4418 5.73837 16.7139 5.73837H15.7139Z" fill="#2D2D2D"/>
</svg>
