<svg width="25" height="25" viewBox="0 0 25 25" fill="none" xmlns="http://www.w3.org/2000/svg">
<path d="M20.4527 4.74955C17.7711 2.06798 13.4234 2.06798 10.7418 4.74955L10.0209 5.4704C9.72805 5.76329 9.72805 6.23817 10.0209 6.53106C10.3138 6.82395 10.7887 6.82395 11.0816 6.53106L11.8025 5.81021C13.8983 3.71442 17.2962 3.71442 19.392 5.81021C21.4878 7.906 21.4878 11.304 19.392 13.3998L18.6712 14.1206C18.3783 14.4135 18.3783 14.8884 18.6712 15.1813C18.9641 15.4742 19.4389 15.4742 19.7318 15.1813L20.4527 14.4604C23.1342 11.7789 23.1342 7.43113 20.4527 4.74955Z" fill="#2D2D2D"/>
<path d="M6.75655 9.79544C7.04944 10.0883 7.04944 10.5632 6.75655 10.8561L6.0357 11.577C3.93991 13.6728 3.93991 17.0707 6.0357 19.1665C8.13149 21.2623 11.5295 21.2623 13.6253 19.1665L14.3461 18.4457C14.639 18.1528 15.1139 18.1528 15.4068 18.4457C15.6997 18.7385 15.6997 19.2134 15.4068 19.5063L14.6859 20.2272C12.0044 22.9087 7.65662 22.9087 4.97504 20.2272C2.29347 17.5456 2.29347 13.1979 4.97504 10.5163L5.69589 9.79544C5.98878 9.50255 6.46366 9.50255 6.75655 9.79544Z" fill="#2D2D2D"/>
<path d="M15.4067 9.79544C15.6996 10.0883 15.6996 10.5632 15.4067 10.8561L11.0816 15.1812C10.7887 15.4741 10.3138 15.4741 10.0209 15.1812C9.72805 14.8883 9.72805 14.4135 10.0209 14.1206L14.3461 9.79544C14.639 9.50255 15.1138 9.50255 15.4067 9.79544Z" fill="#2D2D2D"/>
</svg>
