<svg width="25" height="25" viewBox="0 0 25 25" fill="none" xmlns="http://www.w3.org/2000/svg">
<path fill-rule="evenodd" clip-rule="evenodd" d="M5.96388 10.543V8.48837C5.96388 4.76045 8.98596 1.73837 12.7139 1.73837C16.4418 1.73837 19.4639 4.76045 19.4639 8.48837V10.543C20.5787 10.6263 21.3046 10.8364 21.8352 11.3671C22.7139 12.2458 22.7139 13.66 22.7139 16.4884C22.7139 19.3168 22.7139 20.731 21.8352 21.6097C20.9565 22.4884 19.5423 22.4884 16.7139 22.4884H8.71388C5.88545 22.4884 4.47124 22.4884 3.59256 21.6097C2.71388 20.731 2.71388 19.3168 2.71388 16.4884C2.71388 13.66 2.71388 12.2458 3.59256 11.3671C4.12319 10.8364 4.84913 10.6263 5.96388 10.543ZM7.46388 8.48837C7.46388 5.58888 9.81439 3.23837 12.7139 3.23837C15.6134 3.23837 17.9639 5.58888 17.9639 8.48837V10.492C17.5809 10.4884 17.1654 10.4884 16.7139 10.4884H8.71388C8.26237 10.4884 7.84689 10.4884 7.46388 10.492V8.48837ZM14.7139 16.4884C14.7139 17.593 13.8185 18.4884 12.7139 18.4884C11.6093 18.4884 10.7139 17.593 10.7139 16.4884C10.7139 15.3838 11.6093 14.4884 12.7139 14.4884C13.8185 14.4884 14.7139 15.3838 14.7139 16.4884Z" fill="#2D2D2D"/>
</svg>
