<svg width="25" height="25" viewBox="0 0 25 25" fill="none" xmlns="http://www.w3.org/2000/svg">
<path fill-rule="evenodd" clip-rule="evenodd" d="M2.33887 12.4884C2.33887 12.9026 2.67466 13.2384 3.08887 13.2384H14.0615L12.1008 14.919C11.7863 15.1885 11.7499 15.662 12.0195 15.9765C12.289 16.291 12.7625 16.3274 13.077 16.0578L16.577 13.0578C16.7432 12.9154 16.8389 12.7073 16.8389 12.4884C16.8389 12.2695 16.7432 12.0614 16.577 11.919L13.077 8.91893C12.7625 8.64936 12.289 8.68578 12.0195 9.00028C11.7499 9.31477 11.7863 9.78825 12.1008 10.0578L14.0615 11.7384H3.08887C2.67466 11.7384 2.33887 12.0742 2.33887 12.4884Z" fill="#2D2D2D"/>
<path d="M10.0889 10.2384H10.4671C10.2086 9.50482 10.338 8.65713 10.8806 8.02413C11.6893 7.08065 13.1097 6.97138 14.0532 7.78008L17.5532 10.7801C18.0519 11.2076 18.3389 11.8316 18.3389 12.4884C18.3389 13.1453 18.0519 13.7693 17.5532 14.1968L14.0532 17.1968C13.1097 18.0055 11.6893 17.8962 10.8806 16.9527C10.338 16.3197 10.2086 15.472 10.4671 14.7384H10.0889V16.4884C10.0889 19.3168 10.0889 20.731 10.9676 21.6097C11.8463 22.4884 13.2605 22.4884 16.0889 22.4884H17.0889C19.9173 22.4884 21.3315 22.4884 22.2102 21.6097C23.0889 20.731 23.0889 19.3168 23.0889 16.4884V8.48837C23.0889 5.65995 23.0889 4.24573 22.2102 3.36705C21.3315 2.48837 19.9173 2.48837 17.0889 2.48837H16.0889C13.2605 2.48837 11.8463 2.48837 10.9676 3.36705C10.0889 4.24573 10.0889 5.65994 10.0889 8.48837V10.2384Z" fill="#2D2D2D"/>
</svg>
