<svg width="25" height="25" viewBox="0 0 25 25" fill="none" xmlns="http://www.w3.org/2000/svg">
<path fill-rule="evenodd" clip-rule="evenodd" d="M16.8389 12.4884C16.8389 12.0742 16.5031 11.7384 16.0889 11.7384H5.11631L7.07696 10.0578C7.39146 9.78825 7.42788 9.31477 7.15831 9.00028C6.88875 8.68578 6.41527 8.64936 6.10078 8.91893L2.60078 11.919C2.43454 12.0614 2.33887 12.2695 2.33887 12.4884C2.33887 12.7073 2.43454 12.9154 2.60078 13.0578L6.10078 16.0578C6.41527 16.3274 6.88875 16.291 7.15831 15.9765C7.42788 15.662 7.39146 15.1885 7.07696 14.919L5.11631 13.2384H16.0889C16.5031 13.2384 16.8389 12.9026 16.8389 12.4884Z" fill="#2D2D2D"/>
<path d="M10.0889 8.48837C10.0889 9.19056 10.0889 9.54166 10.2574 9.79387C10.3303 9.90308 10.4241 9.99685 10.5333 10.0698C10.7856 10.2383 11.1367 10.2383 11.8389 10.2383H16.0889C17.3315 10.2383 18.3389 11.2457 18.3389 12.4884C18.3389 13.731 17.3315 14.7384 16.0889 14.7384H11.8389C11.1367 14.7384 10.7855 14.7384 10.5333 14.9069C10.4241 14.9799 10.3304 15.0736 10.2574 15.1828C10.0889 15.435 10.0889 15.7861 10.0889 16.4884C10.0889 19.3168 10.0889 20.731 10.9676 21.6097C11.8463 22.4884 13.2603 22.4884 16.0887 22.4884H17.0887C19.9171 22.4884 21.3313 22.4884 22.21 21.6097C23.0887 20.731 23.0887 19.3168 23.0887 16.4884V8.48837C23.0887 5.65995 23.0887 4.24573 22.21 3.36705C21.3313 2.48837 19.9171 2.48837 17.0887 2.48837H16.0887C13.2603 2.48837 11.8463 2.48837 10.9676 3.36705C10.0889 4.24573 10.0889 5.65994 10.0889 8.48837Z" fill="#2D2D2D"/>
</svg>
