<svg width="25" height="25" viewBox="0 0 25 25" fill="none" xmlns="http://www.w3.org/2000/svg">
<path d="M12.7138 10.8384C13.6251 10.8384 14.3638 11.5771 14.3638 12.4884C14.3638 13.3997 13.6251 14.1384 12.7138 14.1384C11.8025 14.1384 11.0638 13.3997 11.0638 12.4884C11.0638 11.5771 11.8025 10.8384 12.7138 10.8384Z" fill="#2D2D2D"/>
<path fill-rule="evenodd" clip-rule="evenodd" d="M12.7139 2.48837C7.19102 2.48837 2.71387 6.96552 2.71387 12.4884C2.71387 18.0112 7.19102 22.4884 12.7139 22.4884C18.2367 22.4884 22.7139 18.0112 22.7139 12.4884C22.7139 6.96552 18.2367 2.48837 12.7139 2.48837ZM7.46387 12.4884C7.46387 9.58887 9.81437 7.23837 12.7139 7.23837C15.6134 7.23837 17.9639 9.58887 17.9639 12.4884C17.9639 13.1211 17.8523 13.726 17.6484 14.2857C17.613 14.3828 17.5434 14.4873 17.4322 14.5899L17.3516 14.6642C17.0508 14.9417 16.5992 14.9772 16.2587 14.7502C16.012 14.5858 15.8639 14.309 15.8639 14.0125V12.4884C15.8639 10.7487 14.4536 9.33837 12.7139 9.33837C10.9742 9.33837 9.56387 10.7487 9.56387 12.4884C9.56387 14.2281 10.9742 15.6384 12.7139 15.6384C13.4156 15.6384 14.0638 15.4089 14.5874 15.0209C14.7696 15.4117 15.057 15.7519 15.4266 15.9983C16.3433 16.6094 17.559 16.5136 18.3687 15.7667L18.4493 15.6924C18.6994 15.4616 18.9249 15.164 19.0578 14.7992C19.3208 14.0773 19.4639 13.2987 19.4639 12.4884C19.4639 8.76045 16.4418 5.73837 12.7139 5.73837C8.98595 5.73837 5.96387 8.76045 5.96387 12.4884C5.96387 16.2163 8.98595 19.2384 12.7139 19.2384C13.1281 19.2384 13.4639 18.9026 13.4639 18.4884C13.4639 18.0742 13.1281 17.7384 12.7139 17.7384C9.81437 17.7384 7.46387 15.3879 7.46387 12.4884Z" fill="#2D2D2D"/>
</svg>
