<svg width="25" height="25" viewBox="0 0 25 25" fill="none" xmlns="http://www.w3.org/2000/svg">
<path d="M12.7139 2.48837C9.53823 2.48837 6.96387 5.06273 6.96387 8.23837V11.2384C6.96387 14.414 9.53823 16.9884 12.7139 16.9884C15.6353 16.9884 18.0479 14.8097 18.4154 11.9884H13.7139C13.2997 11.9884 12.9639 11.6526 12.9639 11.2384C12.9639 10.8242 13.2997 10.4884 13.7139 10.4884H18.4639V8.98837H13.7139C13.2997 8.98837 12.9639 8.65258 12.9639 8.23837C12.9639 7.82416 13.2997 7.48837 13.7139 7.48837H18.4154C18.0479 4.6671 15.6353 2.48837 12.7139 2.48837Z" fill="#2D2D2D"/>
<path fill-rule="evenodd" clip-rule="evenodd" d="M4.71387 9.48837C5.12808 9.48837 5.46387 9.82416 5.46387 10.2384V11.2384C5.46387 15.2425 8.70981 18.4884 12.7139 18.4884C16.718 18.4884 19.9639 15.2425 19.9639 11.2384V10.2384C19.9639 9.82416 20.2997 9.48837 20.7139 9.48837C21.1281 9.48837 21.4639 9.82416 21.4639 10.2384V11.2384C21.4639 15.8182 17.9453 19.5763 13.4639 19.9567V22.2384C13.4639 22.6526 13.1281 22.9884 12.7139 22.9884C12.2997 22.9884 11.9639 22.6526 11.9639 22.2384V19.9567C7.48247 19.5763 3.96387 15.8182 3.96387 11.2384V10.2384C3.96387 9.82416 4.29966 9.48837 4.71387 9.48837Z" fill="#2D2D2D"/>
</svg>
