<svg width="25" height="25" viewBox="0 0 25 25" fill="none" xmlns="http://www.w3.org/2000/svg">
<path fill-rule="evenodd" clip-rule="evenodd" d="M12.7139 22.4884C7.99982 22.4884 5.6428 22.4884 4.17834 21.0239C2.71387 19.5595 2.71387 17.2024 2.71387 12.4884C2.71387 7.77432 2.71387 5.4173 4.17834 3.95284C5.6428 2.48837 7.99982 2.48837 12.7139 2.48837C17.4279 2.48837 19.785 2.48837 21.2494 3.95284C22.7139 5.4173 22.7139 7.77432 22.7139 12.4884C22.7139 17.2024 22.7139 19.5595 21.2494 21.0239C19.785 22.4884 17.4279 22.4884 12.7139 22.4884ZM16.4639 12.4884C16.4639 12.9026 16.1281 13.2384 15.7139 13.2384H9.71387C9.29966 13.2384 8.96387 12.9026 8.96387 12.4884C8.96387 12.0742 9.29966 11.7384 9.71387 11.7384H15.7139C16.1281 11.7384 16.4639 12.0742 16.4639 12.4884Z" fill="#2D2D2D"/>
</svg>
