<svg width="25" height="25" viewBox="0 0 25 25" fill="none" xmlns="http://www.w3.org/2000/svg">
<path d="M20.614 2.79557C20.4531 2.38598 19.8755 2.38598 19.7146 2.79557L19.2842 3.89085C19.2351 4.0159 19.1365 4.11489 19.0119 4.16421L17.9206 4.59618C17.5125 4.75772 17.5125 5.33738 17.9206 5.49892L19.0119 5.9309C19.1365 5.98022 19.2351 6.0792 19.2842 6.20425L19.7146 7.29953C19.8755 7.70912 20.4531 7.70912 20.614 7.29954L21.0444 6.20425C21.0935 6.0792 21.1921 5.98022 21.3167 5.9309L22.408 5.49892C22.8161 5.33738 22.8161 4.75772 22.408 4.59618L21.3167 4.16421C21.1921 4.11489 21.0935 4.0159 21.0444 3.89085L20.614 2.79557Z" fill="#2D2D2D"/>
<path d="M16.7467 8.61804C16.5857 8.20846 16.0082 8.20846 15.8472 8.61804L15.6903 9.01739C15.6412 9.14244 15.5426 9.24142 15.418 9.29074L15.0201 9.44824C14.612 9.60978 14.612 10.1894 15.0201 10.351L15.418 10.5085C15.5426 10.5578 15.6412 10.6568 15.6903 10.7819L15.8472 11.1812C16.0082 11.5908 16.5857 11.5908 16.7467 11.1812L16.9036 10.7819C16.9527 10.6568 17.0513 10.5578 17.1759 10.5085L17.5738 10.351C17.9819 10.1894 17.9819 9.60978 17.5738 9.44824L17.1759 9.29074C17.0513 9.24142 16.9527 9.14244 16.9036 9.01739L16.7467 8.61804Z" fill="#2D2D2D"/>
<path d="M12.7139 22.4884C18.2367 22.4884 22.7139 18.0112 22.7139 12.4884C22.7139 12.0257 22.0204 11.9492 21.7811 12.3452C20.6428 14.229 18.5754 15.4884 16.2139 15.4884C12.624 15.4884 9.71387 12.5783 9.71387 8.98837C9.71387 6.62682 10.9733 4.55942 12.8571 3.42113C13.2531 3.18184 13.1766 2.48837 12.7139 2.48837C7.19102 2.48837 2.71387 6.96552 2.71387 12.4884C2.71387 18.0112 7.19102 22.4884 12.7139 22.4884Z" fill="#2D2D2D"/>
</svg>
