<svg width="25" height="25" viewBox="0 0 25 25" fill="none" xmlns="http://www.w3.org/2000/svg">
<path fill-rule="evenodd" clip-rule="evenodd" d="M14.2828 8.97765C14.5757 8.68476 15.0505 8.68476 15.3434 8.97765L17.8131 11.4474L20.2828 8.97767C20.5757 8.68478 21.0505 8.68478 21.3434 8.97767C21.6363 9.27057 21.6363 9.74544 21.3434 10.0383L18.8738 12.508L21.3434 14.9776C21.6363 15.2705 21.6363 15.7454 21.3434 16.0383C21.0505 16.3312 20.5756 16.3312 20.2827 16.0383L17.8131 13.5687L15.3435 16.0383C15.0506 16.3312 14.5757 16.3312 14.2828 16.0383C13.9899 15.7454 13.9899 15.2706 14.2828 14.9777L16.7525 12.508L14.2828 10.0383C13.9899 9.74542 13.9899 9.27054 14.2828 8.97765Z" fill="#2D2D2D"/>
<path d="M4.49413 8.67161C3.87302 9.46013 3.85407 10.3812 3.81618 12.2235C3.81418 12.3202 3.81314 12.4152 3.81314 12.508C3.81314 12.6008 3.81418 12.6958 3.81618 12.7925C3.85407 14.6347 3.87302 15.5558 4.49413 16.3444C4.6075 16.4883 4.77384 16.6593 4.91325 16.7753C5.67707 17.4106 6.68554 17.4106 8.70246 17.4106C9.42305 17.4106 9.78335 17.4106 10.1268 17.5035C10.1982 17.5228 10.2688 17.545 10.3385 17.5702C10.6739 17.6913 10.9747 17.8996 11.5763 18.3164C13.9501 19.9606 15.137 20.7827 16.1332 20.4256C16.3242 20.3571 16.509 20.2583 16.6741 20.1364C17.4601 19.5561 17.5833 18.2734 17.6983 15.8049L16.4041 17.099C15.5254 17.9777 14.1008 17.9777 13.2221 17.099C12.3435 16.2203 12.3435 14.7957 13.2221 13.917L14.6311 12.508L13.2221 11.099C12.3434 10.2203 12.3434 8.79567 13.2221 7.91699C14.1008 7.03831 15.5254 7.03831 16.4041 7.91699L17.6983 9.21116C17.5833 6.74262 17.4601 5.45986 16.6741 4.8796C16.509 4.7577 16.3242 4.65886 16.1332 4.59039C15.137 4.23325 13.9501 5.05536 11.5763 6.69959C10.9747 7.11634 10.6739 7.32473 10.3385 7.44579C10.2688 7.47094 10.1982 7.4932 10.1268 7.5125C9.78335 7.60539 9.42305 7.60539 8.70246 7.60539C6.68554 7.60539 5.67707 7.60539 4.91325 8.24072C4.77384 8.35668 4.6075 8.52769 4.49413 8.67161Z" fill="#2D2D2D"/>
</svg>
