<svg width="25" height="25" viewBox="0 0 25 25" fill="none" xmlns="http://www.w3.org/2000/svg">
<path d="M3.46845 15.2044L3.98609 17.1363C4.59034 19.3913 4.89246 20.5189 5.57738 21.2502C6.11819 21.8276 6.81808 22.2317 7.58853 22.4113C8.56431 22.6388 9.69185 22.3367 11.947 21.7324C14.202 21.1282 15.3296 20.8261 16.0609 20.1412C16.1216 20.0843 16.1803 20.0257 16.2372 19.9654C15.903 19.9374 15.5659 19.8836 15.2233 19.8155C14.5272 19.6771 13.7001 19.4554 12.7219 19.1933L12.6151 19.1647L12.5903 19.1581C11.526 18.8729 10.6367 18.6341 9.92664 18.3776C9.17994 18.1079 8.50147 17.7754 7.92535 17.2358C7.1314 16.4922 6.5758 15.5298 6.32878 14.4704C6.14954 13.7017 6.20078 12.9478 6.34053 12.1663C6.47445 11.4174 6.71496 10.5199 7.00313 9.4445L7.53752 7.45011L7.55632 7.37997C5.63577 7.89733 4.62488 8.20342 3.95074 8.83483C3.37332 9.37563 2.96924 10.0755 2.7896 10.846C2.56208 11.8218 2.8642 12.9493 3.46845 15.2044Z" fill="#2D2D2D"/>
<path fill-rule="evenodd" clip-rule="evenodd" d="M21.5432 11.2038L21.0255 13.1357C20.4213 15.3908 20.1191 16.5183 19.4342 17.2496C18.8934 17.827 18.1935 18.2311 17.4231 18.4107C17.3268 18.4332 17.2291 18.4505 17.1289 18.4628C16.2138 18.5757 15.0973 18.2765 13.0647 17.7319C10.8096 17.1276 9.68202 16.8255 8.95074 16.1406C8.37332 15.5998 7.96924 14.8999 7.7896 14.1294C7.56208 13.1536 7.8642 12.0261 8.46845 9.771L8.98609 7.83914C9.07297 7.51491 9.15366 7.21377 9.23008 6.93398C9.68515 5.26794 9.99096 4.35135 10.5774 3.72524C11.1182 3.14782 11.8181 2.74374 12.5886 2.5641C13.5643 2.33658 14.6919 2.6387 16.947 3.24295C19.202 3.8472 20.3296 4.14932 21.0609 4.83424C21.6383 5.37505 22.0424 6.07494 22.222 6.8454C22.4495 7.82117 22.1474 8.94871 21.5432 11.2038ZM11.7663 10.2943C11.8735 9.89416 12.2848 9.65672 12.6849 9.76393L17.5145 11.0581C17.9146 11.1653 18.152 11.5765 18.0448 11.9766C17.9376 12.3767 17.5264 12.6141 17.1263 12.5069L12.2966 11.2128C11.8965 11.1056 11.6591 10.6944 11.7663 10.2943ZM10.9895 13.1917C11.0967 12.7916 11.5079 12.5542 11.908 12.6614L14.8058 13.4379C15.2059 13.5451 15.4433 13.9563 15.3361 14.3564C15.2289 14.7565 14.8177 14.994 14.4176 14.8868L11.5198 14.1103C11.1197 14.0031 10.8822 13.5918 10.9895 13.1917Z" fill="#2D2D2D"/>
</svg>
