<svg width="25" height="25" viewBox="0 0 25 25" fill="none" xmlns="http://www.w3.org/2000/svg">
<path fill-rule="evenodd" clip-rule="evenodd" d="M2.71387 16.632V5.48617C2.71387 4.388 3.60017 3.49589 4.69627 3.56326C5.67264 3.62327 6.82736 3.74188 7.71387 3.97581C8.76308 4.25268 10.01 4.84238 10.9962 5.36383C11.3033 5.52622 11.6298 5.63885 11.9641 5.70234V20.881C11.6611 20.8142 11.3655 20.7064 11.0863 20.5576C10.0868 20.0249 8.79532 19.4071 7.71387 19.1218C6.83716 18.8904 5.69815 18.7719 4.72873 18.7112C3.61992 18.6419 2.71387 17.743 2.71387 16.632ZM5.89595 8.76076C5.4941 8.6603 5.0869 8.90462 4.98644 9.30647C4.88598 9.70831 5.1303 10.1155 5.53215 10.216L9.53215 11.216C9.93399 11.3165 10.3412 11.0721 10.4416 10.6703C10.5421 10.2684 10.2978 9.86122 9.89595 9.76076L5.89595 8.76076ZM5.89595 12.7608C5.4941 12.6603 5.0869 12.9047 4.98644 13.3065C4.88598 13.7083 5.1303 14.1155 5.53215 14.216L9.53215 15.216C9.93399 15.3165 10.3412 15.0721 10.4416 14.6703C10.5421 14.2685 10.2978 13.8613 9.89595 13.7608L5.89595 12.7608Z" fill="#2D2D2D"/>
<path fill-rule="evenodd" clip-rule="evenodd" d="M13.4641 20.8809C13.767 20.8141 14.0624 20.7064 14.3415 20.5576C15.341 20.0249 16.6324 19.4071 17.7139 19.1218C18.5906 18.8904 19.7296 18.7719 20.699 18.7112C21.8079 18.6419 22.7139 17.743 22.7139 16.632V5.42156C22.7139 4.34912 21.8677 3.46878 20.7959 3.50612C19.6673 3.54543 18.2608 3.6624 17.2139 3.97581C16.3063 4.24753 15.2492 4.79255 14.3877 5.29112C14.0963 5.45979 13.7848 5.58367 13.4641 5.66224V20.8809ZM19.896 10.216C20.2978 10.1155 20.5421 9.70831 20.4417 9.30647C20.3412 8.90462 19.934 8.6603 19.5322 8.76076L15.5322 9.76076C15.1303 9.86122 14.886 10.2684 14.9865 10.6703C15.0869 11.0721 15.4941 11.3165 15.896 11.216L19.896 10.216ZM19.896 14.216C20.2978 14.1155 20.5421 13.7083 20.4417 13.3065C20.3412 12.9047 19.934 12.6603 19.5322 12.7608L15.5322 13.7608C15.1303 13.8613 14.886 14.2685 14.9865 14.6703C15.0869 15.0721 15.4941 15.3165 15.896 15.216L19.896 14.216Z" fill="#2D2D2D"/>
</svg>
