<svg width="25" height="25" viewBox="0 0 25 25" fill="none" xmlns="http://www.w3.org/2000/svg">
<path d="M20.7755 13.1357L21.2932 11.2038C21.8974 8.94871 22.1995 7.82117 21.972 6.8454C21.7924 6.07494 21.3883 5.37505 20.8109 4.83424C20.0796 4.14932 18.952 3.8472 16.697 3.24295C14.4419 2.6387 13.3143 2.33658 12.3386 2.5641C11.5681 2.74374 10.8682 3.14782 10.3274 3.72524C9.74096 4.35135 9.43515 5.26794 8.98008 6.93398C8.90366 7.21377 8.82302 7.5147 8.73614 7.83894L8.21845 9.771C7.6142 12.0261 7.31208 13.1536 7.5396 14.1294C7.71924 14.8999 8.12332 15.5998 8.70074 16.1406C9.43202 16.8255 10.5596 17.1276 12.8147 17.7319C14.8473 18.2765 15.9638 18.5757 16.8789 18.4628C16.9791 18.4505 17.0768 18.4332 17.1731 18.4107C17.9435 18.2311 18.6434 17.827 19.1842 17.2496C19.8691 16.5183 20.1713 15.3908 20.7755 13.1357Z" fill="#2D2D2D"/>
<path d="M3.21845 15.2034L3.73609 17.1353C4.34034 19.3904 4.64246 20.5179 5.32738 21.2492C5.86819 21.8266 6.56808 22.2307 7.33853 22.4103C8.31431 22.6378 9.44185 22.3357 11.697 21.7315C13.952 21.1272 15.0796 20.8251 15.8109 20.1402C15.8716 20.0833 15.9303 20.0247 15.9872 19.9645C15.653 19.9364 15.3159 19.8826 14.9733 19.8145C14.2772 19.6761 13.4501 19.4545 12.4719 19.1924L12.3651 19.1637L12.3403 19.1571C11.276 18.8719 10.3867 18.6332 9.67664 18.3767C8.92994 18.1069 8.25147 17.7744 7.67535 17.2348C6.8814 16.4912 6.3258 15.5288 6.07878 14.4695C5.89954 13.7007 5.95078 12.9469 6.09053 12.1653C6.22445 11.4164 6.46496 10.5189 6.75313 9.44353L7.28752 7.44915L7.30632 7.379C5.38577 7.89637 4.37488 8.20246 3.70074 8.83386C3.12332 9.37467 2.71924 10.0745 2.5396 10.845C2.31208 11.8208 2.6142 12.9483 3.21845 15.2034Z" fill="#2D2D2D"/>
</svg>
