<svg width="25" height="25" viewBox="0 0 25 25" fill="none" xmlns="http://www.w3.org/2000/svg">
<path d="M21.9078 3.29462C22.9827 4.36962 22.9827 6.11253 21.9078 7.18752L21.4122 7.68307C21.2679 7.65183 21.0862 7.60427 20.8791 7.53242C20.3248 7.3401 19.5963 6.97664 18.911 6.29138C18.2257 5.60612 17.8623 4.8776 17.67 4.32328C17.5981 4.11619 17.5506 3.93447 17.5193 3.79017L18.0149 3.29462C19.0899 2.21963 20.8328 2.21963 21.9078 3.29462Z" fill="#2D2D2D"/>
<path d="M15.294 13.8012C14.89 14.2052 14.688 14.4072 14.4652 14.581C14.2025 14.7859 13.9182 14.9616 13.6174 15.105C13.3624 15.2265 13.0914 15.3168 12.5493 15.4975L9.69096 16.4503C9.42422 16.5392 9.13013 16.4698 8.93131 16.271C8.73249 16.0721 8.66307 15.7781 8.75198 15.5113L9.70476 12.653C9.88544 12.1109 9.97578 11.8399 10.0973 11.5849C10.2407 11.2841 10.4164 10.9998 10.6213 10.7371C10.7951 10.5143 10.9971 10.3123 11.4011 9.9083L16.3172 4.99222C16.5809 5.68641 17.0432 6.545 17.8502 7.35203C18.6573 8.15906 19.5159 8.62133 20.2101 8.88511L15.294 13.8012Z" fill="#2D2D2D"/>
<path d="M21.2494 21.0239C22.7139 19.5595 22.7139 17.2024 22.7139 12.4884C22.7139 10.9401 22.7139 9.64611 22.662 8.55447L16.2999 14.9167C15.9486 15.2681 15.6847 15.5321 15.3877 15.7637C15.0391 16.0357 14.6619 16.2688 14.2627 16.459C13.9227 16.6211 13.5685 16.739 13.0972 16.896L10.1653 17.8733C9.35955 18.1419 8.47121 17.9322 7.87065 17.3316C7.27008 16.7311 7.06038 15.8427 7.32896 15.037L8.30622 12.1051C8.46323 11.6338 8.58119 11.2796 8.74322 10.9396C8.93345 10.5404 9.16659 10.1632 9.43853 9.81452C9.67017 9.51755 9.93419 9.25365 10.2856 8.90241L16.6478 2.54025C15.5562 2.48837 14.2622 2.48837 12.7139 2.48837C7.99982 2.48837 5.6428 2.48837 4.17834 3.95284C2.71387 5.4173 2.71387 7.77432 2.71387 12.4884C2.71387 17.2024 2.71387 19.5595 4.17834 21.0239C5.6428 22.4884 7.99982 22.4884 12.7139 22.4884C17.4279 22.4884 19.785 22.4884 21.2494 21.0239Z" fill="#2D2D2D"/>
</svg>
