<svg width="25" height="25" viewBox="0 0 25 25" fill="none" xmlns="http://www.w3.org/2000/svg">
<path d="M12.114 18.6496L19.5099 11.2537C18.5033 10.8348 17.3111 10.1466 16.1836 9.01906C15.0559 7.89136 14.3676 6.69896 13.9487 5.69228L6.55269 13.0883C5.97556 13.6655 5.68694 13.9541 5.43877 14.2722C5.146 14.6476 4.89501 15.0537 4.69021 15.4834C4.5166 15.8477 4.38755 16.2349 4.12943 17.0092L2.76832 21.0926C2.6413 21.4736 2.74047 21.8937 3.0245 22.1778C3.30853 22.4618 3.72865 22.561 4.10971 22.434L8.19305 21.0728C8.96738 20.8147 9.35457 20.6857 9.71885 20.5121C10.1486 20.3073 10.5547 20.0563 10.9301 19.7635C11.2482 19.5153 11.5369 19.2267 12.114 18.6496Z" fill="#2D2D2D"/>
<path d="M21.5621 9.20144C23.0978 7.66573 23.0978 5.17586 21.5621 3.64016C20.0264 2.10445 17.5365 2.10445 16.0008 3.64016L15.1138 4.5272C15.126 4.56388 15.1385 4.60106 15.1516 4.63873C15.4767 5.57588 16.0902 6.80439 17.2442 7.9584C18.3982 9.1124 19.6267 9.72587 20.5639 10.051C20.6014 10.064 20.6384 10.0765 20.6749 10.0886L21.5621 9.20144Z" fill="#2D2D2D"/>
</svg>
