<svg width="25" height="25" viewBox="0 0 25 25" fill="none" xmlns="http://www.w3.org/2000/svg">
<path d="M17.2701 13.3946L16.8146 13.8474C16.8146 13.8474 15.732 14.9239 12.777 11.9856C9.82199 9.04738 10.9046 7.97094 10.9046 7.97094L11.1914 7.68575C11.898 6.98321 11.9646 5.85528 11.3481 5.03185L10.0871 3.34745C9.32414 2.32829 7.84983 2.19366 6.97532 3.0632L5.40572 4.62389C4.9721 5.05505 4.68152 5.61396 4.71676 6.23398C4.80691 7.82019 5.52458 11.2331 9.52923 15.215C13.776 19.4376 17.7607 19.6054 19.3902 19.4535C19.9056 19.4055 20.3538 19.143 20.715 18.7838L22.1356 17.3714C23.0945 16.4179 22.8241 14.7833 21.5972 14.1164L19.6867 13.0778C18.8811 12.6399 17.8997 12.7685 17.2701 13.3946Z" fill="#2D2D2D"/>
</svg>
