<svg width="25" height="25" viewBox="0 0 25 25" fill="none" xmlns="http://www.w3.org/2000/svg">
<path fill-rule="evenodd" clip-rule="evenodd" d="M22.7139 12.4884C22.7139 18.0112 18.2367 22.4884 12.7139 22.4884C7.19102 22.4884 2.71387 18.0112 2.71387 12.4884C2.71387 6.96552 7.19102 2.48837 12.7139 2.48837C18.2367 2.48837 22.7139 6.96552 22.7139 12.4884ZM14.8235 8.90715L16.3059 10.391C17.3119 11.3979 17.8148 11.9014 17.6975 12.4441C17.5801 12.9869 16.9142 13.2371 15.5823 13.7375L14.6602 14.0839C14.3035 14.2179 14.1252 14.2849 13.9875 14.4041C13.9273 14.4563 13.8733 14.5154 13.8268 14.5802C13.7207 14.7281 13.6701 14.912 13.5689 15.2797C13.3388 16.116 13.2238 16.5341 12.9498 16.6904C12.8344 16.7563 12.7037 16.7909 12.5708 16.7907C12.2555 16.7902 11.9491 16.4835 11.3364 15.8702L10.8636 15.397L9.24487 17.0183C8.95222 17.3114 8.47735 17.3118 8.18421 17.0192C7.89108 16.7265 7.8907 16.2516 8.18335 15.9585L9.80279 14.3364C9.80258 14.3366 9.80301 14.3362 9.80279 14.3364L9.35649 13.8884C8.7476 13.2789 8.44316 12.9742 8.44118 12.6607C8.44032 12.5252 8.47551 12.3919 8.54313 12.2744C8.69955 12.0029 9.11466 11.8884 9.94484 11.6595C10.3132 11.558 10.4973 11.5072 10.6454 11.4007C10.7118 11.3528 10.7722 11.2972 10.8253 11.2349C10.9437 11.096 11.0095 10.9165 11.141 10.5574L11.475 9.6459C11.9684 8.29915 12.2152 7.62577 12.7594 7.50571C13.3035 7.38565 13.8102 7.89282 14.8235 8.90715Z" fill="#2D2D2D"/>
</svg>
