<svg width="25" height="25" viewBox="0 0 25 25" fill="none" xmlns="http://www.w3.org/2000/svg">
<path d="M19.8974 8.29354L16.9327 5.32593C14.906 3.29728 13.8927 2.28295 12.8043 2.52306C11.716 2.76318 11.2225 4.10993 10.2356 6.80344L9.5676 8.62648C9.30449 9.34455 9.17295 9.70358 8.93625 9.9813C8.83005 10.1059 8.70923 10.2172 8.57638 10.3129C8.2803 10.5261 7.91197 10.6276 7.17531 10.8307C5.51494 11.2884 4.68474 11.5173 4.3719 12.0605C4.23666 12.2953 4.16628 12.5619 4.16799 12.833C4.17195 13.4599 4.78084 14.0694 5.99862 15.2884L7.41321 16.7047L2.93731 21.1848C2.63938 21.483 2.63938 21.9666 2.93731 22.2648C3.23524 22.563 3.71829 22.563 4.01622 22.2648L8.49227 17.7845L9.95827 19.2519C11.1838 20.4786 11.7966 21.092 12.4273 21.0929C12.6931 21.0933 12.9543 21.0242 13.1852 20.8925C13.7331 20.5798 13.9632 19.7435 14.4234 18.0709C14.6258 17.3356 14.7269 16.9679 14.9393 16.6719C15.0323 16.5424 15.1401 16.4242 15.2607 16.3198C15.536 16.0814 15.8927 15.9474 16.6061 15.6794L18.4501 14.9865C21.1139 13.9857 22.4458 13.4853 22.6806 12.3999C22.9153 11.3144 21.9093 10.3074 19.8974 8.29354Z" fill="#2D2D2D"/>
</svg>
