<svg width="25" height="25" viewBox="0 0 25 25" fill="none" xmlns="http://www.w3.org/2000/svg">
<path fill-rule="evenodd" clip-rule="evenodd" d="M12.7139 22.4884C7.99982 22.4884 5.6428 22.4884 4.17834 21.0239C2.71387 19.5595 2.71387 17.2024 2.71387 12.4884C2.71387 7.77432 2.71387 5.4173 4.17834 3.95284C5.6428 2.48837 7.99982 2.48837 12.7139 2.48837C17.4279 2.48837 19.785 2.48837 21.2494 3.95284C22.7139 5.4173 22.7139 7.77432 22.7139 12.4884C22.7139 17.2024 22.7139 19.5595 21.2494 21.0239C19.785 22.4884 17.4279 22.4884 12.7139 22.4884ZM12.7139 8.23837C12.0926 8.23837 11.5889 8.74205 11.5889 9.36337C11.5889 9.77758 11.2531 10.1134 10.8389 10.1134C10.4247 10.1134 10.0889 9.77758 10.0889 9.36337C10.0889 7.91362 11.2642 6.73837 12.7139 6.73837C14.1636 6.73837 15.3389 7.91362 15.3389 9.36337C15.3389 10.0742 15.0554 10.7204 14.5969 11.1924C14.5046 11.2873 14.4166 11.3753 14.3326 11.4592C14.1168 11.6748 13.9277 11.8637 13.7618 12.0769C13.5428 12.3583 13.4639 12.5652 13.4639 12.7384V13.4884C13.4639 13.9026 13.1281 14.2384 12.7139 14.2384C12.2997 14.2384 11.9639 13.9026 11.9639 13.4884V12.7384C11.9639 12.0832 12.2689 11.5528 12.5781 11.1556C12.8068 10.8617 13.0943 10.5747 13.3277 10.3418C13.3981 10.2716 13.4635 10.2063 13.5209 10.1471C13.7185 9.9438 13.8389 9.66841 13.8389 9.36337C13.8389 8.74205 13.3352 8.23837 12.7139 8.23837ZM12.7139 17.4884C13.2662 17.4884 13.7139 17.0407 13.7139 16.4884C13.7139 15.9361 13.2662 15.4884 12.7139 15.4884C12.1616 15.4884 11.7139 15.9361 11.7139 16.4884C11.7139 17.0407 12.1616 17.4884 12.7139 17.4884Z" fill="#2D2D2D"/>
</svg>
