<?xml version="1.0" encoding="UTF-8" standalone="no"?>
<svg
   width="25"
   height="25"
   viewBox="0 0 25 25"
   fill="none"
   version="1.1"
   id="svg1"
   xmlns="http://www.w3.org/2000/svg"
   xmlns:svg="http://www.w3.org/2000/svg">
  <defs
     id="defs1" />
  <path
     d="M 11.052092,5.67178 6.0742925,10.0965 c -0.9306,0.8272 -1.3959,1.2408 -1.5673,1.7292 -0.1506,0.4289 -0.1506,0.8962 0,1.3251 0.1714,0.4884 0.6367,0.902 1.5673,1.7292 l 4.9777995,4.4247 c 0.4223,0.3754 0.6335,0.5631 0.8128,0.5698 0.1558,0.0058 0.3054,-0.0614 0.4046,-0.1817 0.1141,-0.1385 0.1141,-0.421 0.1141,-0.986 v -2.79 c 2.4281,0 4.9927,0.7799 6.86532,2.1642 0.97489,0.7207 1.46236,1.0811 1.64802,1.0669 0.18097,-0.0139 0.29583,-0.0845 0.38973,-0.2399 0.09633,-0.1593 0.01124,-0.6572 -0.15893,-1.653 -1.10497,-6.4662 -5.55494,-8.19534 -8.74414,-8.19534 V 6.26971 c 0,-0.56502 0,-0.84753 -0.1141,-0.98603 -0.0992,-0.12033 -0.2488,-0.18751 -0.4046,-0.18168 -0.1793,0.00671 -0.3905,0.1944 -0.8128,0.56978 z"
     fill="#2d2d2d"
     id="path1" />
</svg>
