<svg width="25" height="25" viewBox="0 0 25 25" fill="none" xmlns="http://www.w3.org/2000/svg">
<path fill-rule="evenodd" clip-rule="evenodd" d="M2.71387 12.4884C2.71387 7.77432 2.71387 5.4173 4.17834 3.95284C5.6428 2.48837 7.99982 2.48837 12.7139 2.48837C17.4279 2.48837 19.785 2.48837 21.2494 3.95284C22.7139 5.4173 22.7139 7.77432 22.7139 12.4884C22.7139 17.2024 22.7139 19.5595 21.2494 21.0239C19.785 22.4884 17.4279 22.4884 12.7139 22.4884C7.99982 22.4884 5.6428 22.4884 4.17834 21.0239C2.71387 19.5595 2.71387 17.2024 2.71387 12.4884ZM16.6485 6.07995C16.9309 6.19499 17.1156 6.46958 17.1156 6.77453V9.48904C17.1156 9.90326 16.7798 10.239 16.3656 10.239H13.7139C13.4122 10.239 13.1398 10.0582 13.0227 9.78011C12.9056 9.50201 12.9666 9.18082 13.1774 8.96496L13.9389 8.18542C12.4934 7.7398 10.8606 8.1014 9.71484 9.27433C8.04688 10.9819 8.04688 13.7574 9.71484 15.4649C11.3732 17.1626 14.0546 17.1626 15.7129 15.4649C16.3908 14.771 16.7944 13.8996 16.9208 12.9929C16.979 12.5749 17.3111 12.2233 17.7331 12.2233C18.1385 12.2233 18.4748 12.5479 18.4356 12.9514C18.3096 14.249 17.761 15.5149 16.7859 16.5131C14.5391 18.8132 10.8887 18.8132 8.64183 16.5131C6.40455 14.2228 6.40455 10.5165 8.64183 8.22617C10.3794 6.44742 12.9579 6.04302 15.0786 7.01874L15.8291 6.25045C16.0422 6.0323 16.3661 5.9649 16.6485 6.07995Z" fill="#2D2D2D"/>
</svg>
