<svg width="25" height="25" viewBox="0 0 25 25" fill="none" xmlns="http://www.w3.org/2000/svg">
<path d="M18.9716 3.99665C19.2519 4.11274 19.4346 4.38622 19.4346 4.68956V8.9322C19.4346 9.34642 19.0988 9.6822 18.6846 9.6822H14.4419C14.1386 9.6822 13.8651 9.49947 13.749 9.21922C13.633 8.93896 13.6971 8.61637 13.9116 8.40187L15.5146 6.79887C12.8813 5.69749 9.72992 6.21927 7.58734 8.36185C4.75603 11.1932 4.75603 15.7836 7.58734 18.6149C10.4186 21.4462 15.0091 21.4462 17.8404 18.6149C19.4866 16.9687 20.1761 14.7285 19.9074 12.5821C19.8559 12.1711 20.1474 11.7962 20.5584 11.7447C20.9694 11.6933 21.3443 11.9847 21.3958 12.3957C21.7196 14.9818 20.8885 17.6881 18.9011 19.6756C15.484 23.0927 9.94376 23.0927 6.52668 19.6756C3.10959 16.2585 3.10959 10.7183 6.52668 7.30119C9.26505 4.56281 13.3654 4.01957 16.6448 5.66865L18.1543 4.15923C18.3688 3.94474 18.6913 3.88057 18.9716 3.99665Z" fill="#2D2D2D"/>
</svg>
