<svg width="25" height="25" viewBox="0 0 25 25" fill="none" xmlns="http://www.w3.org/2000/svg">
<path d="M8.96387 2.48837H6.71387C4.82825 2.48837 3.88544 2.48837 3.29966 3.07416C2.71387 3.65994 2.71387 4.60275 2.71387 6.48837V8.73837H5.71387C6.12808 8.73837 6.46387 9.07416 6.46387 9.48837C6.46387 9.90258 6.12808 10.2384 5.71387 10.2384H2.71387V11.7384H4.71387C5.12808 11.7384 5.46387 12.0742 5.46387 12.4884C5.46387 12.9026 5.12808 13.2384 4.71387 13.2384H2.71387V14.7384H5.71387C6.12808 14.7384 6.46387 15.0742 6.46387 15.4884C6.46387 15.9026 6.12808 16.2384 5.71387 16.2384H2.71387V17.7384H4.71387C5.12808 17.7384 5.46387 18.0742 5.46387 18.4884C5.46387 18.9026 5.12808 19.2384 4.71387 19.2384H2.71395C2.71513 20.478 2.73449 21.126 3.05093 21.5995C3.19685 21.8179 3.38435 22.0054 3.60273 22.1513C4.10718 22.4884 4.80941 22.4884 6.21387 22.4884C7.61833 22.4884 8.32056 22.4884 8.82501 22.1513C9.04339 22.0054 9.23089 21.8179 9.37681 21.5995C9.71387 21.0951 9.71387 20.3929 9.71387 18.9884V11.4884C9.71387 10.5456 9.71387 10.0742 10.0068 9.78126C10.2997 9.48837 10.7711 9.48837 11.7139 9.48837H19.2139C20.6184 9.48837 21.3206 9.48837 21.825 9.15131C22.0434 9.00539 22.2309 8.81789 22.3768 8.59951C22.7139 8.09506 22.7139 7.39283 22.7139 5.98837C22.7139 4.58391 22.7139 3.88168 22.3768 3.37723C22.2309 3.15885 22.0434 2.97135 21.825 2.82543C21.3515 2.50899 20.7035 2.48963 19.4639 2.48845V4.48837C19.4639 4.90258 19.1281 5.23837 18.7139 5.23837C18.2997 5.23837 17.9639 4.90258 17.9639 4.48837V2.48837H16.4639V5.48837C16.4639 5.90258 16.1281 6.23837 15.7139 6.23837C15.2997 6.23837 14.9639 5.90258 14.9639 5.48837V2.48837H13.4639V4.48837C13.4639 4.90258 13.1281 5.23837 12.7139 5.23837C12.2997 5.23837 11.9639 4.90258 11.9639 4.48837V2.48837H10.4639V5.48837C10.4639 5.90258 10.1281 6.23837 9.71387 6.23837C9.29966 6.23837 8.96387 5.90258 8.96387 5.48837V2.48837Z" fill="#2D2D2D"/>
</svg>
