<svg width="25" height="25" viewBox="0 0 25 25" fill="none" xmlns="http://www.w3.org/2000/svg">
<path d="M7.36763 2.12094C7.16463 1.75988 6.70736 1.63175 6.34631 1.83475C5.98525 2.03775 5.85711 2.49501 6.06011 2.85607L11.8535 13.1602L9.14613 17.9755C8.56451 16.6581 7.24657 15.7385 5.71387 15.7385C3.6428 15.7385 1.96387 17.4175 1.96387 19.4885C1.96387 21.5596 3.6428 23.2385 5.71387 23.2385C7.13673 23.2385 8.3745 22.4461 9.00993 21.2785L12.7139 14.6906L16.4178 21.2784C17.0532 22.4461 18.291 23.2385 19.7139 23.2385C21.785 23.2385 23.4639 21.5596 23.4639 19.4885C23.4639 17.4175 21.785 15.7385 19.7139 15.7385C18.1812 15.7385 16.8633 16.658 16.2816 17.9755L13.5743 13.1602L19.3677 2.85607C19.5707 2.49501 19.4425 2.03775 19.0815 1.83475C18.7204 1.63175 18.2631 1.75988 18.0601 2.12094L12.7139 11.6299L7.36763 2.12094Z" fill="#2D2D2D"/>
</svg>
