<svg width="25" height="25" viewBox="0 0 25 25" fill="none" xmlns="http://www.w3.org/2000/svg">
<path fill-rule="evenodd" clip-rule="evenodd" d="M4.17834 3.95284C2.71387 5.4173 2.71387 7.77432 2.71387 12.4884C2.71387 17.2024 2.71387 19.5595 4.17834 21.0239C5.6428 22.4884 7.99982 22.4884 12.7139 22.4884C17.4279 22.4884 19.785 22.4884 21.2494 21.0239C22.7139 19.5595 22.7139 17.2024 22.7139 12.4884C22.7139 7.77432 22.7139 5.4173 21.2494 3.95284C19.785 2.48837 17.4279 2.48837 12.7139 2.48837C7.99982 2.48837 5.6428 2.48837 4.17834 3.95284ZM17.0929 5.84131C16.7355 5.63198 16.2761 5.75204 16.0667 6.10946L12.714 11.8341L9.36129 6.10946C9.15196 5.75204 8.69251 5.63198 8.33508 5.84131C7.97766 6.05064 7.8576 6.51009 8.06693 6.86752L11.8449 13.3182L10.7334 15.2161C10.2529 14.5587 9.46171 14.1385 8.58887 14.1385C7.16827 14.1385 5.96387 15.2516 5.96387 16.6885C5.96387 18.1254 7.16827 19.2385 8.58887 19.2385C9.5812 19.2385 10.468 18.6954 10.9126 17.8782L12.714 14.8023L14.5154 17.8782C14.96 18.6954 15.8468 19.2385 16.8391 19.2385C18.2597 19.2385 19.4641 18.1254 19.4641 16.6885C19.4641 15.2516 18.2597 14.1385 16.8391 14.1385C15.9663 14.1385 15.1751 14.5587 14.6947 15.2161L13.5832 13.3182L17.3611 6.86752C17.5704 6.51009 17.4504 6.05064 17.0929 5.84131Z" fill="#2D2D2D"/>
</svg>
