<svg width="25" height="25" viewBox="0 0 25 25" fill="none" xmlns="http://www.w3.org/2000/svg">
<path fill-rule="evenodd" clip-rule="evenodd" d="M14.9927 2.64061C14.6224 2.48837 14.1529 2.48837 13.2139 2.48837C12.2749 2.48837 11.8054 2.48837 11.4351 2.64061C10.9413 2.8436 10.549 3.23295 10.3444 3.723C10.2511 3.94671 10.2145 4.20687 10.2002 4.58636C10.1792 5.14405 9.89103 5.66026 9.40404 5.9393C8.91705 6.21833 8.3225 6.20791 7.82535 5.94713C7.48704 5.76967 7.24176 5.67099 6.99986 5.63939C6.46996 5.57015 5.93405 5.71266 5.51003 6.03557C5.19201 6.27775 4.95725 6.68127 4.48776 7.4883C4.01827 8.29534 3.78353 8.69885 3.73121 9.09328C3.66144 9.61917 3.80504 10.151 4.13041 10.5719C4.27892 10.764 4.48764 10.9254 4.81157 11.1274C5.28778 11.4244 5.59418 11.9303 5.59415 12.4884C5.59412 13.0465 5.28772 13.5523 4.81157 13.8492C4.48759 14.0513 4.27883 14.2128 4.13031 14.4049C3.80494 14.8257 3.66136 15.3575 3.73112 15.8834C3.78344 16.2778 4.01818 16.6814 4.48766 17.4884C4.95715 18.2954 5.19191 18.699 5.50993 18.9411C5.93394 19.264 6.46986 19.4065 6.99976 19.3373C7.24165 19.3057 7.48691 19.207 7.82519 19.0296C8.32238 18.7688 8.91696 18.7584 9.40398 19.0374C9.891 19.3165 10.1792 19.8327 10.2002 20.3905C10.2145 20.7699 10.2511 21.0301 10.3444 21.2538C10.549 21.7438 10.9413 22.1332 11.4351 22.3362C11.8054 22.4884 12.2749 22.4884 13.2139 22.4884C14.1529 22.4884 14.6224 22.4884 14.9927 22.3362C15.4865 22.1332 15.8788 21.7438 16.0833 21.2538C16.1767 21.0301 16.2133 20.7699 16.2276 20.3904C16.2486 19.8327 16.5367 19.3165 17.0237 19.0374C17.5107 18.7583 18.1053 18.7688 18.6025 19.0296C18.9408 19.207 19.186 19.3056 19.4279 19.3372C19.9578 19.4065 20.4937 19.264 20.9177 18.9411C21.2358 18.6989 21.4705 18.2954 21.94 17.4883C22.4095 16.6813 22.6442 16.2778 22.6966 15.8834C22.7663 15.3575 22.6227 14.8256 22.2974 14.4048C22.1488 14.2127 21.9401 14.0512 21.6161 13.8492C21.14 13.5523 20.8336 13.0464 20.8336 12.4883C20.8336 11.9302 21.14 11.4245 21.6161 11.1276C21.9402 10.9255 22.1489 10.7641 22.2975 10.5719C22.6228 10.1511 22.7664 9.61924 22.6967 9.09334C22.6443 8.69892 22.4096 8.2954 21.9401 7.48837C21.4706 6.68134 21.2359 6.27782 20.9178 6.03564C20.4938 5.71273 19.9579 5.57022 19.428 5.63946C19.1861 5.67106 18.9408 5.76973 18.6026 5.94717C18.1054 6.20796 17.5108 6.21839 17.0238 5.93933C16.5368 5.66028 16.2486 5.14403 16.2275 4.58631C16.2132 4.20685 16.1767 3.9467 16.0833 3.723C15.8788 3.23295 15.4865 2.8436 14.9927 2.64061ZM13.2139 15.4884C14.8834 15.4884 16.2367 14.1453 16.2367 12.4884C16.2367 10.8315 14.8834 9.48837 13.2139 9.48837C11.5444 9.48837 10.191 10.8315 10.191 12.4884C10.191 14.1453 11.5444 15.4884 13.2139 15.4884Z" fill="#2D2D2D"/>
</svg>
