<svg width="25" height="25" viewBox="0 0 25 25" fill="none" xmlns="http://www.w3.org/2000/svg">
<path d="M3.71388 10.9051C3.71388 7.70744 3.71388 6.10865 4.0914 5.57078C4.46891 5.03291 5.9722 4.51833 8.97879 3.48916L9.5516 3.29309C11.1189 2.75661 11.9025 2.48837 12.7139 2.48837C13.5253 2.48837 14.3089 2.75661 15.8762 3.29309L16.449 3.48916C19.4556 4.51833 20.9589 5.03291 21.3364 5.57078C21.7139 6.10865 21.7139 7.70744 21.7139 10.9051C21.7139 11.388 21.7139 11.9118 21.7139 12.4798C21.7139 18.1178 17.4749 20.8539 14.8153 22.0157C14.0939 22.3308 13.7332 22.4884 12.7139 22.4884C11.6946 22.4884 11.3339 22.3308 10.6124 22.0157C7.95284 20.8539 3.71388 18.1178 3.71388 12.4798C3.71388 11.9118 3.71388 11.388 3.71388 10.9051Z" fill="#2D2D2D"/>
</svg>
