<svg width="25" height="25" viewBox="0 0 25 25" fill="none" xmlns="http://www.w3.org/2000/svg">
<path fill-rule="evenodd" clip-rule="evenodd" d="M3.71387 10.9051C3.71387 7.70744 3.71387 6.10865 4.09139 5.57078C4.4689 5.03291 5.97219 4.51833 8.97878 3.48916L9.55159 3.29309C11.1189 2.75661 11.9025 2.48837 12.7139 2.48837C13.5253 2.48837 14.3089 2.75661 15.8762 3.29309L16.449 3.48916C19.4556 4.51833 20.9589 5.03291 21.3364 5.57078C21.7139 6.10865 21.7139 7.70744 21.7139 10.9051V12.4798C21.7139 18.1178 17.4749 20.8539 14.8153 22.0157C14.0939 22.3308 13.7332 22.4884 12.7139 22.4884C11.6946 22.4884 11.3339 22.3308 10.6124 22.0157C7.95283 20.8539 3.71387 18.1178 3.71387 12.4798V10.9051ZM14.7139 9.48837C14.7139 10.593 13.8185 11.4884 12.7139 11.4884C11.6093 11.4884 10.7139 10.593 10.7139 9.48837C10.7139 8.3838 11.6093 7.48837 12.7139 7.48837C13.8185 7.48837 14.7139 8.3838 14.7139 9.48837ZM12.7139 17.4884C16.7139 17.4884 16.7139 16.593 16.7139 15.4884C16.7139 14.3838 14.923 13.4884 12.7139 13.4884C10.5047 13.4884 8.71387 14.3838 8.71387 15.4884C8.71387 16.593 8.71387 17.4884 12.7139 17.4884Z" fill="#2D2D2D"/>
</svg>
