<svg width="25" height="25" viewBox="0 0 25 25" fill="none" xmlns="http://www.w3.org/2000/svg">
<path d="M8.31766 5.09216C10.0535 3.3563 10.9215 2.48837 12 2.48837C13.0785 2.48837 13.9465 3.3563 15.6823 5.09216L20.1011 9.51093C21.8369 11.2468 22.7049 12.1147 22.7049 13.1933C22.7049 14.2718 21.8369 15.1397 20.1011 16.8756C18.3652 18.6114 17.4973 19.4794 16.4188 19.4794C15.3402 19.4794 14.4723 18.6114 12.7365 16.8756L8.31766 12.4568C6.5818 10.721 5.71387 9.85299 5.71387 8.77447C5.71387 7.69594 6.5818 6.82802 8.31766 5.09216Z" fill="#2D2D2D"/>
<path d="M7.99787 14.2583L3.53968 18.7165C3.19724 19.059 3.02601 19.2302 2.92317 19.4083C2.6441 19.8917 2.6441 20.4872 2.92317 20.9706C3.02601 21.1487 3.19723 21.3199 3.53965 21.6623C3.8821 22.0048 4.05335 22.176 4.23147 22.2789C4.71484 22.558 5.31037 22.558 5.79374 22.2789C5.97186 22.176 6.14308 22.0048 6.48553 21.6624L10.9437 17.2042L7.99787 14.2583Z" fill="#2D2D2D"/>
<path d="M9.05859 13.1977L9.06298 13.1933L12.0088 16.1391L12.0044 16.1435L9.05859 13.1977Z" fill="#2D2D2D"/>
<path d="M20.3824 7.67098C20.6371 7.19567 20.6291 6.62101 20.3583 6.15196C20.2554 5.97384 20.0842 5.80262 19.7418 5.46018C19.3993 5.11773 19.2281 4.94651 19.05 4.84367C18.5809 4.57287 18.0063 4.56484 17.531 4.8196L20.3824 7.67098Z" fill="#2D2D2D"/>
</svg>
