<svg width="25" height="25" viewBox="0 0 25 25" fill="none" xmlns="http://www.w3.org/2000/svg">
<path fill-rule="evenodd" clip-rule="evenodd" d="M12.7655 2.48837H12.6623C10.9821 2.48836 9.65119 2.48834 8.60962 2.63082C7.53769 2.77745 6.67008 3.0864 5.98586 3.78255C5.30165 4.4787 4.998 5.36145 4.85388 6.45207C4.71384 7.5118 4.71386 8.86588 4.71387 10.5754V14.4013C4.71386 16.1109 4.71384 17.465 4.85388 18.5247C4.998 19.6153 5.30165 20.4981 5.98586 21.1942C6.67008 21.8904 7.53769 22.1993 8.60962 22.3459C9.65118 22.4884 10.9821 22.4884 12.6623 22.4884H12.7655C14.4457 22.4884 15.7766 22.4884 16.8182 22.3459C17.8901 22.1993 18.7577 21.8904 19.4419 21.1942C20.1261 20.4981 20.4298 19.6153 20.5739 18.5247C20.7139 17.465 20.7139 16.1109 20.7139 14.4014V10.5755C20.7139 8.86591 20.7139 7.5118 20.5739 6.45207C20.4298 5.36145 20.1261 4.4787 19.4419 3.78255C18.7577 3.0864 17.8901 2.77745 16.8182 2.63082C15.7766 2.48834 14.4457 2.48836 12.7655 2.48837ZM9.2853 19C9.2853 18.6147 9.5923 18.3024 9.97101 18.3024H15.4568C15.8355 18.3024 16.1425 18.6147 16.1425 19C16.1425 19.3853 15.8355 19.6977 15.4568 19.6977H9.97101C9.5923 19.6977 9.2853 19.3853 9.2853 19Z" fill="#2D2D2D"/>
</svg>
