<svg width="25" height="25" viewBox="0 0 25 25" fill="none" xmlns="http://www.w3.org/2000/svg">
<path fill-rule="evenodd" clip-rule="evenodd" d="M6.59267 3.36705C5.71399 4.24573 5.71399 5.65994 5.71399 8.48837V16.4884C5.71399 19.3168 5.71399 20.731 6.59267 21.6097C7.47135 22.4884 8.88557 22.4884 11.714 22.4884H13.714C16.5424 22.4884 17.9566 22.4884 18.8353 21.6097C19.714 20.731 19.714 19.3168 19.714 16.4884V8.48837C19.714 5.65994 19.714 4.24573 18.8353 3.36705C17.9566 2.48837 16.5424 2.48837 13.714 2.48837H11.714C8.88557 2.48837 7.47135 2.48837 6.59267 3.36705ZM10.214 18.7384C9.79978 18.7384 9.46399 19.0742 9.46399 19.4884C9.46399 19.9026 9.79978 20.2384 10.214 20.2384H15.214C15.6282 20.2384 15.964 19.9026 15.964 19.4884C15.964 19.0742 15.6282 18.7384 15.214 18.7384H10.214Z" fill="#2D2D2D"/>
<path fill-rule="evenodd" clip-rule="evenodd" d="M2.37862 5.81755C2.74911 5.63231 3.19961 5.78248 3.38485 6.15296L4.16125 7.70575C4.40758 8.19842 4.40758 8.77832 4.16125 9.27099L3.60846 10.3766C3.57327 10.4469 3.57327 10.5298 3.60846 10.6002L4.16125 11.7058C4.40758 12.1985 4.40758 12.7784 4.16125 13.271L3.60846 14.3766C3.57327 14.447 3.57327 14.5298 3.60846 14.6002L4.16125 15.7058C4.40758 16.1984 4.40758 16.7784 4.16125 17.271L3.38485 18.8238C3.19961 19.1943 2.74911 19.3445 2.37862 19.1592C2.00814 18.974 1.85797 18.5235 2.04321 18.153L2.81961 16.6002C2.8548 16.5298 2.8548 16.447 2.81961 16.3766L2.26682 15.271C2.02048 14.7784 2.02048 14.1984 2.26682 13.7058L2.81961 12.6002C2.8548 12.5298 2.8548 12.447 2.81961 12.3766L2.26682 11.271C2.02048 10.7784 2.02048 10.1984 2.26682 9.70575L2.81961 8.60017C2.8548 8.52979 2.8548 8.44695 2.81961 8.37657L2.04321 6.82378C1.85797 6.4533 2.00814 6.00279 2.37862 5.81755ZM23.0495 5.81755C23.42 6.00279 23.5701 6.4533 23.3849 6.82378L22.6085 8.37657C22.5733 8.44695 22.5733 8.52979 22.6085 8.60017L23.1613 9.70575C23.4076 10.1984 23.4076 10.7784 23.1613 11.271L22.6085 12.3766C22.5733 12.447 22.5733 12.5298 22.6085 12.6002L23.1613 13.7058C23.4076 14.1984 23.4076 14.7784 23.1613 15.271L22.6085 16.3766C22.5733 16.447 22.5733 16.5298 22.6085 16.6002L23.3849 18.153C23.5701 18.5235 23.42 18.974 23.0495 19.1592C22.679 19.3445 22.2285 19.1943 22.0432 18.8238L21.2668 17.271C21.0205 16.7784 21.0205 16.1984 21.2668 15.7058L21.8196 14.6002C21.8548 14.5298 21.8548 14.447 21.8196 14.3766L21.2668 13.271C21.0205 12.7784 21.0205 12.1984 21.2668 11.7058L21.8196 10.6002C21.8548 10.5298 21.8548 10.4469 21.8196 10.3766L21.2668 9.27099C21.0205 8.77832 21.0205 8.19842 21.2668 7.70575L22.0432 6.15296C22.2285 5.78248 22.679 5.63231 23.0495 5.81755Z" fill="#2D2D2D"/>
</svg>
