<svg width="25" height="25" viewBox="0 0 25 25" fill="none" xmlns="http://www.w3.org/2000/svg">
<path d="M12.7139 6.73837C12.0235 6.73837 11.4639 7.29801 11.4639 7.98837C11.4639 8.67873 12.0235 9.23837 12.7139 9.23837C13.4043 9.23837 13.9639 8.67873 13.9639 7.98837C13.9639 7.29801 13.4043 6.73837 12.7139 6.73837Z" fill="#2D2D2D"/>
<path d="M10.4639 15.9884C10.4639 14.7458 11.4713 13.7384 12.7139 13.7384C13.9565 13.7384 14.9639 14.7458 14.9639 15.9884C14.9639 17.231 13.9565 18.2384 12.7139 18.2384C11.4713 18.2384 10.4639 17.231 10.4639 15.9884Z" fill="#2D2D2D"/>
<path fill-rule="evenodd" clip-rule="evenodd" d="M4.71387 10.4884C4.71387 6.71713 4.71387 4.83152 5.88544 3.65994C7.05702 2.48837 8.94263 2.48837 12.7139 2.48837C16.4851 2.48837 18.3708 2.48837 19.5423 3.65994C20.7139 4.83152 20.7139 6.71713 20.7139 10.4884V14.4884C20.7139 18.2596 20.7139 20.1453 19.5423 21.3168C18.3708 22.4884 16.4851 22.4884 12.7139 22.4884C8.94263 22.4884 7.05702 22.4884 5.88544 21.3168C4.71387 20.1453 4.71387 18.2596 4.71387 14.4884V10.4884ZM9.96387 7.98837C9.96387 6.46959 11.1951 5.23837 12.7139 5.23837C14.2327 5.23837 15.4639 6.46959 15.4639 7.98837C15.4639 9.50715 14.2327 10.7384 12.7139 10.7384C11.1951 10.7384 9.96387 9.50715 9.96387 7.98837ZM12.7139 12.2384C10.6428 12.2384 8.96387 13.9173 8.96387 15.9884C8.96387 18.0595 10.6428 19.7384 12.7139 19.7384C14.785 19.7384 16.4639 18.0595 16.4639 15.9884C16.4639 13.9173 14.785 12.2384 12.7139 12.2384Z" fill="#2D2D2D"/>
</svg>
