<svg width="25" height="25" viewBox="0 0 25 25" fill="none" xmlns="http://www.w3.org/2000/svg">
<path d="M17.7139 12.4884C17.7139 15.2498 15.4753 17.4884 12.7139 17.4884C9.95245 17.4884 7.71387 15.2498 7.71387 12.4884C7.71387 9.72695 9.95245 7.48837 12.7139 7.48837C15.4753 7.48837 17.7139 9.72695 17.7139 12.4884Z" fill="#2D2D2D"/>
<path fill-rule="evenodd" clip-rule="evenodd" d="M12.7139 1.73837C13.1281 1.73837 13.4639 2.07416 13.4639 2.48837V4.48837C13.4639 4.90258 13.1281 5.23837 12.7139 5.23837C12.2997 5.23837 11.9639 4.90258 11.9639 4.48837V2.48837C11.9639 2.07416 12.2997 1.73837 12.7139 1.73837ZM4.38252 4.20446C4.66202 3.89876 5.13642 3.87752 5.44212 4.15702L7.66413 6.18861C7.96983 6.46811 7.99107 6.9425 7.71157 7.2482C7.43207 7.5539 6.95767 7.57514 6.65197 7.29564L4.42996 5.26406C4.12426 4.98456 4.10302 4.51016 4.38252 4.20446ZM21.0453 4.20446C21.3248 4.51016 21.3035 4.98456 20.9978 5.26406L18.7758 7.29564C18.4701 7.57514 17.9957 7.5539 17.7162 7.2482C17.4367 6.9425 17.4579 6.46811 17.7636 6.18861L19.9857 4.15702C20.2914 3.87752 20.7657 3.89876 21.0453 4.20446ZM1.96387 12.4884C1.96387 12.0742 2.29966 11.7384 2.71387 11.7384H4.71387C5.12808 11.7384 5.46387 12.0742 5.46387 12.4884C5.46387 12.9026 5.12808 13.2384 4.71387 13.2384H2.71387C2.29966 13.2384 1.96387 12.9026 1.96387 12.4884ZM19.9639 12.4884C19.9639 12.0742 20.2997 11.7384 20.7139 11.7384H22.7139C23.1281 11.7384 23.4639 12.0742 23.4639 12.4884C23.4639 12.9026 23.1281 13.2384 22.7139 13.2384H20.7139C20.2997 13.2384 19.9639 12.9026 19.9639 12.4884ZM17.7394 17.5136C18.0323 17.2207 18.5072 17.2207 18.8001 17.5136L21.0221 19.7359C21.315 20.0288 21.3149 20.5037 21.022 20.7966C20.7291 21.0895 20.2542 21.0894 19.9614 20.7965L17.7394 18.5742C17.4465 18.2813 17.4465 17.8065 17.7394 17.5136ZM7.68854 17.5137C7.98143 17.8066 7.98143 18.2815 7.68854 18.5744L5.46631 20.7966C5.17342 21.0895 4.69855 21.0895 4.40565 20.7966C4.11276 20.5037 4.11276 20.0288 4.40565 19.736L6.62788 17.5137C6.92077 17.2208 7.39564 17.2208 7.68854 17.5137ZM12.7139 19.7384C13.1281 19.7384 13.4639 20.0742 13.4639 20.4884V22.4884C13.4639 22.9026 13.1281 23.2384 12.7139 23.2384C12.2997 23.2384 11.9639 22.9026 11.9639 22.4884V20.4884C11.9639 20.0742 12.2997 19.7384 12.7139 19.7384Z" fill="#2D2D2D"/>
</svg>
