<svg width="25" height="25" viewBox="0 0 25 25" fill="none" xmlns="http://www.w3.org/2000/svg">
<path d="M3.71387 6.87434C3.71387 6.38989 4.05925 5.99716 4.4853 5.99716L7.14954 5.99669C7.67889 5.98143 8.14589 5.5987 8.32601 5.03249C8.33075 5.0176 8.33619 4.99924 8.35572 4.93261L8.47052 4.54093C8.54077 4.30078 8.60197 4.09155 8.68762 3.90454C9.02596 3.16573 9.65195 2.65269 10.3753 2.52134C10.5584 2.48809 10.7524 2.48823 10.975 2.48839H14.453C14.6756 2.48823 14.8695 2.48809 15.0526 2.52134C15.776 2.65269 16.402 3.16573 16.7403 3.90454C16.826 4.09155 16.8872 4.30078 16.9574 4.54093L17.0722 4.93261C17.0917 4.99924 17.0972 5.0176 17.1019 5.03249C17.2821 5.5987 17.8417 5.9819 18.371 5.99716H20.9425C21.3685 5.99716 21.7139 6.38989 21.7139 6.87434C21.7139 7.3588 21.3685 7.75153 20.9425 7.75153H4.4853C4.05925 7.75153 3.71387 7.3588 3.71387 6.87434Z" fill="#2D2D2D"/>
<path fill-rule="evenodd" clip-rule="evenodd" d="M12.3095 22.4885H13.1183C15.901 22.4885 17.2924 22.4885 18.197 21.6026C19.1017 20.7167 19.1942 19.2635 19.3793 16.357L19.646 12.1691C19.7465 10.5921 19.7967 9.80361 19.3428 9.30395C18.889 8.80429 18.1226 8.80429 16.5899 8.80429H8.83791C7.30514 8.80429 6.53875 8.80429 6.08492 9.30395C5.63109 9.80361 5.68131 10.5921 5.78175 12.1691L6.04846 16.357C6.23357 19.2635 6.32612 20.7167 7.23076 21.6026C8.1354 22.4885 9.52676 22.4885 12.3095 22.4885ZM10.9602 12.677C10.919 12.2432 10.5514 11.9266 10.1392 11.97C9.72708 12.0134 9.42638 12.4003 9.46759 12.8341L9.96759 18.0973C10.0088 18.5311 10.3763 18.8477 10.7885 18.8043C11.2007 18.7609 11.5014 18.374 11.4602 17.9402L10.9602 12.677ZM15.2885 11.97C15.7007 12.0134 16.0014 12.4003 15.9602 12.8341L15.4602 18.0973C15.419 18.5311 15.0514 18.8477 14.6393 18.8043C14.2271 18.7609 13.9264 18.374 13.9676 17.9402L14.4676 12.677C14.5088 12.2432 14.8764 11.9266 15.2885 11.97Z" fill="#2D2D2D"/>
</svg>
