<svg width="25" height="25" viewBox="0 0 25 25" fill="none" xmlns="http://www.w3.org/2000/svg">
<path fill-rule="evenodd" clip-rule="evenodd" d="M17.2139 22.4884C15.564 22.4884 14.739 22.4884 14.2265 21.9758C13.7139 21.4633 13.7139 20.6383 13.7139 18.9884C13.7139 17.3385 13.7139 16.5135 14.2265 16.001C14.739 15.4884 15.564 15.4884 17.2139 15.4884C18.8638 15.4884 19.6888 15.4884 20.2013 16.001C20.7139 16.5135 20.7139 17.3385 20.7139 18.9884C20.7139 20.6383 20.7139 21.4633 20.2013 21.9758C19.6888 22.4884 18.8638 22.4884 17.2139 22.4884ZM16.0708 17.0204C15.843 16.7926 15.4737 16.7926 15.2459 17.0204C15.0181 17.2482 15.0181 17.6175 15.2459 17.8453L16.3889 18.9884L15.2459 20.1315C15.0181 20.3593 15.0181 20.7286 15.2459 20.9564C15.4737 21.1842 15.843 21.1842 16.0708 20.9564L17.2139 19.8134L18.357 20.9564C18.5848 21.1842 18.9541 21.1842 19.1819 20.9564C19.4097 20.7286 19.4097 20.3593 19.1819 20.1315L18.0389 18.9884L19.1819 17.8453C19.4097 17.6175 19.4097 17.2482 19.1819 17.0204C18.9541 16.7926 18.5848 16.7926 18.357 17.0204L17.2139 18.1634L16.0708 17.0204Z" fill="#2D2D2D"/>
<path d="M12.7139 10.4884C14.923 10.4884 16.7139 8.69751 16.7139 6.48837C16.7139 4.27923 14.923 2.48837 12.7139 2.48837C10.5047 2.48837 8.71387 4.27923 8.71387 6.48837C8.71387 8.69751 10.5047 10.4884 12.7139 10.4884Z" fill="#2D2D2D"/>
<path d="M16.3921 13.9912C15.919 13.9969 15.4781 14.0142 15.0938 14.0658C14.4509 14.1523 13.7473 14.3589 13.1658 14.9403C12.5844 15.5217 12.3778 16.2254 12.2914 16.8683C12.2137 17.446 12.2138 18.1519 12.2139 18.9024V19.0744C12.2138 19.8249 12.2137 20.5308 12.2914 21.1085C12.352 21.5596 12.4718 22.0406 12.7388 22.4884C12.7305 22.4884 12.7222 22.4884 12.7139 22.4884C4.71387 22.4884 4.71387 20.4737 4.71387 17.9884C4.71387 15.5031 8.29559 13.4884 12.7139 13.4884C14.0401 13.4884 15.2909 13.6699 16.3921 13.9912Z" fill="#2D2D2D"/>
</svg>
