<svg width="25" height="25" viewBox="0 0 25 25" fill="none" xmlns="http://www.w3.org/2000/svg">
<path fill-rule="evenodd" clip-rule="evenodd" d="M17.2139 16.2384C15.6951 16.2384 14.4639 17.4696 14.4639 18.9884C14.4639 19.4888 14.5971 19.9575 14.8306 20.3616L18.5871 16.6051C18.183 16.3716 17.7143 16.2384 17.2139 16.2384ZM19.6335 17.68L15.9055 21.408C16.2945 21.6189 16.74 21.7384 17.2139 21.7384C18.7327 21.7384 19.9639 20.5072 19.9639 18.9884C19.9639 18.5145 19.8444 18.069 19.6335 17.68ZM12.9639 18.9884C12.9639 16.6412 14.8667 14.7384 17.2139 14.7384C18.4029 14.7384 19.4791 15.2277 20.2496 16.014C21 16.7798 21.4639 17.8307 21.4639 18.9884C21.4639 21.3356 19.5611 23.2384 17.2139 23.2384C16.0562 23.2384 15.0053 22.7745 14.2395 22.0241C13.4532 21.2536 12.9639 20.1774 12.9639 18.9884Z" fill="#2D2D2D"/>
<path d="M16.7139 6.48837C16.7139 8.69751 14.923 10.4884 12.7139 10.4884C10.5047 10.4884 8.71387 8.69751 8.71387 6.48837C8.71387 4.27923 10.5047 2.48837 12.7139 2.48837C14.923 2.48837 16.7139 4.27923 16.7139 6.48837Z" fill="#2D2D2D"/>
<path d="M15.009 13.6763C12.9276 14.5413 11.4639 16.5939 11.4639 18.9884C11.4639 20.3047 11.9082 21.5199 12.6517 22.4884C4.71387 22.4779 4.71387 20.4672 4.71387 17.9884C4.71387 15.5031 8.29559 13.4884 12.7139 13.4884C13.5116 13.4884 14.282 13.5541 15.009 13.6763Z" fill="#2D2D2D"/>
</svg>
