<svg width="25" height="25" viewBox="0 0 25 25" fill="none" xmlns="http://www.w3.org/2000/svg">
<path d="M19.0708 2.1025C19.2839 1.74732 19.7446 1.63215 20.0998 1.84526L19.7139 2.48838C20.0998 1.84526 20.0994 1.84505 20.0998 1.84526L20.1012 1.84609L20.1027 1.84704L20.1064 1.8493L20.116 1.85521C20.1234 1.85979 20.1326 1.86563 20.1436 1.87275C20.1656 1.88698 20.1947 1.90635 20.2299 1.93098C20.3002 1.9802 20.3952 2.05071 20.5065 2.14346C20.7286 2.32855 21.0191 2.60504 21.3084 2.98109C21.8912 3.73883 22.4639 4.89572 22.4639 6.48838C22.4639 8.08103 21.8912 9.23792 21.3084 9.99566C21.0191 10.3717 20.7286 10.6482 20.5065 10.8333C20.3952 10.9261 20.3002 10.9966 20.2299 11.0458C20.1947 11.0704 20.1656 11.0898 20.1436 11.104C20.1381 11.1076 20.1331 11.1108 20.1285 11.1137C20.1239 11.1167 20.1197 11.1193 20.116 11.1216L20.1064 11.1275L20.1027 11.1297L20.1012 11.1307C20.1008 11.1309 20.0998 11.1315 19.7139 10.4884L20.0998 11.1315C19.7446 11.3446 19.2839 11.2295 19.0708 10.8743C18.8586 10.5206 18.9719 10.0622 19.3236 9.84796L19.3291 9.84443C19.3364 9.83971 19.3502 9.83057 19.3697 9.81692C19.4088 9.78958 19.4701 9.74446 19.5463 9.68096C19.6992 9.55355 19.9087 9.35504 20.1194 9.08109C20.5366 8.53883 20.9639 7.69572 20.9639 6.48838C20.9639 5.28103 20.5366 4.43792 20.1194 3.89566C19.9087 3.62171 19.6992 3.4232 19.5463 3.29579C19.4701 3.2323 19.4088 3.18717 19.3697 3.15983C19.3502 3.14618 19.3364 3.13704 19.3291 3.13233L19.3236 3.1288C18.9719 2.91451 18.8586 2.4562 19.0708 2.1025Z" fill="#2D2D2D"/>
<path d="M10.7139 10.4884C12.923 10.4884 14.7139 8.69753 14.7139 6.48839C14.7139 4.27925 12.923 2.48839 10.7139 2.48839C8.50473 2.48839 6.71387 4.27925 6.71387 6.48839C6.71387 8.69753 8.50473 10.4884 10.7139 10.4884Z" fill="#2D2D2D"/>
<path d="M2.71387 17.9884C2.71387 20.4737 2.71387 22.4884 10.7139 22.4884C18.7139 22.4884 18.7139 20.4737 18.7139 17.9884C18.7139 15.5031 15.1322 13.4884 10.7139 13.4884C6.29559 13.4884 2.71387 15.5031 2.71387 17.9884Z" fill="#2D2D2D"/>
<path d="M18.0998 3.84526C17.7446 3.63215 17.2839 3.74732 17.0708 4.1025L17.319 5.126L17.3268 5.13132C17.3385 5.13952 17.3607 5.15573 17.39 5.18017C17.4492 5.22945 17.5337 5.30921 17.6194 5.42066C17.7866 5.63792 17.9639 5.98103 17.9639 6.48838C17.9639 6.99572 17.7866 7.33883 17.6194 7.55609C17.5337 7.66754 17.4492 7.7473 17.39 7.79659C17.3607 7.82102 17.3385 7.83724 17.3268 7.84544L17.319 7.85075C16.9709 8.06621 16.8595 8.52209 17.0708 8.87425C17.2839 9.22943 17.7446 9.34461 18.0998 9.1315L17.7139 8.48838C18.0998 9.1315 18.0994 9.1317 18.0998 9.1315L18.1011 9.13069L18.1026 9.12982L18.1057 9.1279L18.1132 9.1233L18.1324 9.11109C18.1471 9.10159 18.1654 9.08935 18.187 9.07428C18.2299 9.04421 18.2859 9.00261 18.3503 8.94892C18.4786 8.84195 18.6441 8.68421 18.8084 8.47066C19.1412 8.03792 19.4639 7.38103 19.4639 6.48838C19.4639 5.59572 19.1412 4.93883 18.8084 4.50609C18.6441 4.29254 18.4786 4.1348 18.3503 4.02784C18.2859 3.97414 18.2299 3.93255 18.187 3.90247C18.1654 3.88741 18.1471 3.87516 18.1324 3.86567L18.1132 3.85345L18.1057 3.84886L18.1026 3.84693L18.1011 3.84606C18.1008 3.84586 18.0998 3.84526 17.7139 4.48838L18.0998 3.84526Z" fill="#2D2D2D"/>
</svg>
