<svg width="25" height="25" viewBox="0 0 25 25" fill="none" xmlns="http://www.w3.org/2000/svg">
<path d="M2.71387 11.9884V12.9884C2.71387 16.2759 2.71387 17.9196 3.62183 19.026C3.78805 19.2285 3.97376 19.4142 4.1763 19.5804C5.28265 20.4884 6.92639 20.4884 10.2139 20.4884C13.5014 20.4884 15.1451 20.4884 16.2515 19.5804C16.454 19.4142 16.6397 19.2285 16.8059 19.026C17.5075 18.1711 17.667 16.9954 17.7032 14.9884L18.3723 15.3176C20.3181 16.2905 21.2911 16.777 22.0025 16.3373C22.7139 15.8977 22.7139 14.8099 22.7139 12.6343V12.3425C22.7139 10.1669 22.7139 9.07912 22.0025 8.63944C21.2911 8.19977 20.3181 8.68625 18.3723 9.65919L17.7032 9.98839C17.667 7.9814 17.5075 6.80567 16.8059 5.9508C16.6397 5.74826 16.454 5.56255 16.2515 5.39633C15.1451 4.48837 13.5014 4.48837 10.2139 4.48837C6.92639 4.48837 5.28265 4.48837 4.1763 5.39633C3.97376 5.56255 3.78805 5.74826 3.62183 5.9508C2.71387 7.05715 2.71387 8.70089 2.71387 11.9884Z" fill="#2D2D2D"/>
</svg>
