<svg width="25" height="25" viewBox="0 0 25 25" fill="none" xmlns="http://www.w3.org/2000/svg">
<path d="M5.81618 12.2235C5.85407 10.3812 5.87302 9.46013 6.49413 8.67161C6.6075 8.52768 6.77384 8.35668 6.91325 8.24072C7.67707 7.60539 8.68554 7.60539 10.7025 7.60539C11.423 7.60539 11.7833 7.60539 12.1268 7.5125C12.1981 7.4932 12.2687 7.47094 12.3384 7.44579C12.6739 7.32473 12.9747 7.11635 13.5763 6.69959C15.9501 5.05536 17.137 4.23325 18.1332 4.59039C18.3242 4.65886 18.509 4.7577 18.6741 4.8796C19.5353 5.51542 19.6008 6.99473 19.7316 9.95335C19.7801 11.0489 19.8131 11.9865 19.8131 12.508C19.8131 13.0295 19.7801 13.9671 19.7316 15.0626C19.6008 18.0212 19.5353 19.5006 18.6741 20.1364C18.509 20.2583 18.3242 20.3571 18.1332 20.4256C17.137 20.7827 15.9501 19.9606 13.5763 18.3164C12.9747 17.8996 12.6739 17.6913 12.3384 17.5702C12.2687 17.545 12.1981 17.5228 12.1268 17.5035C11.7833 17.4106 11.423 17.4106 10.7025 17.4106C8.68554 17.4106 7.67707 17.4106 6.91325 16.7753C6.77384 16.6593 6.6075 16.4883 6.49413 16.3444C5.87302 15.5558 5.85407 14.6347 5.81618 12.7925C5.81418 12.6958 5.81314 12.6008 5.81314 12.508C5.81314 12.4152 5.81418 12.3202 5.81618 12.2235Z" fill="#2D2D2D"/>
</svg>
