<svg width="25" height="25" viewBox="0 0 25 25" fill="none" xmlns="http://www.w3.org/2000/svg">
<path d="M2.81613 12.2235C2.85347 10.3812 2.87214 9.46013 3.48407 8.67161C3.59576 8.52768 3.75964 8.35668 3.89699 8.24072C4.64953 7.60539 5.64309 7.60539 7.6302 7.60539C8.34014 7.60539 8.69512 7.60539 9.03349 7.5125C9.10381 7.4932 9.17338 7.47094 9.24204 7.44579C9.5725 7.32472 9.86888 7.11635 10.4617 6.69959C12.8003 5.05536 13.9696 4.23325 14.9511 4.59039C15.1392 4.65886 15.3214 4.7577 15.4841 4.8796C16.3325 5.51542 16.397 6.99473 16.5259 9.95335C16.5737 11.0489 16.6062 11.9865 16.6062 12.508C16.6062 13.0295 16.5737 13.9671 16.5259 15.0626C16.397 18.0212 16.3325 19.5006 15.4841 20.1364C15.3214 20.2583 15.1392 20.3571 14.9511 20.4256C13.9696 20.7827 12.8003 19.9606 10.4617 18.3164C9.86888 17.8996 9.5725 17.6913 9.24204 17.5702C9.17338 17.545 9.10381 17.5228 9.03349 17.5035C8.69512 17.4106 8.34014 17.4106 7.6302 17.4106C5.64309 17.4106 4.64953 17.4106 3.89699 16.7753C3.75964 16.6593 3.59576 16.4883 3.48407 16.3444C2.87214 15.5558 2.85347 14.6347 2.81613 12.7925C2.81417 12.6958 2.81314 12.6008 2.81314 12.508C2.81314 12.4152 2.81417 12.3202 2.81613 12.2235Z" fill="#2D2D2D"/>
<path fill-rule="evenodd" clip-rule="evenodd" d="M20.3026 6.06018C20.5952 5.80017 21.0301 5.84233 21.2739 6.15434L20.7441 6.62512C21.2739 6.15434 21.2737 6.15401 21.2739 6.15434L21.2751 6.15569L21.2763 6.1572L21.2789 6.16074L21.2858 6.16983C21.291 6.17679 21.2975 6.18555 21.3052 6.19613C21.3206 6.21728 21.3407 6.24571 21.3647 6.28157C21.4127 6.35328 21.4766 6.45466 21.551 6.58688C21.6999 6.85144 21.8902 7.23891 22.0776 7.75837C22.4529 8.79906 22.8131 10.3593 22.8131 12.5082C22.8131 14.6571 22.4529 16.2174 22.0776 17.2581C21.8902 17.7775 21.6999 18.165 21.551 18.4296C21.4766 18.5618 21.4127 18.6632 21.3647 18.7349C21.3407 18.7707 21.3206 18.7992 21.3052 18.8203C21.2975 18.8309 21.291 18.8397 21.2858 18.8466L21.2789 18.8557L21.2763 18.8593L21.2751 18.8608C21.2748 18.8611 21.2739 18.8621 20.7441 18.3913L21.2739 18.8621C21.0301 19.1741 20.5952 19.2163 20.3026 18.9563C20.0114 18.6975 19.9709 18.237 20.2108 17.925C20.2114 17.9243 20.2125 17.9228 20.214 17.9207C20.2189 17.914 20.2285 17.9005 20.2422 17.88C20.2696 17.8391 20.3135 17.7705 20.3684 17.6729C20.4781 17.4778 20.6326 17.1667 20.7901 16.7301C21.1044 15.8588 21.4339 14.4775 21.4339 12.5082C21.4339 10.5389 21.1044 9.15767 20.7901 8.28635C20.6326 7.8498 20.4781 7.53865 20.3684 7.34359C20.3135 7.24601 20.2696 7.17733 20.2422 7.13644C20.2285 7.11599 20.2189 7.10248 20.214 7.09577C20.2125 7.0936 20.2114 7.09215 20.2108 7.09139" fill="#2D2D2D"/>
<path fill-rule="evenodd" clip-rule="evenodd" d="M18.5702 8.92393C18.9032 8.72669 19.3231 8.85461 19.508 9.20964L18.9052 9.56678C19.508 9.20964 19.5079 9.20932 19.508 9.20964L19.5087 9.21093L19.5094 9.2123L19.5109 9.21528L19.5145 9.22226L19.5233 9.24025C19.53 9.25405 19.5382 9.27146 19.5476 9.29255C19.5664 9.33474 19.5903 9.39161 19.6173 9.46372C19.6715 9.60802 19.7382 9.81288 19.8031 10.0827C19.933 10.623 20.0546 11.4199 20.0546 12.5083C20.0546 13.5968 19.933 14.3937 19.8031 14.9339C19.7382 15.2038 19.6715 15.4087 19.6173 15.553C19.5903 15.6251 19.5664 15.6819 19.5476 15.7241C19.5382 15.7452 19.53 15.7626 19.5233 15.7764L19.5145 15.7944L19.5109 15.8014L19.5094 15.8044L19.5087 15.8058C19.5085 15.8061 19.508 15.807 18.9052 15.4499L19.508 15.807C19.3231 16.1621 18.9032 16.29 18.5702 16.0927C18.2401 15.8972 18.1194 15.4554 18.2977 15.1018L18.3023 15.0918C18.3086 15.0777 18.3206 15.0495 18.3367 15.0067C18.3688 14.9212 18.417 14.7768 18.467 14.5686C18.567 14.1528 18.6753 13.4789 18.6753 12.5083C18.6753 11.5378 18.567 10.8639 18.467 10.448C18.417 10.2399 18.3688 10.0955 18.3367 10.0099C18.3206 9.96716 18.3086 9.939 18.3023 9.92489L18.2977 9.91485C18.1194 9.5613 18.2401 9.1195 18.5702 8.92393Z" fill="#2D2D2D"/>
</svg>
