<svg width="25" height="25" viewBox="0 0 25 25" fill="none" xmlns="http://www.w3.org/2000/svg">
<path d="M3.81626 12.2235C3.85524 10.3812 3.87473 9.46013 4.51359 8.67161C4.63019 8.52768 4.80128 8.35668 4.94467 8.24072C5.73032 7.60539 6.76758 7.60539 8.84212 7.60539C9.58329 7.60539 9.95388 7.60539 10.3072 7.5125C10.3806 7.4932 10.4532 7.47094 10.5249 7.44579C10.8698 7.32472 11.1792 7.11635 11.7981 6.69959C14.2396 5.05536 15.4604 4.23325 16.4851 4.59039C16.6815 4.65886 16.8717 4.7577 17.0415 4.8796C17.9273 5.51542 17.9946 6.99473 18.1292 9.95335C18.179 11.0489 18.213 11.9865 18.213 12.508C18.213 13.0295 18.179 13.9671 18.1292 15.0626C17.9946 18.0212 17.9273 19.5006 17.0415 20.1364C16.8717 20.2583 16.6815 20.3571 16.4851 20.4256C15.4604 20.7827 14.2396 19.9606 11.7981 18.3164C11.1792 17.8996 10.8698 17.6913 10.5249 17.5702C10.4532 17.545 10.3806 17.5228 10.3072 17.5035C9.95388 17.4106 9.5833 17.4106 8.84212 17.4106C6.76758 17.4106 5.73032 17.4106 4.94467 16.7753C4.80128 16.6593 4.63019 16.4883 4.51359 16.3444C3.87473 15.5558 3.85524 14.6347 3.81626 12.7925C3.81421 12.6958 3.81314 12.6008 3.81314 12.508C3.81314 12.4152 3.81421 12.3202 3.81626 12.2235Z" fill="#2D2D2D"/>
<path fill-rule="evenodd" clip-rule="evenodd" d="M20.2635 8.92393C20.6111 8.72669 21.0495 8.85461 21.2426 9.20964L20.6132 9.56678C21.2426 9.20964 21.2426 9.20964 21.2426 9.20964L21.2433 9.21093L21.244 9.2123L21.2456 9.21528L21.2493 9.22226L21.2586 9.24025C21.2655 9.25405 21.2741 9.27146 21.2839 9.29255C21.3036 9.33474 21.3285 9.39161 21.3567 9.46372C21.4132 9.60802 21.4829 9.81288 21.5506 10.0827C21.6863 10.623 21.8132 11.4199 21.8132 12.5083C21.8132 13.5968 21.6863 14.3937 21.5506 14.9339C21.4829 15.2038 21.4132 15.4087 21.3567 15.553C21.3285 15.6251 21.3036 15.6819 21.2839 15.7241C21.2741 15.7452 21.2655 15.7626 21.2586 15.7764L21.2493 15.7944L21.2456 15.8014L21.244 15.8044L21.2433 15.8058C21.2433 15.8058 21.2426 15.807 20.6132 15.4499L21.2426 15.807C21.0495 16.1621 20.6111 16.29 20.2635 16.0927C19.9189 15.8972 19.7929 15.4554 19.979 15.1018L19.9838 15.0918C19.9904 15.0777 20.003 15.0495 20.0197 15.0067C20.0532 14.9212 20.1035 14.7768 20.1558 14.5686C20.2602 14.1528 20.3732 13.4789 20.3732 12.5083C20.3732 11.5378 20.2602 10.8639 20.1558 10.448C20.1035 10.2399 20.0532 10.0955 20.0197 10.0099C20.003 9.96716 19.9904 9.939 19.9838 9.92489L19.979 9.91485C19.7929 9.5613 19.9189 9.1195 20.2635 8.92393Z" fill="#2D2D2D"/>
</svg>
