<svg width="25" height="25" viewBox="0 0 25 25" fill="none" xmlns="http://www.w3.org/2000/svg">
<path d="M2.71387 6.98837C2.71387 4.86705 2.71387 3.80639 3.37288 3.14738C4.03189 2.48837 5.09255 2.48837 7.21387 2.48837C9.33519 2.48837 10.3958 2.48837 11.0549 3.14738C11.7139 3.80639 11.7139 4.86705 11.7139 6.98837C11.7139 9.10969 11.7139 10.1704 11.0549 10.8294C10.3958 11.4884 9.33519 11.4884 7.21387 11.4884C5.09255 11.4884 4.03189 11.4884 3.37288 10.8294C2.71387 10.1704 2.71387 9.10969 2.71387 6.98837Z" fill="#2D2D2D"/>
<path d="M13.7139 17.9884C13.7139 15.8671 13.7139 14.8064 14.3729 14.1474C15.0319 13.4884 16.0926 13.4884 18.2139 13.4884C20.3352 13.4884 21.3959 13.4884 22.0549 14.1474C22.7139 14.8064 22.7139 15.8671 22.7139 17.9884C22.7139 20.1097 22.7139 21.1704 22.0549 21.8294C21.3959 22.4884 20.3352 22.4884 18.2139 22.4884C16.0926 22.4884 15.0319 22.4884 14.3729 21.8294C13.7139 21.1704 13.7139 20.1097 13.7139 17.9884Z" fill="#2D2D2D"/>
<path d="M2.71387 17.9884C2.71387 15.8671 2.71387 14.8064 3.37288 14.1474C4.03189 13.4884 5.09255 13.4884 7.21387 13.4884C9.33519 13.4884 10.3958 13.4884 11.0549 14.1474C11.7139 14.8064 11.7139 15.8671 11.7139 17.9884C11.7139 20.1097 11.7139 21.1704 11.0549 21.8294C10.3958 22.4884 9.33519 22.4884 7.21387 22.4884C5.09255 22.4884 4.03189 22.4884 3.37288 21.8294C2.71387 21.1704 2.71387 20.1097 2.71387 17.9884Z" fill="#2D2D2D"/>
<path d="M13.7139 6.98837C13.7139 4.86705 13.7139 3.80639 14.3729 3.14738C15.0319 2.48837 16.0926 2.48837 18.2139 2.48837C20.3352 2.48837 21.3959 2.48837 22.0549 3.14738C22.7139 3.80639 22.7139 4.86705 22.7139 6.98837C22.7139 9.10969 22.7139 10.1704 22.0549 10.8294C21.3959 11.4884 20.3352 11.4884 18.2139 11.4884C16.0926 11.4884 15.0319 11.4884 14.3729 10.8294C13.7139 10.1704 13.7139 9.10969 13.7139 6.98837Z" fill="#2D2D2D"/>
</svg>
