<svg width="25" height="25" viewBox="0 0 25 25" fill="none" xmlns="http://www.w3.org/2000/svg">
<path d="M2.71387 6.6989C2.71387 4.71404 2.71387 3.7216 3.37288 3.10499C4.03189 2.48837 5.09255 2.48837 7.21387 2.48837C9.33519 2.48837 10.3958 2.48837 11.0549 3.10499C11.7139 3.7216 11.7139 4.71404 11.7139 6.6989V18.2779C11.7139 20.2627 11.7139 21.2552 11.0549 21.8718C10.3958 22.4884 9.33519 22.4884 7.21387 22.4884C5.09255 22.4884 4.03189 22.4884 3.37288 21.8718C2.71387 21.2552 2.71387 20.2627 2.71387 18.2779V6.6989Z" fill="#2D2D2D"/>
<path d="M13.7139 15.8884C13.7139 13.8142 13.7139 12.7771 14.3729 12.1328C15.0319 11.4884 16.0926 11.4884 18.2139 11.4884C20.3352 11.4884 21.3959 11.4884 22.0549 12.1328C22.7139 12.7771 22.7139 13.8142 22.7139 15.8884V18.0884C22.7139 20.1626 22.7139 21.1997 22.0549 21.844C21.3959 22.4884 20.3352 22.4884 18.2139 22.4884C16.0926 22.4884 15.0319 22.4884 14.3729 21.844C13.7139 21.1997 13.7139 20.1626 13.7139 18.0884V15.8884Z" fill="#2D2D2D"/>
<path d="M13.7139 5.98837C13.7139 4.90117 13.7139 4.35757 13.8852 3.92878C14.1135 3.35704 14.5515 2.9028 15.1029 2.66598C15.5163 2.48837 16.0405 2.48837 17.0889 2.48837H19.3389C20.3873 2.48837 20.9115 2.48837 21.3249 2.66598C21.8763 2.9028 22.3143 3.35704 22.5426 3.92878C22.7139 4.35757 22.7139 4.90117 22.7139 5.98837C22.7139 7.07557 22.7139 7.61917 22.5426 8.04796C22.3143 8.6197 21.8763 9.07394 21.3249 9.31076C20.9115 9.48837 20.3873 9.48837 19.3389 9.48837H17.0889C16.0405 9.48837 15.5163 9.48837 15.1029 9.31076C14.5515 9.07394 14.1135 8.6197 13.8852 8.04796C13.7139 7.61917 13.7139 7.07557 13.7139 5.98837Z" fill="#2D2D2D"/>
</svg>
