<svg width="25" height="25" viewBox="0 0 25 25" fill="none" xmlns="http://www.w3.org/2000/svg">
<path d="M13.7139 15.8884C13.7139 13.8142 13.7139 12.7771 14.3729 12.1328C15.0319 11.4884 16.0926 11.4884 18.2139 11.4884C20.3352 11.4884 21.3959 11.4884 22.0549 12.1328C22.7139 12.7771 22.7139 13.8142 22.7139 15.8884V18.0884C22.7139 20.1626 22.7139 21.1997 22.0549 21.844C21.3959 22.4884 20.3352 22.4884 18.2139 22.4884C16.0926 22.4884 15.0319 22.4884 14.3729 21.844C13.7139 21.1997 13.7139 20.1626 13.7139 18.0884V15.8884Z" fill="#2D2D2D"/>
<path d="M2.71387 9.08837C2.71387 11.1626 2.71387 12.1997 3.37288 12.844C4.03189 13.4884 5.09255 13.4884 7.21387 13.4884C9.33519 13.4884 10.3958 13.4884 11.0549 12.844C11.7139 12.1997 11.7139 11.1626 11.7139 9.08837V6.88837C11.7139 4.81419 11.7139 3.7771 11.0549 3.13274C10.3958 2.48837 9.33519 2.48837 7.21387 2.48837C5.09255 2.48837 4.03189 2.48837 3.37288 3.13274C2.71387 3.7771 2.71387 4.81419 2.71387 6.88837V9.08837Z" fill="#2D2D2D"/>
<path d="M13.7139 5.98837C13.7139 4.90117 13.7139 4.35757 13.8852 3.92878C14.1135 3.35704 14.5515 2.9028 15.1029 2.66598C15.5163 2.48837 16.0405 2.48837 17.0889 2.48837H19.3389C20.3873 2.48837 20.9115 2.48837 21.3249 2.66598C21.8763 2.9028 22.3143 3.35704 22.5426 3.92878C22.7139 4.35757 22.7139 4.90117 22.7139 5.98837C22.7139 7.07557 22.7139 7.61917 22.5426 8.04796C22.3143 8.6197 21.8763 9.07394 21.3249 9.31076C20.9115 9.48837 20.3873 9.48837 19.3389 9.48837H17.0889C16.0405 9.48837 15.5163 9.48837 15.1029 9.31076C14.5515 9.07394 14.1135 8.6197 13.8852 8.04796C13.7139 7.61917 13.7139 7.07557 13.7139 5.98837Z" fill="#2D2D2D"/>
<path d="M2.71387 18.9884C2.71387 20.0756 2.71387 20.6192 2.88514 21.048C3.1135 21.6197 3.55152 22.074 4.10283 22.3108C4.51632 22.4884 5.0405 22.4884 6.08887 22.4884H8.33887C9.38724 22.4884 9.91142 22.4884 10.3249 22.3108C10.8763 22.074 11.3143 21.6197 11.5426 21.048C11.7139 20.6192 11.7139 20.0756 11.7139 18.9884C11.7139 17.9012 11.7139 17.3576 11.5426 16.9288C11.3143 16.3571 10.8763 15.9028 10.3249 15.666C9.91142 15.4884 9.38724 15.4884 8.33887 15.4884H6.08887C5.0405 15.4884 4.51632 15.4884 4.10283 15.666C3.55152 15.9028 3.1135 16.3571 2.88514 16.9288C2.71387 17.3576 2.71387 17.9012 2.71387 18.9884Z" fill="#2D2D2D"/>
</svg>
